<svg xmlns="http://www.w3.org/2000/svg">
<defs>
<font id="GTPressura-Regular" horiz-adv-x="1126" >
  <font-face 
    font-family="GT Pressura"
    font-weight="400"
    font-stretch="normal"
    units-per-em="2048"
    panose-1="0 0 5 0 0 0 0 0 0 0"
    ascent="1618"
    descent="-430"
    x-height="1024"
    cap-height="1434"
    bbox="-1085 -430 1929 1808"
    underline-thickness="102"
    underline-position="-409"
    unicode-range="U+000D-FB02"
  />
<missing-glyph 
d="M238 129q-43 0 -75 27.5t-32 64.5q0 32 13.5 55t29.5 35t29.5 40t13.5 69q0 34 -16.5 56t-40.5 22q-17 0 -32 -7.5t-30 -7.5q-29 0 -45 32t-16 75q0 29 19.5 54.5t47.5 25.5q14 0 30.5 -11.5t25.5 -11.5q27 0 41 27.5t14 54.5q0 17 -10 50t-10 50q0 38 22.5 57t58.5 19
q19 0 19 17q0 6 -8 22t-8 27q0 10 10.5 19t21.5 9q22 0 45 -35.5t41 -35.5q22 0 31 17.5t9.5 38.5t15 38.5t45.5 17.5q29 0 48.5 -15.5t28 -33.5t26.5 -33.5t44 -15.5q41 0 56.5 22.5t15.5 75.5q0 54 30 81.5t78 27.5q44 0 70.5 -27t26.5 -71q0 -30 -15.5 -53t-34 -34.5
t-34 -25.5t-15.5 -29q0 -25 25 -45t55 -33t55 -43.5t25 -74.5q0 -40 -32.5 -77t-32.5 -71q0 -53 90 -53q42 0 62 -25.5t20 -66.5q0 -44 -31.5 -75.5t-75.5 -31.5q-21 0 -40 16t-31 35.5t-32.5 35.5t-43.5 16q-22 0 -37 -11.5t-15 -31.5t20.5 -42.5t20.5 -58.5
q0 -28 -18 -47.5t-53 -19.5q-21 0 -72.5 30.5t-91.5 30.5q-22 0 -37.5 -15.5t-15.5 -47.5q0 -25 -13.5 -40.5t-36.5 -15.5q-17 0 -26.5 15.5t-14 34t-22 34t-47.5 15.5q-24 0 -38 -18.5t-19.5 -40t-25.5 -40t-56 -18.5zM233 995q-25 0 -42 20.5t-17 49.5t17 49.5t42 20.5
q20 0 35 -20.5t15 -49.5t-15 -49.5t-35 -20.5zM438 614q34 0 58 24t24 58q0 43 -24 73t-58 30l-73 -103q0 -35 20 -58.5t53 -23.5zM692 614q34 0 61 24.5t27 57.5l-88 97q-33 0 -57.5 -31t-24.5 -66q0 -34 24 -58t58 -24zM657 664q-12 0 -20 14t-8 33t8 31t20 12
q14 0 23.5 -12.5t9.5 -30.5q0 -19 -10 -33t-23 -14zM422 649q-12 0 -20.5 12t-8.5 31q0 20 8.5 32.5t20.5 12.5q14 0 22.5 -12.5t8.5 -32.5q0 -19 -8.5 -31t-22.5 -12zM311 422q57 28 110 33t91 -4.5t99 -17t122 -1.5q-79 85 -143 109.5t-129 -4t-150 -115.5z" />
    <glyph glyph-name="f_f" unicode="ff" horiz-adv-x="1294" 
d="M389 0h-102q-17 0 -29 12t-12 29v768q0 20 -21 20h-153q-17 0 -29 12t-12 29v103q0 17 12 29t29 12h153q21 0 21 20v37q0 178 102 280.5t277 102.5q17 0 29 -12t12 -29v-102q0 -17 -12 -29t-29 -12q-92 0 -143.5 -52.5t-51.5 -146.5v-37q0 -20 21 -20h348q20 0 20 20v37
q0 178 102 280.5t277 102.5h21q17 0 29 -12t12 -29v-102q0 -17 -12 -29t-29 -12h-21q-92 0 -143 -52.5t-51 -146.5v-37q0 -20 20 -20h209q17 0 29 -12t12 -29v-103q0 -17 -12 -29t-29 -12h-209q-20 0 -20 -20v-768q0 -17 -12 -29t-29 -12h-103q-17 0 -29 12t-12 29v778
q0 21 -20 21h-348q-9 0 -15 -6t-6 -15v-778q0 -17 -12 -29t-29 -12z" />
    <glyph glyph-name="f_f_i" unicode="ffi" horiz-adv-x="1703" 
d="M1556 1270h-358q-92 0 -143 -52.5t-51 -146.5v-37q0 -20 20 -20h516q17 0 29 -12t12 -29v-932q0 -17 -12 -29t-29 -12h-106q-17 0 -29 12t-12 29v778q0 9 -6 15t-15 6h-348q-20 0 -20 -21v-778q0 -17 -12 -29t-29 -12h-103q-17 0 -29 12t-12 29v778q0 21 -20 21h-348
q-9 0 -15 -6t-6 -15v-778q0 -17 -12 -29t-29 -12h-102q-17 0 -29 12t-12 29v768q0 20 -21 20h-153q-17 0 -29 12t-12 29v103q0 17 12 29t29 12h153q21 0 21 20v37q0 178 102 280.5t277 102.5q17 0 29 -12t12 -29v-102q0 -17 -12 -29t-29 -12q-92 0 -143.5 -52.5
t-51.5 -146.5v-37q0 -20 21 -20h348q20 0 20 20v37q0 178 102 280.5t277 102.5h358q13 0 23 -10.5t10 -22.5v-118q0 -13 -9.5 -23t-23.5 -10z" />
    <glyph glyph-name="f_f_l" unicode="ffl" horiz-adv-x="1734" 
d="M451 1014h348q20 0 20 20v37q0 177 101 280t278 103q13 0 23 -10.5t10 -22.5v-118q0 -13 -9.5 -23t-23.5 -10q-94 0 -144 -53.5t-50 -145.5v-37q0 -20 20 -20h373q20 0 20 20v379q0 17 12 29t29 12h103q17 0 29 -12t12 -29v-1372q0 -17 -12 -29t-29 -12h-107
q-17 0 -29 12t-12 29v778q0 21 -20 21h-369q-20 0 -20 -21v-778q0 -17 -12 -29t-29 -12h-103q-17 0 -29 12t-12 29v778q0 21 -20 21h-348q-9 0 -15 -6t-6 -15v-778q0 -17 -12 -29t-29 -12h-102q-17 0 -29 12t-12 29v768q0 20 -21 20h-153q-17 0 -29 12t-12 29v103
q0 17 12 29t29 12h153q21 0 21 20v37q0 178 102 280.5t277 102.5q17 0 29 -12t12 -29v-102q0 -17 -12 -29t-29 -12q-92 0 -143.5 -52.5t-51.5 -146.5v-37q0 -20 21 -20z" />
    <glyph glyph-name="f_i" unicode="fi" horiz-adv-x="1130" 
d="M983 1270h-358q-95 0 -145 -53.5t-50 -145.5v-37q0 -20 21 -20h516q17 0 29 -12t12 -29v-932q0 -17 -12 -29t-29 -12h-107q-17 0 -29 12t-12 29v778q0 21 -20 21h-348q-9 0 -15 -6t-6 -15v-778q0 -17 -12 -29t-29 -12h-102q-17 0 -29 12t-12 29v768q0 20 -21 20h-153
q-17 0 -29 12t-12 29v103q0 17 12 29t29 12h153q21 0 21 20v37q0 177 101 280t278 103h358q13 0 23 -10.5t10 -22.5v-118q0 -13 -10 -23t-23 -10z" />
    <glyph glyph-name="f_l" unicode="fl" horiz-adv-x="1161" 
d="M451 1014h372q21 0 21 20v379q0 17 12 29t29 12h102q17 0 29 -12t12 -29v-1372q0 -17 -12 -29t-29 -12h-106q-17 0 -29 12t-12 29v778q0 9 -6 15t-15 6h-368q-9 0 -15 -6t-6 -15v-778q0 -17 -12 -29t-29 -12h-102q-17 0 -29 12t-12 29v768q0 20 -21 20h-153q-17 0 -29 12
t-12 29v103q0 17 12 29t29 12h153q21 0 21 20v37q0 177 101 280t278 103q13 0 22.5 -10.5t9.5 -22.5v-118q0 -14 -9.5 -23.5t-22.5 -9.5q-95 0 -145 -53.5t-50 -145.5v-37q0 -20 21 -20z" />
    <glyph glyph-name=".notdef" 
d="M238 129q-43 0 -75 27.5t-32 64.5q0 32 13.5 55t29.5 35t29.5 40t13.5 69q0 34 -16.5 56t-40.5 22q-17 0 -32 -7.5t-30 -7.5q-29 0 -45 32t-16 75q0 29 19.5 54.5t47.5 25.5q14 0 30.5 -11.5t25.5 -11.5q27 0 41 27.5t14 54.5q0 17 -10 50t-10 50q0 38 22.5 57t58.5 19
q19 0 19 17q0 6 -8 22t-8 27q0 10 10.5 19t21.5 9q22 0 45 -35.5t41 -35.5q22 0 31 17.5t9.5 38.5t15 38.5t45.5 17.5q29 0 48.5 -15.5t28 -33.5t26.5 -33.5t44 -15.5q41 0 56.5 22.5t15.5 75.5q0 54 30 81.5t78 27.5q44 0 70.5 -27t26.5 -71q0 -30 -15.5 -53t-34 -34.5
t-34 -25.5t-15.5 -29q0 -25 25 -45t55 -33t55 -43.5t25 -74.5q0 -40 -32.5 -77t-32.5 -71q0 -53 90 -53q42 0 62 -25.5t20 -66.5q0 -44 -31.5 -75.5t-75.5 -31.5q-21 0 -40 16t-31 35.5t-32.5 35.5t-43.5 16q-22 0 -37 -11.5t-15 -31.5t20.5 -42.5t20.5 -58.5
q0 -28 -18 -47.5t-53 -19.5q-21 0 -72.5 30.5t-91.5 30.5q-22 0 -37.5 -15.5t-15.5 -47.5q0 -25 -13.5 -40.5t-36.5 -15.5q-17 0 -26.5 15.5t-14 34t-22 34t-47.5 15.5q-24 0 -38 -18.5t-19.5 -40t-25.5 -40t-56 -18.5zM233 995q-25 0 -42 20.5t-17 49.5t17 49.5t42 20.5
q20 0 35 -20.5t15 -49.5t-15 -49.5t-35 -20.5zM438 614q34 0 58 24t24 58q0 43 -24 73t-58 30l-73 -103q0 -35 20 -58.5t53 -23.5zM692 614q34 0 61 24.5t27 57.5l-88 97q-33 0 -57.5 -31t-24.5 -66q0 -34 24 -58t58 -24zM657 664q-12 0 -20 14t-8 33t8 31t20 12
q14 0 23.5 -12.5t9.5 -30.5q0 -19 -10 -33t-23 -14zM422 649q-12 0 -20.5 12t-8.5 31q0 20 8.5 32.5t20.5 12.5q14 0 22.5 -12.5t8.5 -32.5q0 -19 -8.5 -31t-22.5 -12zM311 422q57 28 110 33t91 -4.5t99 -17t122 -1.5q-79 85 -143 109.5t-129 -4t-150 -115.5z" />
    <glyph glyph-name=".null" horiz-adv-x="0" 
 />
    <glyph glyph-name=".null" horiz-adv-x="0" 
 />
    <glyph glyph-name="nonmarkingreturn" horiz-adv-x="682" 
 />
    <glyph glyph-name="CR" unicode="&#xd;" horiz-adv-x="419" 
 />
    <glyph glyph-name="space" unicode=" " horiz-adv-x="419" 
 />
    <glyph glyph-name="exclam" unicode="!" horiz-adv-x="491" 
d="M303 389h-115q-17 0 -29 12t-12 29v963q0 17 12 29t29 12h115q17 0 29 -12t12 -29v-963q0 -17 -12 -29t-29 -12zM338 0h-184q-17 0 -29 12t-12 29v184q0 17 12 29t29 12h184q17 0 29 -12t12 -29v-184q0 -17 -12 -29t-29 -12z" />
    <glyph glyph-name="quotedbl" unicode="&#x22;" horiz-adv-x="878" 
d="M262 901h-33q-20 0 -28 23l-68 225q-20 77 -20 102v142q0 17 12 29t29 12h184q17 0 29 -12t12 -29v-142q0 -13 -2.5 -28t-5 -25t-7 -26t-6.5 -23l-67 -225q-8 -23 -29 -23zM649 901h-33q-20 0 -28 23l-68 225q-20 77 -20 102v142q0 17 12 29t29 12h184q17 0 29 -12
t12 -29v-142q0 -13 -2.5 -28t-5 -25t-7 -26t-6.5 -23l-67 -225q-8 -23 -29 -23z" />
    <glyph glyph-name="numbersign" unicode="#" horiz-adv-x="1118" 
d="M276 0h-86q-17 0 -27 12t-7 29l49 272q3 21 -17 21h-102q-35 0 -35 33q0 9 6 47l6 37q3 17 18 29t32 12h102q22 0 25 20l65 369q3 20 -16 20h-103q-17 0 -27 12t-7 29l12 76q3 17 17.5 29t31.5 12h102q22 0 25 20l55 314q3 17 16.5 29t30.5 12h86q17 0 27.5 -12t7.5 -29
l-55 -314q-3 -20 16 -20h197q21 0 24 20l56 314q3 17 16.5 29t30.5 12h86q17 0 27.5 -12t7.5 -29l-56 -314q-3 -20 17 -20h102q35 0 35 -33q0 -9 -6 -47l-6 -37q-3 -17 -17.5 -29t-31.5 -12h-103q-21 0 -24 -20l-66 -369q-3 -20 16 -20h103q17 0 26.5 -12t6.5 -29l-13 -76
q-3 -17 -16.5 -29t-30.5 -12h-102q-21 0 -25 -21l-49 -272q-3 -17 -16.5 -29t-30.5 -12h-86q-17 0 -27.5 12t-7.5 29l49 272q4 21 -16 21h-186q-10 0 -22 -6.5t-13 -14.5l-49 -272q-3 -17 -17 -29t-31 -12zM424 492h197q21 0 24 20l66 369q3 20 -17 20h-196q-22 0 -25 -20
l-65 -369q-3 -20 16 -20z" />
    <glyph glyph-name="dollar" unicode="$" horiz-adv-x="1064" 
d="M993 393q0 -166 -105.5 -277.5t-279.5 -131.5v-86q0 -17 -12 -29t-29 -12h-92q-20 0 -30.5 13t-10.5 28v90q-167 28 -264.5 140.5t-97.5 281.5v32q0 17 12 29t29 12h114q17 0 29 -12t12 -29v-32q0 -104 75.5 -170t195.5 -66q113 0 183.5 58.5t70.5 152.5
q0 106 -69.5 168.5t-227.5 99.5q-186 42 -285.5 145t-99.5 267q0 151 87.5 250t235.5 129v92q0 17 12 29t29 12h92q17 0 29 -12t12 -29v-84q171 -15 268 -117.5t97 -269.5v-27q0 -17 -12 -29t-29 -12h-113q-17 0 -29 12t-12 29v27q0 92 -62 143.5t-171 51.5
q-108 0 -171 -51.5t-63 -139.5q0 -96 72.5 -151t251.5 -95q165 -37 261.5 -153.5t96.5 -276.5z" />
    <glyph glyph-name="percent" unicode="%" horiz-adv-x="1300" 
d="M317 707q-245 0 -245 366q0 188 60.5 279.5t184.5 91.5t185 -91.5t61 -279.5q0 -366 -246 -366zM229 0h-82q-15 0 -26.5 11t-11.5 26q0 11 6 20l874 1346q19 31 45 31h78q15 0 27 -11.5t12 -25.5q0 -12 -6 -21l-873 -1345q-19 -31 -43 -31zM317 850q51 0 70 47.5
t19 175.5t-20 179t-69 51t-68.5 -51t-19.5 -179t18.5 -175.5t69.5 -47.5zM983 -10q-246 0 -246 366q0 188 61 279.5t185 91.5t185 -91.5t61 -279.5q0 -366 -246 -366zM983 133q51 0 69.5 47.5t18.5 175.5t-19.5 179t-68.5 51t-68.5 -51t-19.5 -179t18.5 -175.5t69.5 -47.5z
" />
    <glyph glyph-name="ampersand" unicode="&#x26;" horiz-adv-x="1153" 
d="M528 -20q-197 0 -321.5 118t-124.5 305q0 213 170 347q20 14 20 28q0 11 -18 37q-47 67 -67.5 131t-20.5 144q0 161 102 262.5t262 101.5q180 0 281.5 -104.5t101.5 -290.5q0 -17 -12 -29t-29 -12h-104q-17 0 -29 12t-12 29q0 221 -195 221q-80 0 -128 -51.5t-48 -138.5
q0 -77 28 -130.5t148 -205.5l273 -334q3 -6 10 -6q5 0 8 8q8 74 8 192q0 17 12 29t29 12h93q17 0 29 -12t12 -29q0 -231 -35 -323q-4 -8 -4 -17q0 -10 8 -18l158 -180q10 -13 10 -29q0 -21 -13 -34t-34 -13h-101q-24 0 -51 27l-70 75q-9 9 -14 9t-14 -9q-125 -122 -318 -122
zM528 164q98 0 189 67q6 6 6 13q0 5 -14 22l-297 361q-7 10 -17 10q-6 0 -10 -4q-60 -57 -83 -105.5t-23 -124.5q0 -107 69 -173t180 -66z" />
    <glyph glyph-name="quotesingle" unicode="'" horiz-adv-x="491" 
d="M262 901h-33q-20 0 -28 23l-68 225q-20 77 -20 102v142q0 17 12 29t29 12h184q17 0 29 -12t12 -29v-142q0 -13 -2.5 -28t-5 -25t-7 -26t-6.5 -23l-67 -225q-8 -23 -29 -23z" />
    <glyph glyph-name="parenleft" unicode="(" horiz-adv-x="698" 
d="M633 -184h-37q-185 0 -310.5 116.5t-150.5 313.5q-14 118 -14 399q0 284 14 399q10 85 46 161.5t93 137t140.5 96.5t181.5 36h25q17 0 29 -12t12 -29v-99q0 -17 -12 -29t-29 -12h-25q-101 0 -180 -69.5t-97 -180.5q-20 -140 -20 -399t20 -399q15 -98 90 -174t187 -76h37
q17 0 29 -12t12 -29v-98q0 -17 -12 -29t-29 -12z" />
    <glyph glyph-name="parenright" unicode=")" horiz-adv-x="698" 
d="M98 -184h-37q-17 0 -29 12t-12 29v98q0 17 12 29t29 12h37q112 0 187 76t90 174q20 120 20 399t-20 399q-18 111 -97 180.5t-180 69.5h-24q-17 0 -29 12t-12 29v99q0 17 12 29t29 12h24q98 0 181.5 -36t140.5 -96.5t93 -137t46 -161.5q16 -131 16 -399q0 -265 -16 -399
q-25 -197 -150.5 -313.5t-310.5 -116.5z" />
    <glyph glyph-name="asterisk" unicode="*" horiz-adv-x="960" 
d="M647 1116l150 -86q14 -8 18.5 -25t-4.5 -32l-41 -72q-9 -15 -25.5 -20t-31.5 4l-150 86v-172q0 -17 -12 -29t-29 -12h-84q-17 0 -29 12t-12 29v172l-149 -86q-15 -9 -32 -4t-26 20l-40 72q-9 15 -5 31.5t19 25.5l149 86l-149 86q-14 8 -18.5 25.5t4.5 32.5l40 71
q9 15 26 20.5t32 -3.5l149 -86v172q0 17 12 29t29 12h84q17 0 29 -12t12 -29v-172l150 86q15 9 31.5 3.5t25.5 -20.5l41 -71q9 -15 5 -32t-19 -26z" />
    <glyph glyph-name="plus" unicode="+" horiz-adv-x="1105" 
d="M606 61h-106q-17 0 -29 12t-12 29v295q0 9 -6 15t-15 6h-295q-17 0 -29 12t-12 29v106q0 17 12 29t29 12h295q9 0 15 6t6 15v295q0 17 12 29t29 12h106q17 0 29 -12t12 -29v-295q0 -9 6 -15t15 -6h295q17 0 29 -12t12 -29v-106q0 -17 -12 -29t-29 -12h-295q-9 0 -15 -6
t-6 -15v-295q0 -17 -12 -29t-29 -12z" />
    <glyph glyph-name="comma" unicode="," horiz-adv-x="491" 
d="M184 -266h-28q-21 0 -32 11.5t-11 29.5q0 14 6 26l88 172q6 10 -1.5 18.5t-17.5 8.5h-34q-17 0 -29 12t-12 29v184q0 17 12 29t29 12h184q17 0 29 -12t12 -29v-184q0 -70 -41 -127l-100 -150q-20 -30 -54 -30z" />
    <glyph glyph-name="hyphen" unicode="-" horiz-adv-x="804" 
d="M651 473h-497q-17 0 -29 12t-12 29v102q0 17 12 29t29 12h497q17 0 29 -12t12 -29v-102q0 -17 -12 -29t-29 -12z" />
    <glyph glyph-name="period" unicode="." horiz-adv-x="491" 
d="M338 0h-184q-17 0 -29 12t-12 29v184q0 17 12 29t29 12h184q17 0 29 -12t12 -29v-184q0 -17 -12 -29t-29 -12z" />
    <glyph glyph-name="slash" unicode="/" horiz-adv-x="937" 
d="M246 -25h-107q-15 0 -26 11t-11 26q0 9 4 21l545 1390q11 31 39 31h107q15 0 26 -11t11 -26q0 -5 -5 -20l-540 -1391q-11 -31 -43 -31z" />
    <glyph glyph-name="zero" unicode="0" horiz-adv-x="1118" 
d="M559 -20q-118 0 -218 53t-151 143q-48 84 -68 212t-20 329q0 204 19.5 330.5t68.5 209.5q53 89 152.5 143t216.5 54q118 0 218 -53.5t151 -143.5q48 -84 68 -211.5t20 -328.5t-20 -329t-68 -212q-51 -90 -151 -143t-218 -53zM559 164q147 0 207 119q32 64 43.5 155
t11.5 279t-11.5 279t-43.5 155q-60 119 -207 119t-207 -119q-32 -64 -43.5 -155t-11.5 -279t11.5 -279t43.5 -155q60 -119 207 -119z" />
    <glyph glyph-name="one" unicode="1" horiz-adv-x="737" 
d="M543 0h-109q-17 0 -29 12t-12 29v1124q0 9 -6.5 11.5t-11.5 -2.5l-289 -265q-14 -12 -29.5 -6t-15.5 23v125q0 45 22 67l312 297q19 19 41 19h127q17 0 29 -12t12 -29v-1352q0 -17 -12 -29t-29 -12z" />
    <glyph glyph-name="two" unicode="2" horiz-adv-x="987" 
d="M864 0h-741q-17 0 -29 12t-12 29v133q0 33 18 51l459 531q69 80 100 151t31 152q0 101 -50 156t-142 55q-98 0 -154.5 -62.5t-56.5 -169.5v-30q0 -17 -12 -29t-29 -12h-107q-19 0 -30 11t-11 30v51q0 177 110.5 286t289.5 109q173 0 283 -108.5t110 -280.5
q0 -116 -40.5 -211.5t-135.5 -202.5l-381 -434q-10 -12 -5.5 -23.5t19.5 -11.5h516q41 0 41 -41v-100q0 -41 -41 -41z" />
    <glyph glyph-name="three" unicode="3" horiz-adv-x="1036" 
d="M514 -20q-181 0 -306.5 118t-125.5 287v35q0 17 12 29t29 12h113q17 0 28.5 -12t11.5 -29v-14q0 -107 66.5 -174.5t171.5 -67.5q106 0 171 69t65 179q0 109 -64.5 175t-171.5 66h-41q-17 0 -29 12t-12 29v109q0 17 12 29t29 12h41q91 0 148 60t57 155q0 98 -53.5 154.5
t-147.5 56.5t-152.5 -58.5t-58.5 -152.5v-31q0 -17 -12 -29t-29 -12h-110q-17 0 -29 12t-12 29v51q0 163 114 269t289 106q178 0 286.5 -108t108.5 -287q0 -83 -30 -148t-99 -133q-32 -29 -2 -49q162 -114 162 -317q0 -184 -123.5 -308t-306.5 -124z" />
    <glyph glyph-name="four" unicode="4" horiz-adv-x="1026" 
d="M774 0h-96q-17 0 -29 12t-12 29v205q0 20 -21 20h-534q-17 0 -29 12t-12 29v78q0 34 33 90l530 930q9 17 17.5 23t25.5 6h127q17 0 29 -12t12 -29v-932q0 -9 6 -15t15 -6h98q17 0 29 -12t12 -29v-92q0 -17 -12 -29t-29 -12h-98q-21 0 -21 -20v-205q0 -17 -12 -29t-29 -12
zM270 440h346q9 0 15 6t6 15v643q0 9 -6.5 9.5t-9.5 -5.5l-359 -651q-10 -17 8 -17z" />
    <glyph glyph-name="five" unicode="5" horiz-adv-x="1013" 
d="M510 -20q-180 0 -299 107.5t-119 270.5q0 19 11 30t30 11h105q17 0 28.5 -11t12.5 -30q11 -89 72.5 -141.5t158.5 -52.5q107 0 167 80t60 223q0 144 -59.5 223.5t-167.5 79.5q-62 0 -114.5 -33t-80.5 -90q-11 -22 -39 -22h-100q-17 0 -29 12t-12 29v727q0 17 12 29t29 12
h662q17 0 29 -12t12 -29v-103q0 -17 -12 -29t-29 -12h-508q-21 0 -21 -20v-307q0 -20 14 -25.5t31 8.5q28 22 76.5 35.5t99.5 13.5q188 0 295 -130t107 -357q0 -226 -113.5 -356.5t-308.5 -130.5z" />
    <glyph glyph-name="six" unicode="6" horiz-adv-x="1060" 
d="M547 -20q-263 0 -369 233q-76 171 -76 483q0 219 20.5 348.5t67.5 212.5q54 91 153.5 144t215.5 53q182 0 285.5 -105.5t103.5 -289.5q0 -17 -12 -29t-29 -12h-106q-15 0 -27.5 12t-13.5 29q-10 110 -58.5 160.5t-142.5 50.5q-143 0 -207 -119q-30 -55 -40.5 -124.5
t-12.5 -197.5q0 -15 10 -19.5t19 7.5q93 109 260 109q171 0 276 -129.5t105 -341.5q0 -224 -112 -349.5t-310 -125.5zM547 168q107 0 167 75.5t60 211.5q0 137 -58.5 209.5t-168.5 72.5t-169 -73t-59 -209t60 -211.5t168 -75.5z" />
    <glyph glyph-name="seven" unicode="7" horiz-adv-x="901" 
d="M315 0h-122q-22 0 -33.5 15t-3.5 34l501 1180q3 8 -1 14t-13 6h-561q-17 0 -29 12t-12 29v103q0 17 12 29t29 12h737q17 0 29 -12t12 -29v-138q0 -18 -10 -41l-496 -1183q-12 -31 -39 -31z" />
    <glyph glyph-name="eight" unicode="8" horiz-adv-x="1093" 
d="M549 -20q-207 0 -332 114.5t-125 304.5q0 99 42.5 184.5t121.5 145.5q12 9 12.5 24.5t-10.5 24.5q-127 118 -127 291q0 177 113 281t305 104t305 -104t113 -281q0 -173 -127 -291q-12 -11 -10 -26.5t16 -26.5q155 -124 155 -326q0 -192 -122.5 -305.5t-329.5 -113.5z
M549 834q103 0 167 61.5t64 159.5q0 103 -62 162t-169 59t-169.5 -59t-62.5 -162q0 -98 64.5 -159.5t167.5 -61.5zM547 164q123 0 191.5 65t68.5 181q0 109 -72.5 177t-187.5 68t-187.5 -68t-72.5 -177q0 -116 68.5 -181t191.5 -65z" />
    <glyph glyph-name="nine" unicode="9" horiz-adv-x="1060" 
d="M514 1454q263 0 369 -233q75 -169 75 -484q0 -219 -20.5 -348.5t-67.5 -212.5q-54 -91 -153 -143.5t-215 -52.5q-182 0 -285.5 105.5t-103.5 289.5q0 17 12 29t29 12h106q15 0 27.5 -12t13.5 -29q10 -110 58.5 -160.5t142.5 -50.5q143 0 207 119q30 55 40.5 124t12.5 197
q0 15 -10 19.5t-19 -7.5q-92 -108 -260 -108q-171 0 -276 129.5t-105 341.5q0 224 112 349.5t310 125.5zM514 1266q-107 0 -167 -75.5t-60 -211.5q0 -137 58.5 -210t168.5 -73t168.5 73t58.5 210q0 136 -60 211.5t-167 75.5z" />
    <glyph glyph-name="colon" unicode=":" horiz-adv-x="491" 
d="M338 737h-184q-17 0 -29 12t-12 29v185q0 17 12 29t29 12h184q17 0 29 -12t12 -29v-185q0 -17 -12 -29t-29 -12zM338 0h-184q-17 0 -29 12t-12 29v184q0 17 12 29t29 12h184q17 0 29 -12t12 -29v-184q0 -17 -12 -29t-29 -12z" />
    <glyph glyph-name="semicolon" unicode=";" horiz-adv-x="497" 
d="M344 737h-184q-17 0 -29 12t-12 29v185q0 17 12 29t29 12h184q17 0 29 -12t12 -29v-185q0 -17 -12 -29t-29 -12zM184 -266h-28q-21 0 -32 11.5t-11 29.5q0 14 6 26l88 172q6 10 -1.5 18.5t-17.5 8.5h-34q-17 0 -29 12t-12 29v184q0 17 12 29t29 12h184q17 0 29 -12
t12 -29v-184q0 -70 -41 -127l-100 -150q-20 -30 -54 -30z" />
    <glyph glyph-name="less" unicode="&#x3c;" horiz-adv-x="983" 
d="M850 -2q-14 0 -27 8l-731 412q-31 17 -31 45v100q0 26 31 45l731 410q13 8 27 8q13 0 22 -11.5t9 -29.5v-123q0 -28 -31 -43l-539 -293q-14 -8 -14 -14t14 -14l539 -293q31 -15 31 -43v-123q0 -18 -9 -29.5t-22 -11.5z" />
    <glyph glyph-name="equal" unicode="=" horiz-adv-x="1105" 
d="M963 604h-820q-17 0 -29 12t-12 29v113q0 17 12 29t29 12h820q17 0 29 -12t12 -29v-113q0 -17 -12 -29t-29 -12zM963 225h-820q-17 0 -29 12t-12 29v113q0 17 12 29t29 12h820q17 0 29 -12t12 -29v-113q0 -17 -12 -29t-29 -12z" />
    <glyph glyph-name="greater" unicode="&#x3e;" horiz-adv-x="983" 
d="M133 1026q14 0 27 -8l731 -412q31 -17 31 -45v-100q0 -26 -31 -45l-731 -410q-13 -8 -27 -8q-13 0 -22 11.5t-9 29.5v123q0 28 31 43l539 293q14 8 14 14t-14 14l-539 293q-31 15 -31 43v123q0 18 9 29.5t22 11.5z" />
    <glyph glyph-name="question" unicode="?" horiz-adv-x="870" 
d="M467 389h-105q-17 0 -28.5 12t-11.5 29v172q0 82 40 129q19 23 48 46.5t71 55t66 50.5q40 34 62 85.5t22 110.5q0 78 -53.5 132.5t-143.5 54.5q-87 0 -141.5 -58t-54.5 -149v-31q0 -17 -12 -29t-29 -12h-105q-17 0 -29 12t-12 29v31q0 179 108 287t275 108
q166 0 275.5 -105.5t109.5 -269.5q0 -125 -43.5 -200.5t-138.5 -141.5q-77 -55 -103 -89.5t-26 -92.5v-125q0 -17 -12 -29t-29 -12zM508 0h-184q-17 0 -29 12t-12 29v184q0 17 12 29t29 12h184q17 0 29 -12t12 -29v-184q0 -17 -12 -29t-29 -12z" />
    <glyph glyph-name="at" unicode="@" horiz-adv-x="1628" 
d="M1008 915q7 33 41 33h55q17 0 29 -12t12 -29v-514q0 -46 23 -74t61 -28q64 0 98.5 86.5t34.5 247.5q0 248 -143.5 393t-389.5 145q-155 0 -282 -80t-199 -220t-72 -312q0 -166 71.5 -300.5t198 -211t281.5 -76.5q132 0 217 43q19 9 34.5 0t15.5 -31v-57q0 -18 -9.5 -28.5
t-40.5 -28.5q-32 -19 -96 -32t-121 -13q-207 0 -373 95t-259 263.5t-93 378.5q0 163 54.5 304t150.5 240.5t231 156.5t291 57q314 0 505.5 -188.5t191.5 -497.5q0 -217 -81.5 -349.5t-215.5 -132.5q-47 0 -81.5 14t-49 31t-32.5 31t-36 14q-15 0 -36.5 -14t-42 -31t-59 -31
t-85.5 -14q-170 0 -264 107t-94 301q0 186 98 302t256 116q45 0 79.5 -10.5t50 -23.5t31.5 -23.5t29 -10.5q11 0 15 14zM827 287q72 0 116 54t44 144v150q0 86 -43.5 137t-116.5 51q-89 0 -144.5 -76t-55.5 -196q0 -122 54 -193t146 -71z" />
    <glyph glyph-name="A" unicode="A" horiz-adv-x="1044" 
d="M184 0h-118q-14 0 -24.5 9t-10.5 20q0 13 6 34l375 1340q3 13 14 22t25 9h143q14 0 25 -9t14 -22l375 -1340q6 -21 6 -34q0 -11 -10.5 -20t-24.5 -9h-119q-29 0 -39 31l-90 313q-3 13 -14 21t-25 8h-340q-29 0 -39 -29l-90 -313q-10 -31 -39 -31zM395 563h254q23 0 17 23
l-134 571q-3 12 -8 12h-4q-5 0 -8 -12l-133 -571q-6 -23 16 -23z" />
    <glyph glyph-name="B" unicode="B" horiz-adv-x="1085" 
d="M573 0h-378q-17 0 -29 12t-12 29v1352q0 17 12 29t29 12h378q174 0 288 -104t114 -277q0 -78 -32.5 -154.5t-84.5 -122.5q-12 -10 -12 -23t12 -22q64 -52 105 -139t41 -174q0 -187 -123.5 -302.5t-307.5 -115.5zM369 844h204q91 0 146 57t55 152q0 93 -54.5 139.5
t-146.5 46.5h-204q-21 0 -21 -20v-355q0 -20 21 -20zM369 195h204q97 0 163.5 60.5t66.5 162.5t-66.5 171.5t-163.5 69.5h-204q-21 0 -21 -20v-424q0 -20 21 -20z" />
    <glyph glyph-name="C" unicode="C" horiz-adv-x="1116" 
d="M578 -20q-147 0 -253.5 66.5t-158.5 174.5q-41 87 -52.5 202t-11.5 294t11.5 293.5t52.5 201.5q52 109 158.5 175.5t253.5 66.5q211 0 335.5 -123.5t124.5 -339.5q0 -15 -13 -26t-28 -11h-114q-17 0 -29 12t-12 29q0 125 -71 195t-193 70q-79 0 -140 -37.5t-92 -102.5
q-43 -90 -43 -403q0 -314 43 -404q31 -65 92 -102t140 -37q123 0 193.5 69.5t70.5 194.5q0 17 12 29t29 12h114q15 0 28 -11t13 -26q0 -216 -124.5 -339t-335.5 -123z" />
    <glyph glyph-name="D" unicode="D" horiz-adv-x="1130" 
d="M573 0h-378q-17 0 -29 12t-12 29v1352q0 17 12 29t29 12h378q136 0 240.5 -63.5t157.5 -172.5q36 -75 46.5 -189.5t10.5 -291.5t-10.5 -291.5t-46.5 -189.5q-53 -109 -157.5 -172.5t-240.5 -63.5zM369 195h204q63 0 122.5 32.5t90.5 91.5q26 49 33.5 148.5t7.5 249.5
q0 97 -2 158t-11.5 133t-27.5 106q-31 59 -90.5 92t-122.5 33h-204q-21 0 -21 -20v-1004q0 -20 21 -20z" />
    <glyph glyph-name="E" unicode="E" horiz-adv-x="993" 
d="M860 0h-665q-17 0 -29 12t-12 29v1352q0 17 12 29t29 12h661q17 0 29 -12t12 -29v-113q0 -17 -12 -29t-29 -12h-487q-21 0 -21 -20v-369q0 -9 6 -15t15 -6h465q17 0 28.5 -12t11.5 -29v-112q0 -17 -11.5 -29t-28.5 -12h-465q-9 0 -15 -6t-6 -15v-399q0 -20 21 -20h491
q17 0 29 -12t12 -29v-113q0 -17 -12 -29t-29 -12z" />
    <glyph glyph-name="F" unicode="F" horiz-adv-x="948" 
d="M307 0h-112q-17 0 -29 12t-12 29v1352q0 17 12 29t29 12h661q17 0 29 -12t12 -29v-113q0 -17 -12 -29t-29 -12h-487q-21 0 -21 -20v-369q0 -9 6 -15t15 -6h465q17 0 28.5 -12t11.5 -29v-112q0 -17 -11.5 -29t-28.5 -12h-465q-9 0 -15 -6t-6 -15v-573q0 -17 -12 -29
t-29 -12z" />
    <glyph glyph-name="G" unicode="G" horiz-adv-x="1140" 
d="M590 -20q-152 0 -261 66t-163 175q-41 87 -52.5 202t-11.5 294t11.5 293.5t52.5 201.5q54 109 163 175.5t259 66.5q206 0 328 -113t122 -309q0 -15 -13 -26t-28 -11h-114q-17 0 -29 12t-12 29q0 105 -68 164.5t-186 59.5q-82 0 -145.5 -37.5t-96.5 -102.5
q-43 -90 -43 -403q0 -314 43 -404q33 -65 96.5 -102t147.5 -37q118 0 185 69.5t67 196.5v125q0 9 -6 15t-15 6h-184q-17 0 -29 12t-12 29v112q0 17 12 29t29 12h360q17 0 29 -12t12 -29v-299q0 -211 -126.5 -335.5t-321.5 -124.5z" />
    <glyph glyph-name="H" unicode="H" horiz-adv-x="1167" 
d="M307 0h-112q-17 0 -29 12t-12 29v1352q0 17 12 29t29 12h112q17 0 29 -12t12 -29v-543q0 -9 6 -15t15 -6h430q20 0 20 21v543q0 17 12 29t29 12h113q17 0 29 -12t12 -29v-1352q0 -17 -12 -29t-29 -12h-113q-17 0 -29 12t-12 29v573q0 21 -20 21h-430q-9 0 -15 -6t-6 -15
v-573q0 -17 -12 -29t-29 -12z" />
    <glyph glyph-name="I" unicode="I" horiz-adv-x="501" 
d="M307 0h-112q-17 0 -29 12t-12 29v1352q0 17 12 29t29 12h112q17 0 29 -12t12 -29v-1352q0 -17 -12 -29t-29 -12z" />
    <glyph glyph-name="J" unicode="J" horiz-adv-x="962" 
d="M432 -20q-178 0 -284.5 113.5t-106.5 295.5v49q0 17 12 29t29 12h113q17 0 29 -12t12 -29v-49q0 -97 54.5 -156t141.5 -59q95 0 144 65t49 191v963q0 17 12 29t29 12h112q17 0 29 -12t12 -29v-983q0 -200 -100.5 -315t-286.5 -115z" />
    <glyph glyph-name="K" unicode="K" horiz-adv-x="1044" 
d="M307 0h-112q-17 0 -29 12t-12 29v1352q0 17 12 29t29 12h112q17 0 29 -12t12 -29v-535q0 -16 10 -16q12 0 33 30l410 541q16 21 45 21h117q28 0 37.5 -25.5t-7.5 -48.5l-450 -596q-11 -15 -11 -27q0 -10 9 -22l450 -623q27 -38 21 -65t-39 -27h-135q-30 0 -52 29
l-403 567q-15 20 -25 20t-10 -18v-557q0 -17 -12 -29t-29 -12z" />
    <glyph glyph-name="L" unicode="L" horiz-adv-x="899" 
d="M827 0h-632q-17 0 -29 12t-12 29v1352q0 17 12 29t29 12h112q17 0 29 -12t12 -29v-1178q0 -20 21 -20h458q17 0 29 -12t12 -29v-113q0 -17 -12 -29t-29 -12z" />
    <glyph glyph-name="M" unicode="M" horiz-adv-x="1478" 
d="M303 0h-108q-17 0 -29 12t-12 29v1352q0 17 12 29t29 12h208q35 0 43 -35l283 -1030q1 -7 10 -7t11 7l282 1030q8 35 43 35h209q17 0 29 -12t12 -29v-1352q0 -17 -12 -29t-29 -12h-108q-17 0 -29 12t-12 29v1028q0 7 -3.5 9.5t-7.5 0.5t-6 -8l-293 -1036q-8 -35 -43 -35
h-86q-35 0 -43 35l-293 1036q-2 7 -6 8.5t-7 -1.5t-3 -9v-1028q0 -17 -12 -29t-29 -12z" />
    <glyph glyph-name="N" unicode="N" horiz-adv-x="1167" 
d="M408 1399l393 -1004q7 -20 16 -20q10 0 10 14v1004q0 17 12 29t29 12h105q17 0 29 -12t12 -29v-1352q0 -17 -12 -29t-29 -12h-170q-17 0 -26.5 7.5t-16.5 27.5l-393 1012q-8 20 -17 20q-10 0 -10 -14v-1012q0 -17 -12 -29t-29 -12h-104q-17 0 -29 12t-12 29v1352
q0 17 12 29t29 12h170q17 0 26.5 -7.5t16.5 -27.5z" />
    <glyph glyph-name="O" unicode="O" horiz-adv-x="1155" 
d="M578 -20q-147 0 -252 67t-158 176q-41 86 -53.5 202.5t-12.5 291.5t12.5 291t53.5 202q53 109 158 176.5t252 67.5t251.5 -67.5t157.5 -176.5q41 -86 53.5 -202t12.5 -291t-12.5 -291.5t-53.5 -202.5q-53 -109 -157.5 -176t-251.5 -67zM578 174q157 0 229 137
q20 38 30.5 112t12.5 135t2 159q0 97 -2 158.5t-12.5 135t-30.5 111.5q-72 138 -229 138q-158 0 -230 -138q-20 -38 -30.5 -111.5t-12.5 -135t-2 -158.5q0 -98 2 -159t12.5 -135t30.5 -112q72 -137 230 -137z" />
    <glyph glyph-name="P" unicode="P" horiz-adv-x="1044" 
d="M307 0h-112q-17 0 -29 12t-12 29v1352q0 17 12 29t29 12h368q186 0 308 -122t122 -308t-122 -308.5t-308 -122.5h-194q-21 0 -21 -20v-512q0 -17 -12 -29t-29 -12zM369 768h194q101 0 165.5 66t64.5 170t-64.5 169.5t-165.5 65.5h-194q-21 0 -21 -20v-431q0 -20 21 -20z
" />
    <glyph glyph-name="Q" unicode="Q" horiz-adv-x="1155" 
d="M903 84l92 -186q17 -39 17 -54q0 -28 -37 -28h-125q-25 0 -41 30l-72 138q-7 12 -20 12q-9 0 -15 -2q-55 -14 -124 -14q-147 0 -252 67t-158 176q-41 86 -53.5 202.5t-12.5 291.5t12.5 291t53.5 202q53 109 158 176.5t252 67.5t251.5 -67.5t157.5 -176.5
q41 -86 53.5 -202t12.5 -291t-12.5 -291.5t-53.5 -202.5q-24 -55 -76 -110q-14 -14 -8 -29zM348 311q72 -137 230 -137q157 0 229 137q20 38 30.5 112t12.5 135t2 159q0 97 -2 158.5t-12.5 135t-30.5 111.5q-72 138 -229 138q-158 0 -230 -138q-20 -38 -30.5 -111.5
t-12.5 -135t-2 -158.5q0 -98 2 -159t12.5 -135t30.5 -112z" />
    <glyph glyph-name="R" unicode="R" horiz-adv-x="1075" 
d="M307 0h-112q-17 0 -29 12t-12 29v1352q0 17 12 29t29 12h368q182 0 306 -120t124 -310q0 -241 -213 -367q-43 -25 -43 -49q0 -13 11 -35l237 -483q8 -16 8 -33q0 -15 -10.5 -26t-30.5 -11h-125q-33 0 -49 33l-246 516q-12 24 -38 24h-125q-21 0 -21 -20v-512
q0 -17 -12 -29t-29 -12zM369 768h194q98 0 164 63.5t66 172.5t-66 172t-164 63h-194q-21 0 -21 -20v-431q0 -20 21 -20z" />
    <glyph glyph-name="S" unicode="S" horiz-adv-x="1064" 
d="M537 -20q-211 0 -338 117.5t-127 312.5v32q0 17 12 29t29 12h114q17 0 29 -12t12 -29v-32q0 -104 75.5 -170t195.5 -66q113 0 183.5 58.5t70.5 152.5q0 106 -69.5 168.5t-227.5 99.5q-186 42 -285.5 145t-99.5 267q0 179 122.5 284t315.5 105q197 0 310.5 -104
t113.5 -285v-27q0 -17 -12 -29t-29 -12h-113q-17 0 -29 12t-12 29v27q0 92 -62 143.5t-171 51.5q-108 0 -171 -51.5t-63 -139.5q0 -96 72.5 -151t251.5 -95q165 -37 261.5 -153.5t96.5 -276.5q0 -184 -126.5 -298.5t-329.5 -114.5z" />
    <glyph glyph-name="T" unicode="T" horiz-adv-x="921" 
d="M518 0h-112q-17 0 -29 12t-12 29v1178q0 20 -21 20h-272q-17 0 -29 12t-12 29v113q0 17 12 29t29 12h778q17 0 29 -12t12 -29v-113q0 -17 -12 -29t-29 -12h-270q-21 0 -21 -20v-1178q0 -17 -12 -29t-29 -12z" />
    <glyph glyph-name="U" unicode="U" horiz-adv-x="1208" 
d="M604 -20q-217 0 -339 119.5t-122 346.5v947q0 17 12 29t29 12h113q17 0 29 -12t12 -29v-967q0 -131 71.5 -191.5t194.5 -60.5q129 0 197.5 67.5t68.5 184.5v967q0 17 12 29t29 12h113q17 0 29 -12t12 -29v-947q0 -224 -126.5 -345t-334.5 -121z" />
    <glyph glyph-name="V" unicode="V" horiz-adv-x="1067" 
d="M612 0h-159q-30 0 -39 31l-377 1339q-6 24 -6 35t10.5 20t24.5 9h129q29 0 38 -31l285 -1092q3 -12 12 -12h5q9 0 12 12l284 1092q9 31 39 31h131q14 0 24.5 -9t10.5 -20q0 -14 -6 -35l-379 -1339q-9 -31 -39 -31z" />
    <glyph glyph-name="W" unicode="W" horiz-adv-x="1531" 
d="M535 0h-175q-32 0 -38 31l-277 1341q-4 20 -4 31q0 31 41 31h111q33 0 38 -31l209 -1051q2 -12 13 -12h4q10 0 12 12l184 1051q6 31 39 31h148q33 0 39 -31l184 -1051q2 -12 12 -12h4q11 0 13 12l208 1051q5 31 39 31h111q41 0 41 -31q0 -11 -4 -31l-277 -1341
q-6 -31 -39 -31h-174q-33 0 -39 31l-182 1018q-2 12 -10 12t-10 -12l-183 -1018q-6 -31 -38 -31z" />
    <glyph glyph-name="X" unicode="X" horiz-adv-x="1017" 
d="M207 0h-139q-15 0 -26 10.5t-11 24.5q0 15 10 35l342 665q8 16 8 23q0 6 -6 18l-313 588q-11 22 -11 35q0 14 11 24.5t26 10.5h131q14 0 22 -6.5t17 -24.5l226 -436q8 -17 14 -17t14 17l226 436q9 19 16.5 25t21.5 6h132q15 0 25.5 -10.5t10.5 -24.5q0 -15 -10 -35
l-313 -588q-6 -12 -6 -18q0 -7 8 -23l344 -665q10 -20 10 -33q0 -17 -10.5 -27t-26.5 -10h-139q-14 0 -22 6.5t-17 24.5l-248 495q-10 21 -16 21t-16 -21l-246 -495q-9 -18 -17 -24.5t-22 -6.5z" />
    <glyph glyph-name="Y" unicode="Y" horiz-adv-x="958" 
d="M537 0h-115q-17 0 -29 12t-12 29v534l-340 785q-10 25 -10 39q0 15 11.5 25t25.5 10h135q28 0 39 -31l221 -545q6 -18 16 -18q11 0 17 18l221 545q11 31 39 31h135q14 0 25.5 -10t11.5 -25q0 -14 -10 -39l-340 -785v-534q0 -17 -12 -29t-29 -12z" />
    <glyph glyph-name="Z" unicode="Z" horiz-adv-x="997" 
d="M885 0h-762q-17 0 -29 12t-12 29v154q0 15 10 32l613 998q5 7 1 13.5t-14 6.5h-579q-17 0 -29 12t-12 29v107q0 17 12 29t29 12h761q17 0 29 -12t12 -29v-148q0 -16 -10 -33l-604 -1001q-5 -7 -1.5 -14t13.5 -7h572q17 0 29 -11.5t12 -28.5v-109q0 -17 -12 -29t-29 -12z
" />
    <glyph glyph-name="bracketleft" unicode="[" horiz-adv-x="618" 
d="M537 -184h-353q-17 0 -29 12t-12 29v1577q0 17 12 29t29 12h348q17 0 29 -12t12 -29v-97q0 -17 -12 -29t-29 -12h-190q-20 0 -20 -20v-1262q0 -20 20 -20h195q17 0 29 -12t12 -29v-96q0 -17 -12 -29t-29 -12z" />
    <glyph glyph-name="backslash" unicode="\" horiz-adv-x="935" 
d="M797 -25h-107q-32 0 -43 31l-541 1391q-4 12 -4 20q0 15 11 26t26 11h107q28 0 39 -31l544 -1390q5 -15 5 -21q0 -15 -11 -26t-26 -11z" />
    <glyph glyph-name="bracketright" unicode="]" horiz-adv-x="618" 
d="M434 -184h-352q-17 0 -29 12t-12 29v96q0 17 12 29t29 12h194q21 0 21 20v1262q0 20 -21 20h-190q-17 0 -29 12t-12 29v97q0 17 12 29t29 12h348q17 0 29 -12t12 -29v-1577q0 -17 -12 -29t-29 -12z" />
    <glyph glyph-name="asciicircum" unicode="^" horiz-adv-x="1273" 
d="M324 614h-119q-18 0 -29.5 9t-11.5 22q0 14 8 27l381 731q15 31 45 31h80q29 0 45 -31l379 -731q8 -13 8 -27q0 -13 -11.5 -22t-29.5 -9h-119q-28 0 -43 31l-256 524q-7 15 -14 15t-14 -15l-256 -524q-15 -31 -43 -31z" />
    <glyph glyph-name="underscore" unicode="_" horiz-adv-x="1085" 
d="M1034 -358h-983q-17 0 -29 12t-12 29v71q0 17 12 29t29 12h983q17 0 29 -12t12 -29v-71q0 -17 -12 -29t-29 -12z" />
    <glyph glyph-name="grave" unicode="`" horiz-adv-x="1228" 
d="M729 1157h-82q-40 0 -61 25l-162 219q-12 15 -12 26t7 19t19 8h131q35 0 54 -33l122 -204q15 -24 15 -31q0 -12 -9 -20.5t-22 -8.5z" />
    <glyph glyph-name="a" unicode="a" horiz-adv-x="997" 
d="M455 -20q-169 0 -271 88.5t-102 236.5q0 152 96.5 232.5t272.5 80.5h219q20 0 20 21v84q0 78 -49 119t-141 41q-90 0 -139.5 -36t-49.5 -102q0 -19 -11 -26.5t-36 -7.5h-94q-41 0 -41 41q0 138 98 215t275 77q183 0 277.5 -83t94.5 -244v-676q0 -17 -11.5 -29t-28.5 -12
h-70q-21 0 -29 14q-1 1 -4.5 7.5t-5 9t-4.5 8t-5.5 7.5t-6 5.5t-7.5 4.5t-8 1q-11 0 -32 -12t-44 -26.5t-67 -26.5t-96 -12zM469 150q121 0 179.5 53t58.5 162v65q0 9 -6 15t-15 6h-215q-199 0 -199 -142q0 -78 50 -118.5t147 -40.5z" />
    <glyph glyph-name="b" unicode="b" horiz-adv-x="1044" 
d="M553 -20q-57 0 -101 12t-65.5 26.5t-41 26.5t-32.5 12q-23 0 -41 -43q-6 -14 -28 -14h-70q-17 0 -29 12t-12 29v1372q0 17 12 29t29 12h102q17 0 29 -12t12 -29v-369q0 -35 8.5 -50t28.5 -15q11 0 30.5 10t40 22.5t59.5 22.5t85 10q103 0 185.5 -45.5t128.5 -128.5
q65 -121 65 -358q0 -224 -63 -356q-44 -83 -131.5 -129.5t-200.5 -46.5zM535 164q140 0 192 94q24 43 30.5 97t6.5 157q0 99 -7 154.5t-30 99.5q-24 46 -75 70t-117 24q-141 0 -193 -94q-24 -43 -30.5 -97t-6.5 -157t6.5 -157t30.5 -97q52 -94 193 -94z" />
    <glyph glyph-name="c" unicode="c" horiz-adv-x="991" 
d="M526 -20q-190 0 -301 108q-78 70 -103.5 172t-25.5 252q0 145 26.5 245t98.5 175q53 54 133 83t170 29q163 0 269 -92q53 -48 82.5 -115t29.5 -141q0 -18 -10 -29.5t-25 -11.5h-108q-17 0 -28 9.5t-11 23.5q0 81 -61 129q-52 43 -138 43q-58 0 -107.5 -20t-76.5 -56
q-31 -41 -42 -100.5t-11 -171.5q0 -102 10 -164.5t41 -101.5q63 -82 188 -82q87 0 144 45q55 46 55 125q0 35 39 35h117q30 0 30 -41q0 -80 -32.5 -150t-92.5 -117q-101 -81 -260 -81z" />
    <glyph glyph-name="d" unicode="d" horiz-adv-x="1044" 
d="M492 -20q-113 0 -200.5 46.5t-131.5 129.5q-64 134 -64 356q0 235 66 358q46 83 128 128.5t185 45.5q59 0 104.5 -16.5t71.5 -32.5t39 -16q20 0 28.5 15t8.5 50v369q0 17 12 29t29 12h102q17 0 29 -12t12 -29v-1372q0 -17 -12 -29t-29 -12h-69q-23 0 -29 14
q-18 43 -41 43q-13 0 -32.5 -12t-40.5 -26.5t-65 -26.5t-101 -12zM510 164q140 0 192 94q24 43 30.5 97t6.5 157t-6.5 157t-30.5 97q-52 94 -192 94q-66 0 -117.5 -24t-75.5 -70q-23 -44 -29.5 -98.5t-6.5 -155.5q0 -105 6 -158t30 -96q52 -94 193 -94z" />
    <glyph glyph-name="e" unicode="e" horiz-adv-x="1032" 
d="M526 -20q-178 0 -282 94q-77 72 -112.5 177.5t-35.5 260.5q0 284 135 422q110 110 299 110q182 0 289 -104q117 -114 117 -324v-122q0 -17 -12 -29t-29 -12h-582q-20 0 -20 -21q0 -155 84 -221q56 -47 149 -47q91 0 150 41q47 38 61 88q9 35 47 35h105q19 0 28.5 -11
t6.5 -30q-18 -148 -136 -236q-92 -71 -262 -71zM315 610h422q9 0 15 6t6 15q0 118 -68 186q-61 64 -160 64q-104 0 -168 -64q-67 -67 -67 -186q0 -21 20 -21z" />
    <glyph glyph-name="f" unicode="f" horiz-adv-x="720" 
d="M389 0h-102q-17 0 -29 12t-12 29v768q0 20 -21 20h-153q-17 0 -29 12t-12 29v103q0 17 12 29t29 12h153q21 0 21 20v37q0 177 101 280t278 103h20q17 0 29 -12t12 -29v-102q0 -17 -12 -29t-29 -12h-20q-95 0 -145 -53.5t-50 -145.5v-37q0 -20 21 -20h208q17 0 29 -12
t12 -29v-103q0 -17 -12 -29t-29 -12h-208q-21 0 -21 -20v-768q0 -17 -12 -29t-29 -12z" />
    <glyph glyph-name="g" unicode="g" horiz-adv-x="1044" 
d="M727 -61v61q0 35 -8.5 50.5t-28.5 15.5q-13 0 -39 -16.5t-71.5 -33t-104.5 -16.5q-103 0 -186 46t-127 128q-66 115 -66 348q0 215 64 346q40 83 128 129.5t204 46.5q73 0 122.5 -19.5t75.5 -38.5t41 -19q23 0 41 43q6 14 29 14h69q17 0 29 -12t12 -29v-1044
q0 -155 -108.5 -262t-265.5 -107q-151 0 -252.5 76.5t-120.5 203.5q-6 48 37 48h98q27 0 37.5 -10t15.5 -31q26 -103 185 -103q81 0 135.5 53.5t54.5 131.5zM510 860q-140 0 -193 -94q-24 -42 -30 -92.5t-6 -151.5q0 -99 6 -147.5t30 -95.5q24 -46 75.5 -70.5t117.5 -24.5
t117 24.5t75 70.5q24 47 30.5 96.5t6.5 146.5q0 99 -6.5 150.5t-30.5 93.5q-26 45 -76.5 69.5t-115.5 24.5z" />
    <glyph glyph-name="h" unicode="h" horiz-adv-x="1075" 
d="M276 0h-102q-17 0 -29 12t-12 29v1372q0 17 12 29t29 12h102q17 0 29 -12t12 -29v-377q0 -65 41 -65q13 0 31 11.5t38 25t66 25t107 11.5q164 0 258 -100t94 -266v-637q0 -17 -12 -29t-29 -12h-102q-17 0 -29 12t-12 29v571q0 116 -58 182t-167 66q-98 0 -162 -64.5
t-64 -172.5v-582q0 -17 -12 -29t-29 -12z" />
    <glyph glyph-name="i" unicode="i" horiz-adv-x="454" 
d="M307 1233h-160q-13 0 -22.5 9.5t-9.5 23.5v155q0 12 9.5 22.5t22.5 10.5h160q13 0 23 -10.5t10 -22.5v-155q0 -14 -10 -23.5t-23 -9.5zM281 0h-107q-17 0 -29 12t-12 29v942q0 17 12 29t29 12h107q17 0 29 -12t12 -29v-942q0 -17 -12 -29t-29 -12z" />
    <glyph glyph-name="j" unicode="j" horiz-adv-x="495" 
d="M344 1233h-160q-13 0 -22.5 9.5t-9.5 23.5v155q0 12 9.5 22.5t22.5 10.5h160q13 0 23 -10.5t10 -22.5v-155q0 -14 -9.5 -23.5t-23.5 -9.5zM-12 -430h-107q-17 0 -29 12t-12 29v102q0 17 12 29t29 12h107q78 0 131 51.5t53 133.5v1044q0 17 12 29t29 12h109q17 0 28.5 -12
t11.5 -29v-1044q0 -152 -107 -260.5t-267 -108.5z" />
    <glyph glyph-name="k" unicode="k" horiz-adv-x="927" 
d="M492 512l393 -440q14 -14 14 -31q0 -18 -11.5 -29.5t-31.5 -11.5h-131q-27 0 -59 37l-322 366q-11 11 -16 11q-11 0 -11 -15v-358q0 -17 -12 -29t-29 -12h-102q-17 0 -29 12t-12 29v1372q0 17 12 29t29 12h102q17 0 29 -12t12 -29v-758q0 -14 11 -14q6 0 16 10l328 342
q31 31 51 31h121q20 0 31.5 -12.5t11.5 -28.5t-15 -31l-380 -391q-22 -25 0 -49z" />
    <glyph glyph-name="l" unicode="l" horiz-adv-x="450" 
d="M276 0h-102q-17 0 -29 12t-12 29v1372q0 17 12 29t29 12h102q17 0 29 -12t12 -29v-1372q0 -17 -12 -29t-29 -12z" />
    <glyph glyph-name="m" unicode="m" horiz-adv-x="1603" 
d="M276 0h-102q-17 0 -29 12t-12 29v942q0 17 12 29t29 12h90q21 0 29 -16q26 -47 51 -47q14 0 31 13t34 28.5t58.5 28.5t99.5 13q127 0 240 -96q18 -18 41 -18t41 18q104 96 250 96q151 0 246.5 -102.5t95.5 -263.5v-637q0 -17 -12 -29t-29 -12h-103q-17 0 -29 12t-12 29
v614q0 94 -53.5 149.5t-144.5 55.5q-86 0 -142.5 -54.5t-56.5 -139.5v-625q0 -17 -12 -29t-29 -12h-102q-17 0 -29 12t-12 29v614q0 94 -54 149.5t-145 55.5q-86 0 -142.5 -54.5t-56.5 -139.5v-625q0 -17 -12 -29t-29 -12z" />
    <glyph glyph-name="n" unicode="n" horiz-adv-x="1075" 
d="M276 0h-102q-17 0 -29 12t-12 29v942q0 17 12 29t29 12h90q21 0 29 -14q3 -4 9.5 -15t10.5 -16.5t12.5 -10.5t20.5 -5q14 0 34 12.5t42.5 28t70.5 28t111 12.5q161 0 254.5 -100t93.5 -266v-637q0 -17 -12 -29t-29 -12h-102q-17 0 -29 12t-12 29v571q0 116 -58 182
t-167 66q-98 0 -162 -64.5t-64 -172.5v-582q0 -17 -12 -29t-29 -12z" />
    <glyph glyph-name="o" unicode="o" horiz-adv-x="1040" 
d="M520 -20q-117 0 -205.5 45t-142.5 125q-48 71 -62 153t-14 209t14 209t62 153q54 80 142.5 125t205.5 45t205.5 -45t142.5 -125q48 -71 62 -153t14 -209t-14 -209t-62 -153q-54 -80 -142.5 -125t-205.5 -45zM520 164q64 0 112.5 27.5t76.5 68.5q26 39 35.5 97.5
t9.5 154.5t-9.5 154.5t-35.5 97.5q-28 41 -76.5 68.5t-112.5 27.5t-112 -27.5t-76 -68.5q-26 -39 -35.5 -97.5t-9.5 -154.5t9.5 -154.5t35.5 -97.5q28 -41 76 -68.5t112 -27.5z" />
    <glyph glyph-name="p" unicode="p" horiz-adv-x="1044" 
d="M553 1044q114 0 203.5 -46.5t128.5 -129.5q63 -132 63 -356q0 -242 -65 -358q-46 -83 -128.5 -128.5t-185.5 -45.5q-59 0 -104.5 16.5t-71.5 32.5t-39 16q-20 0 -28.5 -15t-8.5 -50v-349q0 -17 -12 -29t-29 -12h-102q-17 0 -29 12t-12 29v1352q0 17 12 29t29 12h70
q22 0 28 -14q16 -43 41 -43q13 0 32.5 12t41 26.5t65.5 26.5t101 12zM535 860q-141 0 -193 -94q-24 -43 -30.5 -97t-6.5 -157t6.5 -157t30.5 -97q52 -94 193 -94q66 0 117 24t75 70q23 44 30 99.5t7 154.5q0 103 -6.5 157t-30.5 97q-52 94 -192 94z" />
    <glyph glyph-name="q" unicode="q" horiz-adv-x="1044" 
d="M492 1044q73 0 122.5 -19.5t75.5 -38.5t41 -19q25 0 41 43q6 14 29 14h69q17 0 29 -12t12 -29v-1352q0 -17 -12 -29t-29 -12h-102q-17 0 -29 12t-12 29v349q0 35 -8.5 50t-28.5 15q-11 0 -30.5 -10t-40 -22.5t-59.5 -22.5t-85 -10q-103 0 -185 45.5t-128 128.5
q-66 118 -66 358q0 222 64 356q39 83 128.5 129.5t203.5 46.5zM510 860q-141 0 -193 -94q-24 -43 -30 -96t-6 -158q0 -101 6.5 -155.5t29.5 -98.5q24 -46 75.5 -70t117.5 -24q140 0 192 94q24 43 30.5 97t6.5 157t-6.5 157t-30.5 97q-52 94 -192 94z" />
    <glyph glyph-name="r" unicode="r" horiz-adv-x="737" 
d="M276 0h-102q-17 0 -29 12t-12 29v942q0 17 12 29t29 12h70q33 0 41 -41q1 -5 3 -17.5t4 -20t5.5 -16.5t9.5 -13.5t15 -4.5q13 0 29 11.5t36.5 28t49.5 33.5t78 28.5t110 11.5h41q17 0 29 -12t12 -29v-111q0 -17 -12 -29t-29 -12h-41q-63 0 -117 -16.5t-97.5 -51
t-68.5 -93.5t-25 -138v-491q0 -17 -12 -29t-29 -12z" />
    <glyph glyph-name="s" unicode="s" horiz-adv-x="942" 
d="M489 -20q-198 0 -313 88.5t-115 242.5q0 36 9 50t32 14h103q38 0 41 -41q10 -91 67 -134.5t164 -43.5q101 0 155 34.5t54 100.5q0 65 -50 97.5t-185 55.5q-180 31 -264.5 105.5t-84.5 202.5t104 210t265 82q175 0 276 -77.5t101 -210.5q0 -32 -9.5 -46t-31.5 -14h-102
q-17 0 -28 11t-13 30q-12 133 -187 133q-88 0 -136 -29t-48 -83q0 -57 53.5 -89.5t190.5 -60.5q181 -35 257 -107.5t76 -209.5q0 -143 -103 -227t-278 -84z" />
    <glyph glyph-name="t" unicode="t" horiz-adv-x="776" 
d="M696 0h-112q-348 0 -348 328v481q0 20 -21 20h-143q-17 0 -29 12t-12 29v103q0 17 12 29t29 12h143q21 0 21 20v318q0 17 11.5 29t28.5 12h103q17 0 29 -12t12 -29v-318q0 -20 20 -20h236q17 0 29 -12t12 -29v-103q0 -17 -12 -29t-29 -12h-236q-20 0 -20 -20v-481
q0 -73 40.5 -108.5t123.5 -35.5h112q17 0 29 -12t12 -29v-102q0 -17 -12 -29t-29 -12z" />
    <glyph glyph-name="u" unicode="u" horiz-adv-x="1075" 
d="M799 1024h102q17 0 29 -12t12 -29v-942q0 -17 -12 -29t-29 -12h-90q-21 0 -29 14q-3 4 -9.5 15t-10.5 16.5t-12.5 10.5t-20.5 5q-14 0 -34 -12.5t-42.5 -28t-70.5 -28t-111 -12.5q-161 0 -254.5 100t-93.5 266v637q0 17 12 29t29 12h102q17 0 29 -12t12 -29v-571
q0 -116 58 -182t167 -66q98 0 162 64.5t64 172.5v582q0 17 12 29t29 12z" />
    <glyph glyph-name="v" unicode="v" horiz-adv-x="958" 
d="M537 0h-113q-27 0 -39 31l-356 930q-9 23 -9 32q0 13 11.5 22t29.5 9h127q28 0 39 -31l238 -682q5 -12 14 -12q10 0 15 12l237 682q11 31 39 31h127q18 0 29.5 -9t11.5 -20q0 -14 -8 -34l-355 -930q-12 -31 -38 -31z" />
    <glyph glyph-name="w" unicode="w" horiz-adv-x="1363" 
d="M449 0h-113q-30 0 -39 31l-260 925q-6 24 -6 37q0 12 10.5 21.5t28.5 9.5h116q31 0 39 -31l158 -663q3 -12 13.5 -12t13.5 12l180 663q8 31 39 31h106q31 0 39 -31l180 -663q3 -12 13.5 -12t13.5 12l158 663q8 31 39 31h116q18 0 28.5 -9.5t10.5 -21.5q0 -13 -6 -37
l-260 -925q-9 -31 -39 -31h-113q-29 0 -38 31l-187 676q-2 6 -8 6t-8 -6l-187 -676q-9 -31 -38 -31z" />
    <glyph glyph-name="x" unicode="x" horiz-adv-x="925" 
d="M203 0h-119q-20 0 -31.5 10.5t-11.5 26.5q0 14 10 31l285 442q10 15 10 22q0 9 -8 21l-266 393q-17 26 -17 41q0 17 12 27t31 10h115q33 0 45 -20l188 -295q10 -17 17 -17q6 0 16 17l189 295q12 20 45 20h114q19 0 31 -10t12 -27t-16 -41l-266 -393q-8 -12 -8 -21
q0 -7 10 -22l284 -442q11 -18 11 -31q0 -16 -11.5 -26.5t-31.5 -10.5h-119q-33 0 -45 20l-199 330q-10 17 -16 17q-7 0 -17 -17l-198 -330q-12 -20 -45 -20z" />
    <glyph glyph-name="y" unicode="y" horiz-adv-x="952" 
d="M371 -410h-111q-19 0 -30 10t-11 23q0 12 6 27l146 399q6 18 6 23t-6 20l-342 869q-9 23 -9 32q0 13 11.5 22t29.5 9h125q28 0 39 -31l252 -665q3 -9 8 -9q6 0 9 9l233 665q11 31 39 31h125q18 0 29.5 -9t11.5 -22q0 -12 -8 -32l-514 -1340q-11 -31 -39 -31z" />
    <glyph glyph-name="z" unicode="z" horiz-adv-x="911" 
d="M815 0h-713q-17 0 -29 12t-12 29v121q0 20 4.5 30.5t22.5 32.5l487 594q6 7 2.5 14t-12.5 7h-459q-17 0 -28.5 12t-11.5 29v102q0 17 11.5 29t28.5 12h672q17 0 29 -12t12 -29v-117q0 -32 -41 -84l-465 -577q-6 -7 -2 -14t13 -7h491q17 0 29 -12t12 -29v-102
q0 -17 -12 -29t-29 -12z" />
    <glyph glyph-name="braceleft" unicode="{" horiz-adv-x="729" 
d="M647 -184h-45q-98 0 -179 35.5t-133 95.5t-80 137t-28 162v276q0 16 -12.5 27t-46.5 24q-41 16 -41 41v82q0 4 0.5 7t2.5 6t3 5.5t4.5 5t5 4t6 3.5t6 3t6.5 3.5l7 3.5q39 19 49 27t10 24v256q0 115 47.5 211.5t145 158t227.5 61.5h25q17 0 29 -12t12 -29v-99
q0 -17 -12 -29t-29 -12h-25q-102 0 -168.5 -69t-66.5 -181v-256q0 -47 -27 -81t-57 -52q30 -18 57 -52.5t27 -80.5v-276q0 -112 66.5 -181t168.5 -69h45q17 0 29 -12t12 -29v-98q0 -17 -12 -29t-29 -12z" />
    <glyph glyph-name="bar" unicode="|" horiz-adv-x="460" 
d="M276 -102h-92q-17 0 -29 12t-12 29v1515q0 17 12 29t29 12h92q17 0 29 -12t12 -29v-1515q0 -17 -12 -29t-29 -12z" />
    <glyph glyph-name="braceright" unicode="}" horiz-adv-x="729" 
d="M127 -184h-45q-17 0 -29 12t-12 29v98q0 17 12 29t29 12h45q102 0 168.5 69t66.5 181v276q0 46 27 80.5t57 52.5q-30 18 -57 52t-27 81v256q0 112 -66.5 181t-168.5 69h-25q-17 0 -29 12t-12 29v99q0 17 12 29t29 12h25q130 0 227.5 -61.5t145 -158t47.5 -211.5v-256
q0 -18 12.5 -28t46.5 -23q41 -16 41 -41v-82q0 -25 -41 -41q-35 -14 -47 -24t-12 -27v-276q0 -85 -28 -162t-80 -137t-133 -95.5t-179 -35.5z" />
    <glyph glyph-name="asciitilde" unicode="~" horiz-adv-x="1105" 
d="M786 389q-71 0 -132 14.5t-98.5 31.5t-100 31.5t-136.5 14.5q-43 0 -91.5 -16t-65.5 -37q-13 -16 -31 -16q-29 0 -29 34v103q0 55 63 90t154 35q71 0 132 -14.5t98.5 -31.5t100 -31.5t136.5 -14.5q43 0 92 16t66 37q13 16 31 16q29 0 29 -35v-102q0 -55 -63.5 -90
t-154.5 -35z" />
    <glyph glyph-name="uni00A0" unicode="&#xa0;" horiz-adv-x="419" 
 />
    <glyph glyph-name="exclamdown" unicode="&#xa1;" horiz-adv-x="491" 
d="M154 1044h184q17 0 29 -11.5t12 -28.5v-185q0 -17 -12 -29t-29 -12h-184q-17 0 -29 12t-12 29v185q0 17 12 28.5t29 11.5zM188 655h115q17 0 29 -12t12 -29v-962q0 -17 -12 -29t-29 -12h-115q-17 0 -29 12t-12 29v962q0 17 12 29t29 12z" />
    <glyph glyph-name="cent" unicode="&#xa2;" horiz-adv-x="991" 
d="M764 369h117q30 0 30 -41q0 -80 -32.5 -150t-92.5 -117q-75 -60 -182 -75v-88q0 -17 -12 -29t-29 -12h-92q-17 0 -29 12t-12 29v90q-124 22 -205 100q-78 70 -103.5 172t-25.5 252q0 145 26.5 245t98.5 175q75 78 209 104v90q0 17 12 29t29 12h92q17 0 29 -12t12 -29v-88
q116 -19 189 -86q53 -48 82.5 -115t29.5 -141q0 -18 -10 -29.5t-25 -11.5h-108q-17 0 -28 9.5t-11 23.5q0 81 -61 129q-52 43 -138 43q-58 0 -107.5 -20t-76.5 -56q-31 -41 -42 -100.5t-11 -171.5q0 -102 10 -164.5t41 -101.5q63 -82 188 -82q87 0 144 45q55 46 55 125
q0 35 39 35z" />
    <glyph glyph-name="sterling" unicode="&#xa3;" horiz-adv-x="1036" 
d="M942 0h-827q-19 0 -31 12t-12 29v113q0 17 12 29t29 12h10q63 0 104 64t41 171v184q0 10 -5.5 17.5t-14.5 7.5h-117q-17 0 -29 12t-12 29v104q0 17 12 29t29 12h117q20 0 20 21v262q0 155 99 250.5t247 95.5t248.5 -95.5t100.5 -250.5v-23q0 -17 -12 -29t-29 -12h-111
q-17 0 -29 12t-12 29v23q0 64 -45 108t-111 44t-108.5 -43.5t-42.5 -108.5v-262q0 -21 20 -21h279q17 0 29 -12t12 -29v-104q0 -17 -12 -29t-29 -12h-279q-9 0 -14.5 -7.5t-5.5 -17.5v-184q0 -167 -49 -219q-6 -6 -3.5 -11t11.5 -5h520q17 0 29 -12t12 -29v-113
q0 -17 -12 -29t-29 -12z" />
    <glyph glyph-name="currency" unicode="&#xa4;" horiz-adv-x="1298" 
d="M412 256l-154 -154q-12 -12 -27 -12q-14 0 -28 14l-76 76q-14 14 -14 29t12 27l154 153q-72 112 -72 242q0 129 67 235l-147 150q-12 12 -12 28q0 17 12 29l76 76q12 12 28 12q17 0 29 -12l148 -148q112 72 241 72q128 0 240 -72l151 150q12 12 27 12t29 -14l75 -76
q15 -15 15 -29t-12 -26l-152 -150q70 -114 70 -237q0 -132 -74 -242l153 -151q13 -13 13 -29t-13 -29l-75 -76q-12 -12 -29 -12t-29 12l-153 152q-111 -68 -236 -68q-126 0 -237 68zM649 373q107 0 182.5 75.5t75.5 182.5t-75.5 182.5t-182.5 75.5t-182.5 -75.5
t-75.5 -182.5t75.5 -182.5t182.5 -75.5z" />
    <glyph glyph-name="yen" unicode="&#xa5;" horiz-adv-x="958" 
d="M928 1399q0 -14 -10 -39l-193 -442h123q17 0 29 -12t12 -29v-91q0 -17 -12 -29t-29 -12h-197l-47 -110h244q17 0 29 -12t12 -29v-88q0 -17 -12 -29t-29 -12h-270v-424q0 -17 -12 -29t-29 -12h-115q-17 0 -29 12t-12 29v424h-270q-17 0 -29 12t-12 29v88q0 17 12 29t29 12
h243l-47 110h-196q-17 0 -29 12t-12 29v91q0 17 12 29t29 12h122l-192 442q-10 25 -10 39q0 15 11.5 25t25.5 10h135q28 0 39 -31l221 -545q6 -18 16 -18q11 0 17 18l221 545q11 31 39 31h135q14 0 25.5 -10t11.5 -25z" />
    <glyph glyph-name="brokenbar" unicode="&#xa6;" horiz-adv-x="462" 
d="M279 825h-95q-17 0 -29 12t-12 29v588q0 17 12 29t29 12h95q17 0 28.5 -12t11.5 -29v-588q0 -17 -11.5 -29t-28.5 -12zM279 -102h-95q-17 0 -29 12t-12 29v628q0 17 12 29t29 12h95q17 0 28.5 -12t11.5 -29v-628q0 -17 -11.5 -29t-28.5 -12z" />
    <glyph glyph-name="section" unicode="&#xa7;" horiz-adv-x="991" 
d="M475 -430q-101 0 -182 36t-131.5 114.5t-50.5 187.5v59q0 17 12 29t29 12h110q17 0 29 -12t12 -29v-59q0 -76 46.5 -114t125.5 -38q74 0 117 33t43 102t-76 134l-342 294q-96 82 -126 150t-30 156q0 135 152 249q26 20 4 48q-65 89 -65 190q0 79 31.5 145t84 108.5
t117.5 65.5t133 23q153 0 254.5 -96.5t101.5 -255.5v-37q0 -17 -11.5 -29t-28.5 -12h-111q-17 0 -29 12t-12 29v37q0 70 -45 117t-119 47q-72 0 -117 -38.5t-45 -107.5q0 -86 68 -145l377 -324q78 -66 103.5 -126t25.5 -146q0 -78 -39 -145.5t-103 -116.5q-24 -18 -2 -47
q56 -70 56 -179q0 -98 -54.5 -173t-137 -111.5t-175.5 -36.5zM317 496l297 -250q20 -17 41 0q84 68 84 139q0 68 -61 119l-299 258q-20 17 -41 0q-84 -73 -84 -146q0 -68 63 -120z" />
    <glyph glyph-name="dieresis" unicode="&#xa8;" horiz-adv-x="1228" 
d="M479 1206h-139q-14 0 -23.5 10t-9.5 23v141q0 12 10 22.5t23 10.5h139q13 0 23 -10.5t10 -22.5v-141q0 -13 -10 -23t-23 -10zM829 1206h-139q-14 0 -23.5 10t-9.5 23v141q0 12 10 22.5t23 10.5h139q13 0 23 -10.5t10 -22.5v-141q0 -13 -10 -23t-23 -10z" />
    <glyph glyph-name="copyright" unicode="&#xa9;" horiz-adv-x="1638" 
d="M819 0q-145 0 -278 57t-229 153t-153 229t-57 278t57 278t153 229t229 153t278 57t278 -57t229 -153t153 -229t57 -278t-57 -278t-153 -229t-229 -153t-278 -57zM819 154q150 0 277.5 75.5t201.5 205t74 282.5t-74 282.5t-201.5 205t-277.5 75.5t-277.5 -75.5
t-201.5 -205t-74 -282.5t74 -282.5t201.5 -205t277.5 -75.5zM815 279q-334 0 -334 432t334 432q138 0 221.5 -74t98.5 -209q2 -14 -6 -23.5t-21 -9.5h-111q-26 0 -32 25q-19 69 -51 95t-99 26q-92 0 -129 -58t-37 -204t37 -204t129 -58q67 0 99 25t49 93q6 27 32 27h107
q14 0 24 -10t9 -23q-15 -135 -98.5 -208.5t-221.5 -73.5z" />
    <glyph glyph-name="ordfeminine" unicode="&#xaa;" horiz-adv-x="673" 
d="M293 705q-104 0 -162.5 53.5t-58.5 140.5q0 80 61 134t166 54h115q12 0 12 13v39q0 32 -25 50.5t-69 18.5q-36 0 -62 -11.5t-32 -31.5t-29 -20h-86q-25 0 -25 24q0 78 67.5 126t168.5 48q110 0 173.5 -53t63.5 -155v-394q0 -10 -7.5 -17t-16.5 -7h-72q-15 0 -18 8
q-11 27 -25 27q-8 0 -26 -12t-47.5 -23.5t-65.5 -11.5zM317 829q50 0 81.5 25t31.5 74v24q0 13 -12 13h-113q-40 0 -63 -17.5t-23 -48.5q0 -35 27 -52.5t71 -17.5z" />
    <glyph glyph-name="guillemotleft" unicode="&#xab;" horiz-adv-x="921" 
d="M414 143h-92q-34 0 -52 31l-196 330q-13 23 -13 28q0 10 13 29l196 330q18 31 52 31h92q43 0 43 -33q0 -16 -11 -35l-174 -297q-10 -13 -10 -25q0 -7 10 -24l174 -297q11 -19 11 -35q0 -33 -43 -33zM786 143h-92q-33 0 -51 31l-197 330q-12 21 -12 28q0 11 12 29l197 330
q18 31 51 31h92q43 0 43 -33q0 -17 -10 -35l-174 -297q-10 -13 -10 -25q0 -7 10 -24l174 -297q10 -18 10 -35q0 -33 -43 -33z" />
    <glyph glyph-name="logicalnot" unicode="&#xac;" horiz-adv-x="1085" 
d="M942 184h-102q-17 0 -29 12t-12 29v185q0 20 -21 20h-635q-17 0 -29 12t-12 29v102q0 17 12 29t29 12h799q17 0 29 -12t12 -29v-348q0 -17 -12 -29t-29 -12z" />
    <glyph glyph-name="uni00AD" unicode="&#xad;" horiz-adv-x="866" 
d="M651 473h-497q-17 0 -29 12t-12 29v102q0 17 12 29t29 12h497q17 0 29 -12t12 -29v-102q0 -17 -12 -29t-29 -12z" />
    <glyph glyph-name="registered" unicode="&#xae;" horiz-adv-x="1638" 
d="M819 0q-145 0 -278 57t-229 153t-153 229t-57 278t57 278t153 229t229 153t278 57t278 -57t229 -153t153 -229t57 -278t-57 -278t-153 -229t-229 -153t-278 -57zM819 154q150 0 277.5 75.5t201.5 205t74 282.5t-74 282.5t-201.5 205t-277.5 75.5t-277.5 -75.5
t-201.5 -205t-74 -282.5t74 -282.5t201.5 -205t277.5 -75.5zM686 299h-90q-12 0 -22.5 10.5t-10.5 22.5v772q0 13 10.5 23t22.5 10h274q112 0 191.5 -79.5t79.5 -191.5q0 -72 -34.5 -133t-96.5 -98q-31 -19 -31 -37q0 -14 12 -35l125 -215q10 -20 1 -34.5t-32 -14.5h-90
q-17 0 -26 6.5t-21 26.5l-139 239q-9 21 -31 21h-43q-6 0 -11 -5t-5 -12v-243q0 -14 -9.5 -23.5t-23.5 -9.5zM735 748h135q47 0 82 34.5t35 81.5t-35 82t-82 35h-135q-16 0 -16 -16v-201q0 -6 5 -11t11 -5z" />
    <glyph glyph-name="macron" unicode="&#xaf;" horiz-adv-x="1228" 
d="M842 1233h-496q-17 0 -29 12t-12 29v78q0 17 12 29t29 12h496q17 0 29 -12t12 -29v-78q0 -17 -12 -29t-29 -12z" />
    <glyph glyph-name="degree" unicode="&#xb0;" horiz-adv-x="800" 
d="M401 893q-127 0 -216 88.5t-89 216.5q0 126 89 214.5t216 88.5q126 0 215 -88.5t89 -214.5q0 -127 -89 -216t-215 -89zM401 1059q57 0 98.5 41t41.5 98t-41.5 98t-98.5 41t-98 -41t-41 -98t41 -98t98 -41z" />
    <glyph glyph-name="plusminus" unicode="&#xb1;" horiz-adv-x="1105" 
d="M606 406h-106q-17 0 -29 11.5t-12 28.5v295q0 9 -6 15t-15 6h-295q-17 0 -29 12t-12 29v106q0 17 12 29t29 12h295q9 0 15 6t6 15v295q0 17 12 29t29 12h106q17 0 29 -12t12 -29v-295q0 -9 6 -15t15 -6h295q17 0 29 -12t12 -29v-106q0 -17 -12 -29t-29 -12h-295
q-9 0 -15 -6t-6 -15v-295q0 -17 -12 -28.5t-29 -11.5zM963 0h-820q-17 0 -29 12t-12 29v113q0 17 12 29t29 12h820q17 0 29 -12t12 -29v-113q0 -17 -12 -29t-29 -12z" />
    <glyph glyph-name="uni00B2" unicode="&#xb2;" horiz-adv-x="729" 
d="M612 717h-495q-11 0 -19 7t-8 17v127q0 15 12 31l310 322q41 42 56 68t15 65q0 49 -31 76.5t-85 27.5q-50 0 -83.5 -32.5t-33.5 -75.5v-21q0 -10 -8 -17t-19 -7h-98q-11 0 -18 7t-7 17v19q0 114 74.5 186t192.5 72q120 0 193 -69.5t73 -184.5q0 -113 -86 -199l-256 -264
q-6 -7 -3 -15t13 -8h311q11 0 19 -8t8 -18v-99q0 -9 -8.5 -16.5t-18.5 -7.5z" />
    <glyph glyph-name="uni00B3" unicode="&#xb3;" horiz-adv-x="751" 
d="M375 702q-120 0 -202.5 80.5t-82.5 194.5v10q0 10 8 17.5t19 7.5h98q11 0 19 -7.5t8 -17.5v-12q0 -54 36.5 -88.5t96.5 -34.5q59 0 94 34t35 89q0 53 -34 85t-95 32h-13q-10 0 -18 7.5t-8 16.5v98q0 10 7.5 17.5t18.5 7.5h13q53 0 83.5 30t30.5 77t-31 78.5t-83 31.5
q-55 0 -88 -32t-33 -78v-19q0 -10 -8 -17t-17 -7h-100q-11 0 -19 7t-8 17v16q0 116 76.5 189.5t196.5 73.5q118 0 192 -72t74 -188q0 -44 -18.5 -88t-51.5 -76q-14 -14 0 -25q39 -30 61.5 -79.5t22.5 -102.5q0 -114 -81.5 -193.5t-198.5 -79.5z" />
    <glyph glyph-name="acute" unicode="&#xb4;" horiz-adv-x="1228" 
d="M524 1157h-82q-13 0 -21.5 8.5t-8.5 20.5q0 8 8 20l129 215q19 33 53 33h131q12 0 19.5 -8t7.5 -19q0 -12 -8 -20l-166 -225q-21 -25 -62 -25z" />
    <glyph glyph-name="uni00B5" unicode="&#xb5;" horiz-adv-x="1085" 
d="M272 -410h-98q-17 0 -29 12t-12 29v1352q0 17 12 29t29 12h102q17 0 29 -12t12 -29v-614q0 -89 65 -147t161 -58q97 0 161 53t64 141v625q0 17 12 29t29 12h102q17 0 29 -12t12 -29v-942q0 -19 -11 -30t-30 -11h-90q-14 0 -28 14q-33 33 -52 33t-38 -10.5t-36 -23
t-55 -23t-90 -10.5q-43 0 -80.5 16.5t-62 32.5t-37.5 16q-12 0 -20.5 -8.5t-8.5 -24.5v-381q0 -17 -12 -29t-29 -12z" />
    <glyph glyph-name="paragraph" unicode="&#xb6;" horiz-adv-x="1075" 
d="M512 -205h-82q-17 0 -29 12t-12 29v881q0 20 -20 20q-134 0 -231 104t-97 244q0 145 101.5 247t246.5 102h492q17 0 29 -12t12 -29v-1557q0 -17 -12 -29t-29 -12h-82q-17 0 -29 12t-12 29v1424q0 20 -21 20h-164q-20 0 -20 -20v-1424q0 -17 -12 -29t-29 -12z" />
    <glyph glyph-name="periodcentered" unicode="&#xb7;" horiz-adv-x="593" 
d="M440 358h-286q-17 0 -29 12t-12 29v287q0 17 12 29t29 12h286q17 0 29 -12t12 -29v-287q0 -17 -12 -29t-29 -12z" />
    <glyph glyph-name="cedilla" unicode="&#xb8;" horiz-adv-x="1228" 
d="M336 -410h-94q-16 0 -25.5 8t-9.5 19q0 3 1.5 9t4 14.5t4.5 15.5l53 219q9 33 39 33h90q33 0 33 -31q0 -9 -10 -53l-47 -201q-9 -33 -39 -33z" />
    <glyph glyph-name="uni00B9" unicode="&#xb9;" horiz-adv-x="622" 
d="M463 717h-103q-10 0 -17 6.5t-7 17.5v627q0 10 -9 12.5t-14 -4.5l-209 -200q-10 -11 -25.5 -5t-15.5 23v102q0 33 19 52l209 217q26 26 55 26h117q11 0 17.5 -6.5t6.5 -17.5v-826q0 -11 -6.5 -17.5t-17.5 -6.5z" />
    <glyph glyph-name="ordmasculine" unicode="&#xba;" horiz-adv-x="704" 
d="M352 705q-75 0 -132.5 27.5t-90.5 76.5q-28 42 -37.5 90.5t-9.5 124.5t9.5 124.5t37.5 90.5q33 49 90.5 76.5t132.5 27.5t132.5 -27.5t90.5 -76.5q28 -42 38 -91t10 -124t-10 -124t-38 -91q-33 -49 -90.5 -76.5t-132.5 -27.5zM352 850q71 0 96 43.5t25 130.5t-26 130.5
t-95 43.5q-71 0 -96 -43.5t-25 -130.5q0 -88 26 -131t95 -43z" />
    <glyph glyph-name="guillemotright" unicode="&#xbb;" horiz-adv-x="921" 
d="M135 922h92q34 0 52 -31l196 -330q12 -21 12 -29q0 -10 -12 -28l-196 -330q-18 -31 -52 -31h-92q-43 0 -43 33q0 18 10 35l174 297q11 15 11 24q0 7 -11 25l-174 297q-10 18 -10 35q0 33 43 33zM508 922h92q33 0 51 -31l197 -330q12 -21 12 -29q0 -10 -12 -28l-197 -330
q-18 -31 -51 -31h-92q-43 0 -43 33q0 18 10 35l174 297q10 13 10 24q0 8 -10 25l-174 297q-10 18 -10 35q0 33 43 33z" />
    <glyph glyph-name="onequarter" unicode="&#xbc;" horiz-adv-x="1343" 
d="M371 717h-117q-8 0 -14.5 6.5t-6.5 13.5v469q0 8 -6 11t-12 -3l-139 -116q-9 -9 -22 -3t-13 19v105q0 32 16 45l154 145q25 25 51 25h109q7 0 13.5 -6.5t6.5 -14.5v-676q0 -8 -5.5 -14t-14.5 -6zM256 0h-82q-15 0 -27 11t-12 26q0 11 6 20l875 1346q19 31 45 31h78
q15 0 27 -11.5t12 -25.5q0 -11 -7 -21l-872 -1345q-19 -31 -43 -31zM1204 0h-96q-21 0 -21 20v82q0 11 -10 11h-248q-7 0 -13.5 6.5t-6.5 13.5v113q0 15 16 39l244 417q9 15 21 15h114q8 0 14.5 -6.5t6.5 -14.5v-440q0 -10 10 -10h37q20 0 20 -21v-92q0 -8 -5.5 -14
t-14.5 -6h-37q-10 0 -10 -11v-82q0 -9 -6.5 -14.5t-14.5 -5.5zM965 246h112q10 0 10 10v211q0 6 -5.5 6.5t-6.5 -2.5l-117 -213q-3 -4 -1 -8t8 -4z" />
    <glyph glyph-name="onehalf" unicode="&#xbd;" horiz-adv-x="1388" 
d="M371 717h-117q-8 0 -14.5 6.5t-6.5 13.5v469q0 8 -6 11t-12 -3l-139 -116q-9 -9 -22 -3t-13 19v105q0 32 16 45l154 145q25 25 51 25h109q7 0 13.5 -6.5t6.5 -14.5v-676q0 -8 -5.5 -14t-14.5 -6zM256 0h-82q-15 0 -27 11t-12 26q0 11 6 20l875 1346q19 31 45 31h78
q15 0 27 -11.5t12 -25.5q0 -11 -7 -21l-872 -1345q-19 -31 -43 -31zM1286 0h-416q-8 0 -14 6t-6 14v101q0 14 10 24l221 244q70 73 70 125q0 31 -18.5 50.5t-49.5 19.5q-38 0 -61 -29t-23 -78q0 -20 -20 -20h-109q-20 0 -20 20q0 112 64.5 181t168.5 69q95 0 157.5 -58
t62.5 -147q0 -54 -22.5 -101t-76.5 -104l-143 -153q-8 -8 -6 -14.5t12 -6.5h219q21 0 21 -20v-103q0 -20 -21 -20z" />
    <glyph glyph-name="threequarters" unicode="&#xbe;" horiz-adv-x="1439" 
d="M311 705q-98 0 -163.5 64t-65.5 161v10q0 8 6.5 14.5t13.5 6.5h101q20 0 20 -21v-10q0 -37 25 -60.5t63 -23.5q37 0 61.5 23.5t24.5 58.5q0 40 -23 64t-63 24h-12q-7 0 -13.5 6t-6.5 14v94q0 21 20 21h12q37 0 57.5 21.5t20.5 58.5q0 35 -20.5 55.5t-57.5 20.5
q-33 0 -54 -22t-21 -56v-15q0 -8 -6 -14t-15 -6h-102q-21 0 -21 20v15q0 89 64 152t155 63q97 0 162.5 -56t65.5 -139q0 -90 -66 -147q-11 -11 0 -19q41 -32 58.5 -69t17.5 -94q0 -89 -70 -152t-168 -63zM352 0h-82q-15 0 -27 11t-12 26q0 9 7 20l874 1346q19 31 45 31h78
q15 0 27 -11.5t12 -25.5q0 -12 -6 -21l-873 -1345q-19 -31 -43 -31zM1300 0h-96q-20 0 -20 20v82q0 11 -10 11h-248q-8 0 -14.5 6.5t-6.5 13.5v113q0 14 17 39l243 417q9 15 21 15h114q8 0 14.5 -6.5t6.5 -14.5v-440q0 -10 10 -10h37q9 0 15 -6t6 -15v-92q0 -8 -6 -14
t-15 -6h-37q-10 0 -10 -11v-82q0 -9 -6.5 -14.5t-14.5 -5.5zM1061 246h113q10 0 10 10v211q0 6 -6 6.5t-7 -2.5l-116 -213q-3 -4 -1.5 -8t7.5 -4z" />
    <glyph glyph-name="questiondown" unicode="&#xbf;" horiz-adv-x="860" 
d="M362 1024h185q17 0 29 -12t12 -29v-184q0 -17 -12 -29t-29 -12h-185q-17 0 -28.5 12t-11.5 29v184q0 17 11.5 29t28.5 12zM403 635h105q17 0 29 -12t12 -29v-172q0 -81 -41 -129q-19 -23 -47.5 -46.5t-71 -55t-65.5 -50.5q-40 -34 -62 -85.5t-22 -110.5q0 -79 53 -133
t143 -54q87 0 142 58t55 149v31q0 17 12 29t29 12h104q17 0 29 -12t12 -29v-31q0 -179 -108 -287t-275 -108q-166 0 -275.5 105.5t-109.5 269.5q0 125 43.5 200.5t138.5 141.5q77 55 103 89.5t26 92.5v125q0 17 12 29t29 12z" />
    <glyph glyph-name="Agrave" unicode="&#xc0;" horiz-adv-x="1044" 
d="M563 1526h-82q-41 0 -61 24l-135 164q-9 9 -9 21q0 11 7.5 18.5t19.5 7.5h121q33 0 53 -32l109 -154q8 -12 8 -21q0 -12 -9 -20t-22 -8zM184 0h-118q-14 0 -24.5 9t-10.5 20q0 13 6 34l375 1340q3 13 14 22t25 9h143q14 0 25 -9t14 -22l375 -1340q6 -21 6 -34
q0 -11 -10.5 -20t-24.5 -9h-119q-29 0 -39 31l-90 313q-3 13 -14 21t-25 8h-340q-29 0 -39 -29l-90 -313q-10 -31 -39 -31zM395 563h254q23 0 17 23l-134 571q-3 12 -8 12h-4q-5 0 -8 -12l-133 -571q-6 -23 16 -23z" />
    <glyph glyph-name="Aacute" unicode="&#xc1;" horiz-adv-x="1044" 
d="M565 1526h-82q-13 0 -21.5 8t-8.5 20q0 9 8 21l108 154q20 32 54 32h120q12 0 19.5 -7.5t7.5 -18.5q0 -13 -8 -21l-135 -164q-20 -24 -62 -24zM184 0h-118q-14 0 -24.5 9t-10.5 20q0 13 6 34l375 1340q3 13 14 22t25 9h143q14 0 25 -9t14 -22l375 -1340q6 -21 6 -34
q0 -11 -10.5 -20t-24.5 -9h-119q-29 0 -39 31l-90 313q-3 13 -14 21t-25 8h-340q-29 0 -39 -29l-90 -313q-10 -31 -39 -31zM395 563h254q23 0 17 23l-134 571q-3 12 -8 12h-4q-5 0 -8 -12l-133 -571q-6 -23 16 -23z" />
    <glyph glyph-name="Acircumflex" unicode="&#xc2;" horiz-adv-x="1044" 
d="M371 1526h-131q-12 0 -19.5 7.5t-7.5 18.5q0 13 8 21l156 164q24 24 61 24h168q38 0 62 -24l155 -164q8 -8 8 -21q0 -11 -7 -18.5t-19 -7.5h-131q-13 0 -22.5 6t-30.5 27l-84 81q-9 9 -15 9q-5 0 -14 -9l-84 -81q-21 -21 -30.5 -27t-22.5 -6zM184 0h-118q-14 0 -24.5 9
t-10.5 20q0 13 6 34l375 1340q3 13 14 22t25 9h143q14 0 25 -9t14 -22l375 -1340q6 -21 6 -34q0 -11 -10.5 -20t-24.5 -9h-119q-29 0 -39 31l-90 313q-3 13 -14 21t-25 8h-340q-29 0 -39 -29l-90 -313q-10 -31 -39 -31zM395 563h254q23 0 17 23l-134 571q-3 12 -8 12h-4
q-5 0 -8 -12l-133 -571q-6 -23 16 -23z" />
    <glyph glyph-name="Atilde" unicode="&#xc3;" horiz-adv-x="1044" 
d="M651 1536q-44 0 -110 25l-41 18q-56 25 -92 25q-38 0 -41 -35q-2 -12 -12 -19.5t-25 -7.5h-58q-17 0 -28 11t-11 28q0 84 44 122t118 38q45 0 111 -25l41 -18q56 -25 92 -25q38 0 41 35q2 12 12 19.5t25 7.5h57q17 0 28 -11t11 -28q0 -83 -44.5 -121.5t-117.5 -38.5z
M184 0h-118q-14 0 -24.5 9t-10.5 20q0 13 6 34l375 1340q3 13 14 22t25 9h143q14 0 25 -9t14 -22l375 -1340q6 -21 6 -34q0 -11 -10.5 -20t-24.5 -9h-119q-29 0 -39 31l-90 313q-3 13 -14 21t-25 8h-340q-29 0 -39 -29l-90 -313q-10 -31 -39 -31zM395 563h254q23 0 17 23
l-134 571q-3 12 -8 12h-4q-5 0 -8 -12l-133 -571q-6 -23 16 -23z" />
    <glyph glyph-name="Adieresis" unicode="&#xc4;" horiz-adv-x="1044" 
d="M416 1528h-140q-13 0 -22.5 9.5t-9.5 23.5v141q0 12 9.5 22.5t22.5 10.5h140q13 0 23 -10.5t10 -22.5v-141q0 -13 -9.5 -23t-23.5 -10zM766 1528h-139q-13 0 -23 10t-10 23v141q0 12 10 22.5t23 10.5h139q13 0 23 -10.5t10 -22.5v-141q0 -13 -9.5 -23t-23.5 -10zM184 0
h-118q-14 0 -24.5 9t-10.5 20q0 13 6 34l375 1340q3 13 14 22t25 9h143q14 0 25 -9t14 -22l375 -1340q6 -21 6 -34q0 -11 -10.5 -20t-24.5 -9h-119q-29 0 -39 31l-90 313q-3 13 -14 21t-25 8h-340q-29 0 -39 -29l-90 -313q-10 -31 -39 -31zM395 563h254q23 0 17 23l-134 571
q-3 12 -8 12h-4q-5 0 -8 -12l-133 -571q-6 -23 16 -23z" />
    <glyph glyph-name="Aring" unicode="&#xc5;" horiz-adv-x="1044" 
d="M522 1464q-73 0 -122.5 47.5t-49.5 124.5t49.5 124.5t122.5 47.5t122.5 -47.5t49.5 -124.5t-49.5 -124.5t-122.5 -47.5zM522 1565q31 0 50.5 20t19.5 51t-19.5 51.5t-50.5 20.5q-30 0 -49.5 -20.5t-19.5 -51.5t19 -51t50 -20zM184 0h-118q-14 0 -24.5 9t-10.5 20
q0 13 6 34l375 1340q3 13 14 22t25 9h143q14 0 25 -9t14 -22l375 -1340q6 -21 6 -34q0 -11 -10.5 -20t-24.5 -9h-119q-29 0 -39 31l-90 313q-3 13 -14 21t-25 8h-340q-29 0 -39 -29l-90 -313q-10 -31 -39 -31zM395 563h254q23 0 17 23l-134 571q-3 12 -8 12h-4q-5 0 -8 -12
l-133 -571q-6 -23 16 -23z" />
    <glyph glyph-name="AE" unicode="&#xc6;" horiz-adv-x="1353" 
d="M195 0h-129q-15 0 -25 9.5t-10 21.5q0 15 8 39l434 1333q10 31 39 31h705q17 0 28.5 -12t11.5 -29v-113q0 -17 -11.5 -29t-28.5 -12h-365q-21 0 -21 -20v-369q0 -9 6 -15t15 -6h342q17 0 29 -12t12 -29v-112q0 -17 -12 -29t-29 -12h-342q-9 0 -15 -6t-6 -15v-399
q0 -20 21 -20h369q17 0 29 -12t12 -29v-113q0 -17 -12 -29t-29 -12h-543q-17 0 -29 12t-12 29v332h-264q-29 0 -39 -29l-101 -313q-10 -31 -38 -31zM422 563h215v647q0 9 -6 15t-15 6h-4q-13 0 -18 -14l-188 -631q-6 -23 16 -23z" />
    <glyph glyph-name="Ccedilla" unicode="&#xc7;" horiz-adv-x="1116" 
d="M578 -20q-147 0 -253.5 66.5t-158.5 174.5q-41 87 -52.5 202t-11.5 294t11.5 293.5t52.5 201.5q52 109 158.5 175.5t253.5 66.5q211 0 335.5 -123.5t124.5 -339.5q0 -15 -13 -26t-28 -11h-114q-17 0 -29 12t-12 29q0 125 -71 195t-193 70q-79 0 -140 -37.5t-92 -102.5
q-43 -90 -43 -403q0 -314 43 -404q31 -65 92 -102t140 -37q123 0 193.5 69.5t70.5 194.5q0 17 12 29t29 12h114q15 0 28 -11t13 -26q0 -216 -124.5 -339t-335.5 -123zM557 -410h-94q-16 0 -25.5 8t-9.5 19q0 3 1.5 9t4 14.5t4.5 15.5l54 219q9 33 38 33h91q32 0 32 -31
q0 -9 -10 -53l-47 -201q-9 -33 -39 -33z" />
    <glyph glyph-name="Egrave" unicode="&#xc8;" horiz-adv-x="993" 
d="M559 1526h-82q-41 0 -61 24l-135 164q-9 9 -9 21q0 11 7.5 18.5t19.5 7.5h121q33 0 53 -32l109 -154q8 -12 8 -21q0 -12 -9 -20t-22 -8zM860 0h-665q-17 0 -29 12t-12 29v1352q0 17 12 29t29 12h661q17 0 29 -12t12 -29v-113q0 -17 -12 -29t-29 -12h-487q-21 0 -21 -20
v-369q0 -9 6 -15t15 -6h465q17 0 28.5 -12t11.5 -29v-112q0 -17 -11.5 -29t-28.5 -12h-465q-9 0 -15 -6t-6 -15v-399q0 -20 21 -20h491q17 0 29 -12t12 -29v-113q0 -17 -12 -29t-29 -12z" />
    <glyph glyph-name="Eacute" unicode="&#xc9;" horiz-adv-x="993" 
d="M561 1526h-82q-13 0 -21.5 8t-8.5 20q0 9 8 21l108 154q20 32 53 32h121q12 0 19.5 -7.5t7.5 -18.5q0 -13 -8 -21l-135 -164q-20 -24 -62 -24zM860 0h-665q-17 0 -29 12t-12 29v1352q0 17 12 29t29 12h661q17 0 29 -12t12 -29v-113q0 -17 -12 -29t-29 -12h-487
q-21 0 -21 -20v-369q0 -9 6 -15t15 -6h465q17 0 28.5 -12t11.5 -29v-112q0 -17 -11.5 -29t-28.5 -12h-465q-9 0 -15 -6t-6 -15v-399q0 -20 21 -20h491q17 0 29 -12t12 -29v-113q0 -17 -12 -29t-29 -12z" />
    <glyph glyph-name="Ecircumflex" unicode="&#xca;" horiz-adv-x="993" 
d="M367 1526h-131q-12 0 -19.5 7.5t-7.5 18.5q0 13 8 21l156 164q24 24 61 24h168q38 0 62 -24l155 -164q8 -8 8 -21q0 -11 -7 -18.5t-19 -7.5h-131q-13 0 -23 6t-31 27l-84 81q-9 9 -14 9t-14 -9l-84 -81q-21 -21 -30.5 -27t-22.5 -6zM860 0h-665q-17 0 -29 12t-12 29v1352
q0 17 12 29t29 12h661q17 0 29 -12t12 -29v-113q0 -17 -12 -29t-29 -12h-487q-21 0 -21 -20v-369q0 -9 6 -15t15 -6h465q17 0 28.5 -12t11.5 -29v-112q0 -17 -11.5 -29t-28.5 -12h-465q-9 0 -15 -6t-6 -15v-399q0 -20 21 -20h491q17 0 29 -12t12 -29v-113q0 -17 -12 -29
t-29 -12z" />
    <glyph glyph-name="Edieresis" unicode="&#xcb;" horiz-adv-x="993" 
d="M412 1528h-140q-13 0 -22.5 9.5t-9.5 23.5v141q0 12 9.5 22.5t22.5 10.5h140q13 0 22.5 -10.5t9.5 -22.5v-141q0 -14 -9.5 -23.5t-22.5 -9.5zM762 1528h-139q-13 0 -23 10t-10 23v141q0 12 10 22.5t23 10.5h139q13 0 23 -10.5t10 -22.5v-141q0 -13 -9.5 -23t-23.5 -10z
M860 0h-665q-17 0 -29 12t-12 29v1352q0 17 12 29t29 12h661q17 0 29 -12t12 -29v-113q0 -17 -12 -29t-29 -12h-487q-21 0 -21 -20v-369q0 -9 6 -15t15 -6h465q17 0 28.5 -12t11.5 -29v-112q0 -17 -11.5 -29t-28.5 -12h-465q-9 0 -15 -6t-6 -15v-399q0 -20 21 -20h491
q17 0 29 -12t12 -29v-113q0 -17 -12 -29t-29 -12z" />
    <glyph glyph-name="Igrave" unicode="&#xcc;" horiz-adv-x="501" 
d="M293 1526h-82q-41 0 -61 24l-136 164q-8 8 -8 21q0 11 7.5 18.5t19.5 7.5h121q33 0 53 -32l108 -154q9 -13 9 -21q0 -12 -9 -20t-22 -8zM307 0h-112q-17 0 -29 12t-12 29v1352q0 17 12 29t29 12h112q17 0 29 -12t12 -29v-1352q0 -17 -12 -29t-29 -12z" />
    <glyph glyph-name="Iacute" unicode="&#xcd;" horiz-adv-x="501" 
d="M295 1526h-82q-13 0 -22 8t-9 20q0 9 8 21l109 154q20 32 53 32h121q12 0 19.5 -7.5t7.5 -18.5q0 -13 -8 -21l-136 -164q-20 -24 -61 -24zM307 0h-112q-17 0 -29 12t-12 29v1352q0 17 12 29t29 12h112q17 0 29 -12t12 -29v-1352q0 -17 -12 -29t-29 -12z" />
    <glyph glyph-name="Icircumflex" unicode="&#xce;" horiz-adv-x="501" 
d="M100 1526h-131q-12 0 -19 7.5t-7 18.5q0 13 8 21l155 164q24 24 62 24h168q37 0 61 -24l156 -164q8 -8 8 -21q0 -11 -7 -18.5t-19 -7.5h-132q-13 0 -22.5 6t-30.5 27l-84 81q-9 9 -14 9t-14 -9l-84 -81q-21 -21 -31 -27t-23 -6zM307 0h-112q-17 0 -29 12t-12 29v1352
q0 17 12 29t29 12h112q17 0 29 -12t12 -29v-1352q0 -17 -12 -29t-29 -12z" />
    <glyph glyph-name="Idieresis" unicode="&#xcf;" horiz-adv-x="501" 
d="M145 1528h-139q-14 0 -23.5 10t-9.5 23v141q0 12 10 22.5t23 10.5h139q13 0 23 -10.5t10 -22.5v-141q0 -13 -10 -23t-23 -10zM496 1528h-140q-13 0 -22.5 9.5t-9.5 23.5v141q0 12 9.5 22.5t22.5 10.5h140q13 0 22.5 -10.5t9.5 -22.5v-141q0 -14 -9.5 -23.5t-22.5 -9.5z
M307 0h-112q-17 0 -29 12t-12 29v1352q0 17 12 29t29 12h112q17 0 29 -12t12 -29v-1352q0 -17 -12 -29t-29 -12z" />
    <glyph glyph-name="Eth" unicode="&#xd0;" horiz-adv-x="1130" 
d="M971 1198q36 -75 46.5 -189.5t10.5 -291.5t-10.5 -291.5t-46.5 -189.5q-53 -109 -157.5 -172.5t-240.5 -63.5h-378q-17 0 -29 12t-12 29v594h-107q-17 0 -29 12t-12 29v112q0 17 12 29t29 12h107v564q0 17 12 29t29 12h378q136 0 240.5 -63.5t157.5 -172.5zM786 319
q26 49 33.5 148.5t7.5 249.5q0 97 -2 158t-11.5 133t-27.5 106q-31 59 -90.5 92t-122.5 33h-204q-21 0 -21 -20v-390h205q17 0 29 -12t12 -29v-112q0 -17 -12 -29t-29 -12h-205v-420q0 -20 21 -20h204q63 0 122.5 32.5t90.5 91.5z" />
    <glyph glyph-name="Ntilde" unicode="&#xd1;" horiz-adv-x="1167" 
d="M713 1536q-45 0 -111 25l-41 18q-56 25 -92 25q-38 0 -41 -35q-2 -12 -12 -19.5t-25 -7.5h-57q-17 0 -28 11t-11 28q0 84 44 122t118 38q44 0 110 -25l41 -18q56 -25 92 -25q38 0 41 35q2 12 12 19.5t25 7.5h58q17 0 27.5 -11t10.5 -28q0 -83 -44 -121.5t-117 -38.5z
M408 1399l393 -1004q7 -20 16 -20q10 0 10 14v1004q0 17 12 29t29 12h105q17 0 29 -12t12 -29v-1352q0 -17 -12 -29t-29 -12h-170q-17 0 -26.5 7.5t-16.5 27.5l-393 1012q-8 20 -17 20q-10 0 -10 -14v-1012q0 -17 -12 -29t-29 -12h-104q-17 0 -29 12t-12 29v1352q0 17 12 29
t29 12h170q17 0 26.5 -7.5t16.5 -27.5z" />
    <glyph glyph-name="Ograve" unicode="&#xd2;" horiz-adv-x="1155" 
d="M618 1526h-81q-42 0 -62 24l-135 164q-8 8 -8 21q0 11 7 18.5t19 7.5h121q33 0 53 -32l109 -154q8 -12 8 -21q0 -12 -9 -20t-22 -8zM578 -20q-147 0 -252 67t-158 176q-41 86 -53.5 202.5t-12.5 291.5t12.5 291t53.5 202q53 109 158 176.5t252 67.5t251.5 -67.5
t157.5 -176.5q41 -86 53.5 -202t12.5 -291t-12.5 -291.5t-53.5 -202.5q-53 -109 -157.5 -176t-251.5 -67zM578 174q157 0 229 137q20 38 30.5 112t12.5 135t2 159q0 97 -2 158.5t-12.5 135t-30.5 111.5q-72 138 -229 138q-158 0 -230 -138q-20 -38 -30.5 -111.5t-12.5 -135
t-2 -158.5q0 -98 2 -159t12.5 -135t30.5 -112q72 -137 230 -137z" />
    <glyph glyph-name="Oacute" unicode="&#xd3;" horiz-adv-x="1155" 
d="M621 1526h-82q-13 0 -22 8t-9 20q0 9 8 21l109 154q20 32 53 32h121q12 0 19 -7.5t7 -18.5q0 -13 -8 -21l-135 -164q-20 -24 -61 -24zM578 -20q-147 0 -252 67t-158 176q-41 86 -53.5 202.5t-12.5 291.5t12.5 291t53.5 202q53 109 158 176.5t252 67.5t251.5 -67.5
t157.5 -176.5q41 -86 53.5 -202t12.5 -291t-12.5 -291.5t-53.5 -202.5q-53 -109 -157.5 -176t-251.5 -67zM578 174q157 0 229 137q20 38 30.5 112t12.5 135t2 159q0 97 -2 158.5t-12.5 135t-30.5 111.5q-72 138 -229 138q-158 0 -230 -138q-20 -38 -30.5 -111.5t-12.5 -135
t-2 -158.5q0 -98 2 -159t12.5 -135t30.5 -112q72 -137 230 -137z" />
    <glyph glyph-name="Ocircumflex" unicode="&#xd4;" horiz-adv-x="1155" 
d="M426 1526h-131q-12 0 -19.5 7.5t-7.5 18.5q0 13 8 21l156 164q24 24 62 24h168q37 0 61 -24l156 -164q8 -8 8 -21q0 -11 -7.5 -18.5t-19.5 -7.5h-131q-13 0 -22.5 6t-30.5 27l-84 81q-9 9 -14 9q-6 0 -15 -9l-84 -81q-21 -21 -30.5 -27t-22.5 -6zM578 -20q-147 0 -252 67
t-158 176q-41 86 -53.5 202.5t-12.5 291.5t12.5 291t53.5 202q53 109 158 176.5t252 67.5t251.5 -67.5t157.5 -176.5q41 -86 53.5 -202t12.5 -291t-12.5 -291.5t-53.5 -202.5q-53 -109 -157.5 -176t-251.5 -67zM578 174q157 0 229 137q20 38 30.5 112t12.5 135t2 159
q0 97 -2 158.5t-12.5 135t-30.5 111.5q-72 138 -229 138q-158 0 -230 -138q-20 -38 -30.5 -111.5t-12.5 -135t-2 -158.5q0 -98 2 -159t12.5 -135t30.5 -112q72 -137 230 -137z" />
    <glyph glyph-name="Otilde" unicode="&#xd5;" horiz-adv-x="1155" 
d="M707 1536q-45 0 -111 25l-41 18q-56 25 -92 25q-38 0 -41 -35q-2 -12 -12 -19.5t-25 -7.5h-57q-17 0 -28 11t-11 28q0 84 44 122t118 38q44 0 110 -25l41 -18q56 -25 92 -25q38 0 41 35q2 12 12 19.5t25 7.5h57q17 0 28 -11t11 -28q0 -83 -44 -121.5t-117 -38.5zM578 -20
q-147 0 -252 67t-158 176q-41 86 -53.5 202.5t-12.5 291.5t12.5 291t53.5 202q53 109 158 176.5t252 67.5t251.5 -67.5t157.5 -176.5q41 -86 53.5 -202t12.5 -291t-12.5 -291.5t-53.5 -202.5q-53 -109 -157.5 -176t-251.5 -67zM578 174q157 0 229 137q20 38 30.5 112
t12.5 135t2 159q0 97 -2 158.5t-12.5 135t-30.5 111.5q-72 138 -229 138q-158 0 -230 -138q-20 -38 -30.5 -111.5t-12.5 -135t-2 -158.5q0 -98 2 -159t12.5 -135t30.5 -112q72 -137 230 -137z" />
    <glyph glyph-name="Odieresis" unicode="&#xd6;" horiz-adv-x="1155" 
d="M471 1528h-139q-14 0 -23.5 10t-9.5 23v141q0 12 10 22.5t23 10.5h139q13 0 23 -10.5t10 -22.5v-141q0 -13 -10 -23t-23 -10zM821 1528h-139q-14 0 -23.5 10t-9.5 23v141q0 12 10 22.5t23 10.5h139q13 0 23 -10.5t10 -22.5v-141q0 -13 -10 -23t-23 -10zM578 -20
q-147 0 -252 67t-158 176q-41 86 -53.5 202.5t-12.5 291.5t12.5 291t53.5 202q53 109 158 176.5t252 67.5t251.5 -67.5t157.5 -176.5q41 -86 53.5 -202t12.5 -291t-12.5 -291.5t-53.5 -202.5q-53 -109 -157.5 -176t-251.5 -67zM578 174q157 0 229 137q20 38 30.5 112
t12.5 135t2 159q0 97 -2 158.5t-12.5 135t-30.5 111.5q-72 138 -229 138q-158 0 -230 -138q-20 -38 -30.5 -111.5t-12.5 -135t-2 -158.5q0 -98 2 -159t12.5 -135t30.5 -112q72 -137 230 -137z" />
    <glyph glyph-name="multiply" unicode="&#xd7;" horiz-adv-x="987" 
d="M739 133l-231 232q-6 6 -14.5 6t-14.5 -6l-229 -230q-12 -12 -28.5 -12t-28.5 12l-76 76q-12 12 -12 28.5t12 28.5l229 230q14 14 0 28l-231 232q-12 12 -12 28.5t12 28.5l75 76q12 12 29 12t29 -12l231 -232q6 -6 14.5 -6t14.5 6l229 230q12 12 29 12t29 -12l75 -76
q12 -12 12 -28.5t-12 -28.5l-229 -230q-14 -14 0 -28l231 -232q12 -12 12 -28.5t-12 -28.5l-75 -76q-12 -12 -29 -12t-29 12z" />
    <glyph glyph-name="Oslash" unicode="&#xd8;" horiz-adv-x="1155" 
d="M1047 1376l-78 -131l18 -35q41 -86 53.5 -202t12.5 -291t-12.5 -291.5t-53.5 -202.5q-53 -109 -157.5 -176t-251.5 -67q-178 0 -299 100l-29 -49q-19 -31 -43 -31h-66q-15 0 -27 11t-12 26q0 9 7 20l77 131l-18 35q-41 86 -53.5 202.5t-12.5 291.5t12.5 291t53.5 202
q53 109 158 176.5t252 67.5q177 0 301 -102l30 51q18 31 39 31h66q15 0 27 -12t12 -27q0 -10 -6 -19zM303 717q0 -219 16 -307l453 764q-73 86 -194 86q-158 0 -230 -138q-20 -38 -30.5 -111.5t-12.5 -135t-2 -158.5zM807 311q20 38 30.5 112t12.5 135t2 159q0 217 -16 305
l-451 -764q74 -84 193 -84q157 0 229 137z" />
    <glyph glyph-name="Ugrave" unicode="&#xd9;" horiz-adv-x="1208" 
d="M645 1526h-82q-41 0 -61 24l-135 164q-9 9 -9 21q0 11 7.5 18.5t19.5 7.5h121q33 0 53 -32l109 -154q8 -12 8 -21q0 -12 -9 -20t-22 -8zM604 -20q-217 0 -339 119.5t-122 346.5v947q0 17 12 29t29 12h113q17 0 29 -12t12 -29v-967q0 -131 71.5 -191.5t194.5 -60.5
q129 0 197.5 67.5t68.5 184.5v967q0 17 12 29t29 12h113q17 0 29 -12t12 -29v-947q0 -224 -126.5 -345t-334.5 -121z" />
    <glyph glyph-name="Uacute" unicode="&#xda;" horiz-adv-x="1208" 
d="M647 1526h-82q-13 0 -21.5 8t-8.5 20q0 9 8 21l108 154q20 32 54 32h120q12 0 19.5 -7.5t7.5 -18.5q0 -13 -8 -21l-135 -164q-20 -24 -62 -24zM604 -20q-217 0 -339 119.5t-122 346.5v947q0 17 12 29t29 12h113q17 0 29 -12t12 -29v-967q0 -131 71.5 -191.5t194.5 -60.5
q129 0 197.5 67.5t68.5 184.5v967q0 17 12 29t29 12h113q17 0 29 -12t12 -29v-947q0 -224 -126.5 -345t-334.5 -121z" />
    <glyph glyph-name="Ucircumflex" unicode="&#xdb;" horiz-adv-x="1208" 
d="M453 1526h-131q-12 0 -19.5 7.5t-7.5 18.5q0 13 8 21l156 164q24 24 61 24h168q38 0 62 -24l155 -164q8 -8 8 -21q0 -11 -7 -18.5t-19 -7.5h-131q-13 0 -23 6t-31 27l-84 81q-9 9 -14 9t-14 -9l-84 -81q-21 -21 -30.5 -27t-22.5 -6zM604 -20q-217 0 -339 119.5
t-122 346.5v947q0 17 12 29t29 12h113q17 0 29 -12t12 -29v-967q0 -131 71.5 -191.5t194.5 -60.5q129 0 197.5 67.5t68.5 184.5v967q0 17 12 29t29 12h113q17 0 29 -12t12 -29v-947q0 -224 -126.5 -345t-334.5 -121z" />
    <glyph glyph-name="Udieresis" unicode="&#xdc;" horiz-adv-x="1208" 
d="M498 1528h-140q-13 0 -22.5 9.5t-9.5 23.5v141q0 12 9.5 22.5t22.5 10.5h140q13 0 22.5 -10.5t9.5 -22.5v-141q0 -14 -9.5 -23.5t-22.5 -9.5zM848 1528h-139q-13 0 -23 10t-10 23v141q0 12 10 22.5t23 10.5h139q13 0 23 -10.5t10 -22.5v-141q0 -13 -9.5 -23t-23.5 -10z
M604 -20q-217 0 -339 119.5t-122 346.5v947q0 17 12 29t29 12h113q17 0 29 -12t12 -29v-967q0 -131 71.5 -191.5t194.5 -60.5q129 0 197.5 67.5t68.5 184.5v967q0 17 12 29t29 12h113q17 0 29 -12t12 -29v-947q0 -224 -126.5 -345t-334.5 -121z" />
    <glyph glyph-name="Yacute" unicode="&#xdd;" horiz-adv-x="958" 
d="M522 1526h-82q-13 0 -21.5 8t-8.5 20q0 9 8 21l108 154q20 32 54 32h120q12 0 19.5 -7.5t7.5 -18.5q0 -13 -8 -21l-135 -164q-20 -24 -62 -24zM537 0h-115q-17 0 -29 12t-12 29v534l-340 785q-10 25 -10 39q0 15 11.5 25t25.5 10h135q28 0 39 -31l221 -545q6 -18 16 -18
q11 0 17 18l221 545q11 31 39 31h135q14 0 25.5 -10t11.5 -25q0 -14 -10 -39l-340 -785v-534q0 -17 -12 -29t-29 -12z" />
    <glyph glyph-name="Thorn" unicode="&#xde;" horiz-adv-x="1064" 
d="M307 0h-112q-17 0 -29 12t-12 29v1352q0 17 12 29t29 12h112q17 0 29 -12t12 -29v-164q0 -9 6 -15t15 -6h174q179 0 304.5 -126t125.5 -304v-102q0 -178 -125.5 -304t-304.5 -126h-174q-9 0 -15 -6t-6 -15v-184q0 -17 -12 -29t-29 -12zM369 440h174q97 0 166 69.5
t69 166.5v102q0 97 -69 166.5t-166 69.5h-174q-9 0 -15 -6t-6 -15v-532q0 -9 6 -15t15 -6z" />
    <glyph glyph-name="germandbls" unicode="&#xdf;" horiz-adv-x="1048" 
d="M281 0h-107q-17 0 -29 12t-12 29v1018q0 164 117.5 279.5t286.5 115.5q167 0 283 -115t116 -280q0 -162 -119 -281q-27 -27 -2 -49q152 -132 152 -323q0 -175 -124.5 -290.5t-305.5 -115.5h-41q-17 0 -29 12t-12 29v102q0 17 12 29t29 12h41q104 0 174.5 64.5t70.5 157.5
q0 46 -13 88.5t-39.5 80t-75.5 60t-113 22.5h-25q-17 0 -29 12t-12 29v101q0 17 12 29t29 12h25q101 0 156 63.5t55 155.5q0 89 -59.5 150t-155.5 61q-97 0 -156 -61t-59 -150v-1018q0 -17 -12 -29t-29 -12z" />
    <glyph glyph-name="agrave" unicode="&#xe0;" horiz-adv-x="997" 
d="M547 1157h-82q-41 0 -62 25l-161 219q-13 16 -13 26q0 11 7.5 19t19.5 8h131q34 0 53 -33l123 -204q15 -24 15 -31q0 -12 -9 -20.5t-22 -8.5zM455 -20q-169 0 -271 88.5t-102 236.5q0 152 96.5 232.5t272.5 80.5h219q20 0 20 21v84q0 78 -49 119t-141 41
q-90 0 -139.5 -36t-49.5 -102q0 -19 -11 -26.5t-36 -7.5h-94q-41 0 -41 41q0 138 98 215t275 77q183 0 277.5 -83t94.5 -244v-676q0 -17 -11.5 -29t-28.5 -12h-70q-21 0 -29 14q-1 1 -4.5 7.5t-5 9t-4.5 8t-5.5 7.5t-6 5.5t-7.5 4.5t-8 1q-11 0 -32 -12t-44 -26.5t-67 -26.5
t-96 -12zM469 150q121 0 179.5 53t58.5 162v65q0 9 -6 15t-15 6h-215q-199 0 -199 -142q0 -78 50 -118.5t147 -40.5z" />
    <glyph glyph-name="aacute" unicode="&#xe1;" horiz-adv-x="997" 
d="M530 1157h-81q-13 0 -22 8.5t-9 20.5q0 8 8 20l129 215q19 33 53 33h131q12 0 19.5 -8t7.5 -19q0 -12 -8 -20l-166 -225q-21 -25 -62 -25zM455 -20q-169 0 -271 88.5t-102 236.5q0 152 96.5 232.5t272.5 80.5h219q20 0 20 21v84q0 78 -49 119t-141 41q-90 0 -139.5 -36
t-49.5 -102q0 -19 -11 -26.5t-36 -7.5h-94q-41 0 -41 41q0 138 98 215t275 77q183 0 277.5 -83t94.5 -244v-676q0 -17 -11.5 -29t-28.5 -12h-70q-21 0 -29 14q-1 1 -4.5 7.5t-5 9t-4.5 8t-5.5 7.5t-6 5.5t-7.5 4.5t-8 1q-11 0 -32 -12t-44 -26.5t-67 -26.5t-96 -12zM469 150
q121 0 179.5 53t58.5 162v65q0 9 -6 15t-15 6h-215q-199 0 -199 -142q0 -78 50 -118.5t147 -40.5z" />
    <glyph glyph-name="acircumflex" unicode="&#xe2;" horiz-adv-x="997" 
d="M332 1157h-94q-10 0 -18.5 8.5t-8.5 18.5q0 12 8 20l170 226q19 24 62 24h110q43 0 62 -24l170 -226q8 -8 8 -20q0 -10 -8.5 -18.5t-18.5 -8.5h-94q-40 0 -64 33l-96 127q-8 8 -14 8t-14 -8l-97 -127q-24 -33 -63 -33zM455 -20q-169 0 -271 88.5t-102 236.5
q0 152 96.5 232.5t272.5 80.5h219q20 0 20 21v84q0 78 -49 119t-141 41q-90 0 -139.5 -36t-49.5 -102q0 -19 -11 -26.5t-36 -7.5h-94q-41 0 -41 41q0 138 98 215t275 77q183 0 277.5 -83t94.5 -244v-676q0 -17 -11.5 -29t-28.5 -12h-70q-21 0 -29 14q-1 1 -4.5 7.5t-5 9
t-4.5 8t-5.5 7.5t-6 5.5t-7.5 4.5t-8 1q-11 0 -32 -12t-44 -26.5t-67 -26.5t-96 -12zM469 150q121 0 179.5 53t58.5 162v65q0 9 -6 15t-15 6h-215q-199 0 -199 -142q0 -78 50 -118.5t147 -40.5z" />
    <glyph glyph-name="atilde" unicode="&#xe3;" horiz-adv-x="997" 
d="M645 1239q-53 0 -119 27l-47 18q-65 27 -98 27q-42 0 -45 -37q-3 -29 -41 -29h-64q-17 0 -29 12t-12 29q0 88 48.5 128t128.5 40q52 0 118 -27l47 -18q65 -27 99 -27q42 0 45 37q3 29 41 29h63q17 0 29 -12t12 -29q0 -87 -48 -127.5t-128 -40.5zM455 -20
q-169 0 -271 88.5t-102 236.5q0 152 96.5 232.5t272.5 80.5h219q20 0 20 21v84q0 78 -49 119t-141 41q-90 0 -139.5 -36t-49.5 -102q0 -19 -11 -26.5t-36 -7.5h-94q-41 0 -41 41q0 138 98 215t275 77q183 0 277.5 -83t94.5 -244v-676q0 -17 -11.5 -29t-28.5 -12h-70
q-21 0 -29 14q-1 1 -4.5 7.5t-5 9t-4.5 8t-5.5 7.5t-6 5.5t-7.5 4.5t-8 1q-11 0 -32 -12t-44 -26.5t-67 -26.5t-96 -12zM469 150q121 0 179.5 53t58.5 162v65q0 9 -6 15t-15 6h-215q-199 0 -199 -142q0 -78 50 -118.5t147 -40.5z" />
    <glyph glyph-name="adieresis" unicode="&#xe4;" horiz-adv-x="997" 
d="M399 1206h-139q-14 0 -23.5 10t-9.5 23v141q0 12 10 22.5t23 10.5h139q13 0 23 -10.5t10 -22.5v-141q0 -13 -10 -23t-23 -10zM750 1206h-140q-13 0 -22.5 9.5t-9.5 23.5v141q0 12 9.5 22.5t22.5 10.5h140q13 0 22.5 -10.5t9.5 -22.5v-141q0 -14 -9.5 -23.5t-22.5 -9.5z
M455 -20q-169 0 -271 88.5t-102 236.5q0 152 96.5 232.5t272.5 80.5h219q20 0 20 21v84q0 78 -49 119t-141 41q-90 0 -139.5 -36t-49.5 -102q0 -19 -11 -26.5t-36 -7.5h-94q-41 0 -41 41q0 138 98 215t275 77q183 0 277.5 -83t94.5 -244v-676q0 -17 -11.5 -29t-28.5 -12h-70
q-21 0 -29 14q-1 1 -4.5 7.5t-5 9t-4.5 8t-5.5 7.5t-6 5.5t-7.5 4.5t-8 1q-11 0 -32 -12t-44 -26.5t-67 -26.5t-96 -12zM469 150q121 0 179.5 53t58.5 162v65q0 9 -6 15t-15 6h-215q-199 0 -199 -142q0 -78 50 -118.5t147 -40.5z" />
    <glyph glyph-name="aring" unicode="&#xe5;" horiz-adv-x="997" 
d="M506 1098q-107 0 -178.5 66.5t-71.5 176.5t71.5 177t178.5 67t178.5 -67t71.5 -177t-71.5 -176.5t-178.5 -66.5zM506 1227q51 0 83 31.5t32 82.5t-32 83t-83 32t-83 -32t-32 -83t32 -82.5t83 -31.5zM455 -20q-169 0 -271 88.5t-102 236.5q0 152 96.5 232.5t272.5 80.5
h219q20 0 20 21v84q0 78 -49 119t-141 41q-90 0 -139.5 -36t-49.5 -102q0 -19 -11 -26.5t-36 -7.5h-94q-41 0 -41 41q0 138 98 215t275 77q183 0 277.5 -83t94.5 -244v-676q0 -17 -11.5 -29t-28.5 -12h-70q-21 0 -29 14q-1 1 -4.5 7.5t-5 9t-4.5 8t-5.5 7.5t-6 5.5t-7.5 4.5
t-8 1q-11 0 -32 -12t-44 -26.5t-67 -26.5t-96 -12zM469 150q121 0 179.5 53t58.5 162v65q0 9 -6 15t-15 6h-215q-199 0 -199 -142q0 -78 50 -118.5t147 -40.5z" />
    <glyph glyph-name="ae" unicode="&#xe6;" horiz-adv-x="1601" 
d="M449 -20q-169 0 -271 89t-102 238q0 152 98.5 231.5t286.5 79.5h203q20 0 20 21v78q0 166 -190 166q-88 0 -138.5 -35.5t-50.5 -97.5q0 -35 -43 -35h-98q-41 0 -41 41q0 135 99 211.5t272 76.5q161 0 272 -90q19 -16 39 -16q21 0 45 18q122 88 246 88q193 0 301 -112.5
t108 -313.5v-124q0 -17 -12 -29t-29 -12h-581q-9 0 -15 -6t-6 -15q0 -131 60 -199.5t174 -68.5q170 0 211 129q9 35 47 35h104q19 0 28.5 -11t6.5 -30q-23 -149 -125.5 -228t-271.5 -79q-156 0 -279 114q-19 19 -39 19q-18 0 -35 -17q-116 -116 -294 -116zM885 616h422
q20 0 20 21q0 109 -64 176.5t-165 67.5q-104 0 -169 -67.5t-65 -176.5q0 -9 6 -15t15 -6zM463 150q121 0 179 53t58 162v65q0 21 -20 21h-215q-103 0 -151 -34.5t-48 -107.5q0 -78 50 -118.5t147 -40.5z" />
    <glyph glyph-name="ccedilla" unicode="&#xe7;" horiz-adv-x="991" 
d="M526 -20q-190 0 -301 108q-78 70 -103.5 172t-25.5 252q0 145 26.5 245t98.5 175q53 54 133 83t170 29q163 0 269 -92q53 -48 82.5 -115t29.5 -141q0 -18 -10 -29.5t-25 -11.5h-108q-17 0 -28 9.5t-11 23.5q0 81 -61 129q-52 43 -138 43q-58 0 -107.5 -20t-76.5 -56
q-31 -41 -42 -100.5t-11 -171.5q0 -102 10 -164.5t41 -101.5q63 -82 188 -82q87 0 144 45q55 46 55 125q0 35 39 35h117q30 0 30 -41q0 -80 -32.5 -150t-92.5 -117q-101 -81 -260 -81zM516 -410h-94q-16 0 -25.5 8t-9.5 19q0 3 1.5 9t4 14.5t4.5 15.5l54 219q9 33 38 33h91
q32 0 32 -31q0 -9 -10 -53l-47 -201q-9 -33 -39 -33z" />
    <glyph glyph-name="egrave" unicode="&#xe8;" horiz-adv-x="1032" 
d="M557 1157h-82q-40 0 -61 25l-162 219q-12 15 -12 26t7 19t19 8h131q35 0 54 -33l122 -204q15 -24 15 -31q0 -12 -9 -20.5t-22 -8.5zM526 -20q-178 0 -282 94q-77 72 -112.5 177.5t-35.5 260.5q0 284 135 422q110 110 299 110q182 0 289 -104q117 -114 117 -324v-122
q0 -17 -12 -29t-29 -12h-582q-20 0 -20 -21q0 -155 84 -221q56 -47 149 -47q91 0 150 41q47 38 61 88q9 35 47 35h105q19 0 28.5 -11t6.5 -30q-18 -148 -136 -236q-92 -71 -262 -71zM315 610h422q9 0 15 6t6 15q0 118 -68 186q-61 64 -160 64q-104 0 -168 -64
q-67 -67 -67 -186q0 -21 20 -21z" />
    <glyph glyph-name="eacute" unicode="&#xe9;" horiz-adv-x="1032" 
d="M541 1157h-82q-13 0 -22 8.5t-9 20.5q0 8 8 20l129 215q19 33 53 33h132q12 0 19 -8t7 -19q0 -12 -8 -20l-166 -225q-21 -25 -61 -25zM526 -20q-178 0 -282 94q-77 72 -112.5 177.5t-35.5 260.5q0 284 135 422q110 110 299 110q182 0 289 -104q117 -114 117 -324v-122
q0 -17 -12 -29t-29 -12h-582q-20 0 -20 -21q0 -155 84 -221q56 -47 149 -47q91 0 150 41q47 38 61 88q9 35 47 35h105q19 0 28.5 -11t6.5 -30q-18 -148 -136 -236q-92 -71 -262 -71zM315 610h422q9 0 15 6t6 15q0 118 -68 186q-61 64 -160 64q-104 0 -168 -64
q-67 -67 -67 -186q0 -21 20 -21z" />
    <glyph glyph-name="ecircumflex" unicode="&#xea;" horiz-adv-x="1032" 
d="M342 1157h-94q-10 0 -18.5 8.5t-8.5 18.5q0 12 8 20l170 226q19 24 62 24h110q43 0 62 -24l170 -226q8 -8 8 -20q0 -10 -8.5 -18.5t-18.5 -8.5h-94q-39 0 -63 33l-97 127q-8 8 -14 8t-14 -8l-96 -127q-24 -33 -64 -33zM526 -20q-178 0 -282 94q-77 72 -112.5 177.5
t-35.5 260.5q0 284 135 422q110 110 299 110q182 0 289 -104q117 -114 117 -324v-122q0 -17 -12 -29t-29 -12h-582q-20 0 -20 -21q0 -155 84 -221q56 -47 149 -47q91 0 150 41q47 38 61 88q9 35 47 35h105q19 0 28.5 -11t6.5 -30q-18 -148 -136 -236q-92 -71 -262 -71z
M315 610h422q9 0 15 6t6 15q0 118 -68 186q-61 64 -160 64q-104 0 -168 -64q-67 -67 -67 -186q0 -21 20 -21z" />
    <glyph glyph-name="edieresis" unicode="&#xeb;" horiz-adv-x="1032" 
d="M410 1206h-140q-13 0 -22.5 9.5t-9.5 23.5v141q0 12 9.5 22.5t22.5 10.5h140q13 0 22.5 -10.5t9.5 -22.5v-141q0 -14 -9.5 -23.5t-22.5 -9.5zM760 1206h-139q-13 0 -23 10t-10 23v141q0 12 10 22.5t23 10.5h139q13 0 23 -10.5t10 -22.5v-141q0 -13 -9.5 -23t-23.5 -10z
M526 -20q-178 0 -282 94q-77 72 -112.5 177.5t-35.5 260.5q0 284 135 422q110 110 299 110q182 0 289 -104q117 -114 117 -324v-122q0 -17 -12 -29t-29 -12h-582q-20 0 -20 -21q0 -155 84 -221q56 -47 149 -47q91 0 150 41q47 38 61 88q9 35 47 35h105q19 0 28.5 -11
t6.5 -30q-18 -148 -136 -236q-92 -71 -262 -71zM315 610h422q9 0 15 6t6 15q0 118 -68 186q-61 64 -160 64q-104 0 -168 -64q-67 -67 -67 -186q0 -21 20 -21z" />
    <glyph glyph-name="igrave" unicode="&#xec;" horiz-adv-x="454" 
d="M268 1157h-61q-44 0 -62 25l-149 225q-8 16 -8 20q0 11 7 19t19 8h121q39 0 53 -33l103 -215q8 -12 8 -20q0 -12 -9 -20.5t-22 -8.5zM281 0h-107q-17 0 -29 12t-12 29v942q0 17 12 29t29 12h107q17 0 29 -12t12 -29v-942q0 -17 -12 -29t-29 -12z" />
    <glyph glyph-name="iacute" unicode="&#xed;" horiz-adv-x="454" 
d="M252 1157h-82q-13 0 -22 8.5t-9 20.5q0 8 8 20l129 215q19 33 54 33h131q12 0 19 -8t7 -19q0 -12 -8 -20l-166 -225q-21 -25 -61 -25zM281 0h-107q-17 0 -29 12t-12 29v942q0 17 12 29t29 12h107q17 0 29 -12t12 -29v-942q0 -17 -12 -29t-29 -12z" />
    <glyph glyph-name="icircumflex" unicode="&#xee;" horiz-adv-x="454" 
d="M82 1157h-115q-12 0 -19 8t-7 19q0 12 8 20l176 226q17 24 61 24h86q43 0 60 -24l176 -226q8 -8 8 -20q0 -11 -7.5 -19t-19.5 -8h-114q-40 0 -64 33l-69 100q-5 8 -15 8t-14 -8l-68 -100q-24 -33 -63 -33zM281 0h-107q-17 0 -29 12t-12 29v942q0 17 12 29t29 12h107
q17 0 29 -12t12 -29v-942q0 -17 -12 -29t-29 -12z" />
    <glyph glyph-name="idieresis" unicode="&#xef;" horiz-adv-x="454" 
d="M162 1247h-139q-13 0 -23 9.5t-10 23.5v141q0 12 10 22.5t23 10.5h139q13 0 23 -10.5t10 -22.5v-141q0 -14 -9.5 -23.5t-23.5 -9.5zM430 1247h-139q-13 0 -23 9.5t-10 23.5v141q0 12 10 22.5t23 10.5h139q13 0 23 -10.5t10 -22.5v-141q0 -14 -9.5 -23.5t-23.5 -9.5z
M281 0h-107q-17 0 -29 12t-12 29v942q0 17 12 29t29 12h107q17 0 29 -12t12 -29v-942q0 -17 -12 -29t-29 -12z" />
    <glyph glyph-name="eth" unicode="&#xf0;" horiz-adv-x="1056" 
d="M799 1313l-43 -27q198 -195 198 -668q0 -339 -102 -488.5t-332 -149.5q-207 0 -315.5 136t-108.5 396q0 236 100 373t283 137q126 0 213 -100q9 -11 22 -8t13 16q0 75 -36 143.5t-101 112.5l-191 -115q-17 -10 -37 -1.5t-20 30.5v47q0 15 1 22t8 16.5t22 18.5l69 41
q-30 6 -65 6h-111q-17 0 -29 12t-12 29v92q0 17 12 29t29 12h111q153 0 268 -59l129 78q15 10 33 0.5t18 -29.5v-53q0 -20 -5.5 -30t-20.5 -19zM524 164q120 0 177 82.5t57 259.5t-56.5 257.5t-181.5 80.5q-123 0 -179 -80t-56 -252q0 -179 58 -263.5t181 -84.5z" />
    <glyph glyph-name="ntilde" unicode="&#xf1;" horiz-adv-x="1075" 
d="M678 1239q-53 0 -119 27l-47 18q-65 27 -98 27q-42 0 -45 -37q-3 -29 -41 -29h-64q-17 0 -29 12t-12 29q0 88 48 128t128 40q53 0 119 -27l47 -18q65 -27 99 -27q42 0 45 37q3 29 41 29h63q17 0 29 -12t12 -29q0 -87 -48 -127.5t-128 -40.5zM276 0h-102q-17 0 -29 12
t-12 29v942q0 17 12 29t29 12h90q21 0 29 -14q3 -4 9.5 -15t10.5 -16.5t12.5 -10.5t20.5 -5q14 0 34 12.5t42.5 28t70.5 28t111 12.5q161 0 254.5 -100t93.5 -266v-637q0 -17 -12 -29t-29 -12h-102q-17 0 -29 12t-12 29v571q0 116 -58 182t-167 66q-98 0 -162 -64.5
t-64 -172.5v-582q0 -17 -12 -29t-29 -12z" />
    <glyph glyph-name="ograve" unicode="&#xf2;" horiz-adv-x="1040" 
d="M561 1157h-82q-40 0 -61 25l-162 219q-12 15 -12 26t7 19t19 8h131q35 0 54 -33l123 -204q14 -22 14 -31q0 -12 -9 -20.5t-22 -8.5zM520 -20q-117 0 -205.5 45t-142.5 125q-48 71 -62 153t-14 209t14 209t62 153q54 80 142.5 125t205.5 45t205.5 -45t142.5 -125
q48 -71 62 -153t14 -209t-14 -209t-62 -153q-54 -80 -142.5 -125t-205.5 -45zM520 164q64 0 112.5 27.5t76.5 68.5q26 39 35.5 97.5t9.5 154.5t-9.5 154.5t-35.5 97.5q-28 41 -76.5 68.5t-112.5 27.5t-112 -27.5t-76 -68.5q-26 -39 -35.5 -97.5t-9.5 -154.5t9.5 -154.5
t35.5 -97.5q28 -41 76 -68.5t112 -27.5z" />
    <glyph glyph-name="oacute" unicode="&#xf3;" horiz-adv-x="1040" 
d="M545 1157h-82q-13 0 -22 8.5t-9 20.5q0 8 8 20l129 215q19 33 54 33h131q12 0 19 -8t7 -19q0 -12 -8 -20l-166 -225q-21 -25 -61 -25zM520 -20q-117 0 -205.5 45t-142.5 125q-48 71 -62 153t-14 209t14 209t62 153q54 80 142.5 125t205.5 45t205.5 -45t142.5 -125
q48 -71 62 -153t14 -209t-14 -209t-62 -153q-54 -80 -142.5 -125t-205.5 -45zM520 164q64 0 112.5 27.5t76.5 68.5q26 39 35.5 97.5t9.5 154.5t-9.5 154.5t-35.5 97.5q-28 41 -76.5 68.5t-112.5 27.5t-112 -27.5t-76 -68.5q-26 -39 -35.5 -97.5t-9.5 -154.5t9.5 -154.5
t35.5 -97.5q28 -41 76 -68.5t112 -27.5z" />
    <glyph glyph-name="ocircumflex" unicode="&#xf4;" horiz-adv-x="1040" 
d="M346 1157h-94q-10 0 -18.5 8.5t-8.5 18.5q0 12 8 20l170 226q19 24 62 24h110q43 0 62 -24l170 -226q8 -8 8 -20q0 -10 -8.5 -18.5t-18.5 -8.5h-94q-39 0 -63 33l-96 127q-8 8 -15 8q-6 0 -14 -8l-96 -127q-24 -33 -64 -33zM520 -20q-117 0 -205.5 45t-142.5 125
q-48 71 -62 153t-14 209t14 209t62 153q54 80 142.5 125t205.5 45t205.5 -45t142.5 -125q48 -71 62 -153t14 -209t-14 -209t-62 -153q-54 -80 -142.5 -125t-205.5 -45zM520 164q64 0 112.5 27.5t76.5 68.5q26 39 35.5 97.5t9.5 154.5t-9.5 154.5t-35.5 97.5
q-28 41 -76.5 68.5t-112.5 27.5t-112 -27.5t-76 -68.5q-26 -39 -35.5 -97.5t-9.5 -154.5t9.5 -154.5t35.5 -97.5q28 -41 76 -68.5t112 -27.5z" />
    <glyph glyph-name="otilde" unicode="&#xf5;" horiz-adv-x="1040" 
d="M659 1239q-52 0 -118 27l-47 18q-65 27 -99 27q-42 0 -45 -37q-3 -29 -41 -29h-63q-17 0 -29 12t-12 29q0 88 48 128t128 40q53 0 119 -27l47 -18q65 -27 98 -27q42 0 45 37q3 29 41 29h64q17 0 29 -12t12 -29q0 -87 -48.5 -127.5t-128.5 -40.5zM520 -20
q-117 0 -205.5 45t-142.5 125q-48 71 -62 153t-14 209t14 209t62 153q54 80 142.5 125t205.5 45t205.5 -45t142.5 -125q48 -71 62 -153t14 -209t-14 -209t-62 -153q-54 -80 -142.5 -125t-205.5 -45zM520 164q64 0 112.5 27.5t76.5 68.5q26 39 35.5 97.5t9.5 154.5
t-9.5 154.5t-35.5 97.5q-28 41 -76.5 68.5t-112.5 27.5t-112 -27.5t-76 -68.5q-26 -39 -35.5 -97.5t-9.5 -154.5t9.5 -154.5t35.5 -97.5q28 -41 76 -68.5t112 -27.5z" />
    <glyph glyph-name="odieresis" unicode="&#xf6;" horiz-adv-x="1040" 
d="M414 1206h-140q-13 0 -22.5 9.5t-9.5 23.5v141q0 12 9.5 22.5t22.5 10.5h140q13 0 22.5 -10.5t9.5 -22.5v-141q0 -14 -9.5 -23.5t-22.5 -9.5zM764 1206h-139q-13 0 -23 10t-10 23v141q0 12 10 22.5t23 10.5h139q13 0 23 -10.5t10 -22.5v-141q0 -13 -9.5 -23t-23.5 -10z
M520 -20q-117 0 -205.5 45t-142.5 125q-48 71 -62 153t-14 209t14 209t62 153q54 80 142.5 125t205.5 45t205.5 -45t142.5 -125q48 -71 62 -153t14 -209t-14 -209t-62 -153q-54 -80 -142.5 -125t-205.5 -45zM520 164q64 0 112.5 27.5t76.5 68.5q26 39 35.5 97.5t9.5 154.5
t-9.5 154.5t-35.5 97.5q-28 41 -76.5 68.5t-112.5 27.5t-112 -27.5t-76 -68.5q-26 -39 -35.5 -97.5t-9.5 -154.5t9.5 -154.5t35.5 -97.5q28 -41 76 -68.5t112 -27.5z" />
    <glyph glyph-name="divide" unicode="&#xf7;" horiz-adv-x="1105" 
d="M614 737h-184q-17 0 -29 12t-12 29v185q0 17 12 29t29 12h184q17 0 29 -12t12 -29v-185q0 -17 -12 -29t-29 -12zM963 416h-820q-17 0 -29 12t-12 29v112q0 17 12 29t29 12h820q17 0 29 -12t12 -29v-112q0 -17 -12 -29t-29 -12zM614 0h-184q-17 0 -29 12t-12 29v184
q0 17 12 29t29 12h184q17 0 29 -12t12 -29v-184q0 -17 -12 -29t-29 -12z" />
    <glyph glyph-name="oslash" unicode="&#xf8;" horiz-adv-x="1040" 
d="M918 938l-50 -64q48 -71 62 -153t14 -209t-14 -209t-62 -153q-54 -80 -142.5 -125t-205.5 -45q-155 0 -266 81l-23 -30q-9 -12 -14 -17t-14.5 -9.5t-22.5 -4.5h-47q-16 0 -26.5 12.5t-10.5 28.5q0 14 13 31l61 80q-46 71 -60 152.5t-14 207.5q0 127 14 209t62 153
q54 80 142.5 125t205.5 45q158 0 268 -83l25 32q24 31 49 31h45q17 0 27 -12t10 -27q0 -12 -26 -47zM287 512q0 -121 16 -186l367 481q-60 53 -150 53q-64 0 -112 -27.5t-76 -68.5q-26 -39 -35.5 -97.5t-9.5 -154.5zM754 512q0 119 -17 186l-366 -483q65 -51 149 -51
q64 0 112.5 27.5t76.5 68.5q26 39 35.5 97.5t9.5 154.5z" />
    <glyph glyph-name="ugrave" unicode="&#xf9;" horiz-adv-x="1075" 
d="M569 1157h-82q-40 0 -61 25l-162 219q-12 15 -12 26t7.5 19t19.5 8h131q34 0 53 -33l123 -204q14 -22 14 -31q0 -12 -9 -20.5t-22 -8.5zM799 1024h102q17 0 29 -12t12 -29v-942q0 -17 -12 -29t-29 -12h-90q-21 0 -29 14q-3 4 -9.5 15t-10.5 16.5t-12.5 10.5t-20.5 5
q-14 0 -34 -12.5t-42.5 -28t-70.5 -28t-111 -12.5q-161 0 -254.5 100t-93.5 266v637q0 17 12 29t29 12h102q17 0 29 -12t12 -29v-571q0 -116 58 -182t167 -66q98 0 162 64.5t64 172.5v582q0 17 12 29t29 12z" />
    <glyph glyph-name="uacute" unicode="&#xfa;" horiz-adv-x="1075" 
d="M553 1157h-82q-13 0 -22 8.5t-9 20.5q0 6 9 20l129 215q19 33 53 33h131q12 0 19 -8t7 -19q0 -12 -8 -20l-166 -225q-21 -25 -61 -25zM799 1024h102q17 0 29 -12t12 -29v-942q0 -17 -12 -29t-29 -12h-90q-21 0 -29 14q-3 4 -9.5 15t-10.5 16.5t-12.5 10.5t-20.5 5
q-14 0 -34 -12.5t-42.5 -28t-70.5 -28t-111 -12.5q-161 0 -254.5 100t-93.5 266v637q0 17 12 29t29 12h102q17 0 29 -12t12 -29v-571q0 -116 58 -182t167 -66q98 0 162 64.5t64 172.5v582q0 17 12 29t29 12z" />
    <glyph glyph-name="ucircumflex" unicode="&#xfb;" horiz-adv-x="1075" 
d="M354 1157h-94q-10 0 -18.5 8.5t-8.5 18.5q0 11 9 20l170 226q19 24 61 24h111q42 0 61 -24l170 -226q8 -8 8 -20q0 -11 -8 -19t-18 -8h-95q-39 0 -63 33l-96 127q-8 8 -15 8q-6 0 -14 -8l-96 -127q-24 -33 -64 -33zM799 1024h102q17 0 29 -12t12 -29v-942q0 -17 -12 -29
t-29 -12h-90q-21 0 -29 14q-3 4 -9.5 15t-10.5 16.5t-12.5 10.5t-20.5 5q-14 0 -34 -12.5t-42.5 -28t-70.5 -28t-111 -12.5q-161 0 -254.5 100t-93.5 266v637q0 17 12 29t29 12h102q17 0 29 -12t12 -29v-571q0 -116 58 -182t167 -66q98 0 162 64.5t64 172.5v582q0 17 12 29
t29 12z" />
    <glyph glyph-name="udieresis" unicode="&#xfc;" horiz-adv-x="1075" 
d="M422 1206h-139q-13 0 -23 10t-10 23v141q0 12 10 22.5t23 10.5h139q13 0 23 -10.5t10 -22.5v-141q0 -13 -9.5 -23t-23.5 -10zM772 1206h-139q-13 0 -23 10t-10 23v141q0 12 10 22.5t23 10.5h139q13 0 23 -10.5t10 -22.5v-141q0 -13 -9.5 -23t-23.5 -10zM799 1024h102
q17 0 29 -12t12 -29v-942q0 -17 -12 -29t-29 -12h-90q-21 0 -29 14q-3 4 -9.5 15t-10.5 16.5t-12.5 10.5t-20.5 5q-14 0 -34 -12.5t-42.5 -28t-70.5 -28t-111 -12.5q-161 0 -254.5 100t-93.5 266v637q0 17 12 29t29 12h102q17 0 29 -12t12 -29v-571q0 -116 58 -182t167 -66
q98 0 162 64.5t64 172.5v582q0 17 12 29t29 12z" />
    <glyph glyph-name="yacute" unicode="&#xfd;" horiz-adv-x="952" 
d="M506 1157h-82q-13 0 -22 8.5t-9 20.5q0 8 8 20l129 215q19 33 54 33h131q12 0 19 -8t7 -19q0 -12 -8 -20l-166 -225q-21 -25 -61 -25zM371 -410h-111q-19 0 -30 10t-11 23q0 12 6 27l146 399q6 18 6 23t-6 20l-342 869q-9 23 -9 32q0 13 11.5 22t29.5 9h125q28 0 39 -31
l252 -665q3 -9 8 -9q6 0 9 9l233 665q11 31 39 31h125q18 0 29.5 -9t11.5 -22q0 -12 -8 -32l-514 -1340q-11 -31 -39 -31z" />
    <glyph glyph-name="thorn" unicode="&#xfe;" horiz-adv-x="1044" 
d="M276 -410h-102q-17 0 -29 12t-12 29v1782q0 17 12 29t29 12h102q17 0 29 -12t12 -29v-369q0 -29 10.5 -40t34.5 -11q13 0 76 25.5t119 25.5q109 0 193.5 -53t132.5 -141q41 -77 53 -156.5t12 -181.5t-12 -181.5t-53 -156.5q-48 -88 -132.5 -141t-193.5 -53
q-56 0 -119 25.5t-76 25.5q-24 0 -34.5 -11t-10.5 -40v-349q0 -17 -12 -29t-29 -12zM535 164q129 0 192 94q9 13 15.5 26.5t10.5 32t6.5 29t3.5 37.5t1 36.5v45.5v47v47v45.5t-1 36.5t-3.5 37.5t-6.5 29t-10.5 32t-15.5 26.5q-63 94 -192 94q-130 0 -193 -94
q-9 -13 -15.5 -26.5t-10.5 -32t-6.5 -29t-3.5 -37.5t-1 -36.5v-45.5v-47v-47v-45.5t1 -36.5t3.5 -37.5t6.5 -29t10.5 -32t15.5 -26.5q63 -94 193 -94z" />
    <glyph glyph-name="ydieresis" unicode="&#xff;" horiz-adv-x="952" 
d="M375 1206h-139q-14 0 -23.5 10t-9.5 23v141q0 12 10 22.5t23 10.5h139q13 0 23 -10.5t10 -22.5v-141q0 -13 -10 -23t-23 -10zM725 1206h-139q-14 0 -23.5 10t-9.5 23v141q0 12 10 22.5t23 10.5h139q13 0 23 -10.5t10 -22.5v-141q0 -13 -10 -23t-23 -10zM371 -410h-111
q-19 0 -30 10t-11 23q0 12 6 27l146 399q6 18 6 23t-6 20l-342 869q-9 23 -9 32q0 13 11.5 22t29.5 9h125q28 0 39 -31l252 -665q3 -9 8 -9q6 0 9 9l233 665q11 31 39 31h125q18 0 29.5 -9t11.5 -22q0 -12 -8 -32l-514 -1340q-11 -31 -39 -31z" />
    <glyph glyph-name="Amacron" unicode="&#x100;" horiz-adv-x="1044" 
d="M770 1548h-496q-17 0 -29 12t-12 29v78q0 17 12 29t29 12h496q17 0 29 -12t12 -29v-78q0 -17 -12 -29t-29 -12zM184 0h-118q-14 0 -24.5 9t-10.5 20q0 13 6 34l375 1340q3 13 14 22t25 9h143q14 0 25 -9t14 -22l375 -1340q6 -21 6 -34q0 -11 -10.5 -20t-24.5 -9h-119
q-29 0 -39 31l-90 313q-3 13 -14 21t-25 8h-340q-29 0 -39 -29l-90 -313q-10 -31 -39 -31zM395 563h254q23 0 17 23l-134 571q-3 12 -8 12h-4q-5 0 -8 -12l-133 -571q-6 -23 16 -23z" />
    <glyph glyph-name="amacron" unicode="&#x101;" horiz-adv-x="997" 
d="M754 1233h-496q-17 0 -29 12t-12 29v78q0 17 12 29t29 12h496q17 0 29 -12t12 -29v-78q0 -17 -12 -29t-29 -12zM455 -20q-169 0 -271 88.5t-102 236.5q0 152 96.5 232.5t272.5 80.5h219q20 0 20 21v84q0 78 -49 119t-141 41q-90 0 -139.5 -36t-49.5 -102q0 -19 -11 -26.5
t-36 -7.5h-94q-41 0 -41 41q0 138 98 215t275 77q183 0 277.5 -83t94.5 -244v-676q0 -17 -11.5 -29t-28.5 -12h-70q-21 0 -29 14q-1 1 -4.5 7.5t-5 9t-4.5 8t-5.5 7.5t-6 5.5t-7.5 4.5t-8 1q-11 0 -32 -12t-44 -26.5t-67 -26.5t-96 -12zM469 150q121 0 179.5 53t58.5 162v65
q0 9 -6 15t-15 6h-215q-199 0 -199 -142q0 -78 50 -118.5t147 -40.5z" />
    <glyph glyph-name="Abreve" unicode="&#x102;" horiz-adv-x="1044" 
d="M522 1516q-132 0 -207 53t-75 147q0 14 10.5 24.5t23.5 10.5h78q31 0 45 -35q26 -65 125 -65t125 65q14 35 45 35h78q14 0 24.5 -10.5t10.5 -24.5q0 -94 -75.5 -147t-207.5 -53zM184 0h-118q-14 0 -24.5 9t-10.5 20q0 13 6 34l375 1340q3 13 14 22t25 9h143q14 0 25 -9
t14 -22l375 -1340q6 -21 6 -34q0 -11 -10.5 -20t-24.5 -9h-119q-29 0 -39 31l-90 313q-3 13 -14 21t-25 8h-340q-29 0 -39 -29l-90 -313q-10 -31 -39 -31zM395 563h254q23 0 17 23l-134 571q-3 12 -8 12h-4q-5 0 -8 -12l-133 -571q-6 -23 16 -23z" />
    <glyph glyph-name="abreve" unicode="&#x103;" horiz-adv-x="997" 
d="M506 1157q-122 0 -202.5 75t-80.5 187q0 13 10.5 24t24.5 11h88q15 0 25 -10t10 -25q0 -53 35.5 -88t89.5 -35t88.5 35t34.5 88q0 15 10.5 25t24.5 10h88q13 0 23.5 -10.5t10.5 -24.5q0 -112 -80 -187t-200 -75zM455 -20q-169 0 -271 88.5t-102 236.5q0 152 96.5 232.5
t272.5 80.5h219q20 0 20 21v84q0 78 -49 119t-141 41q-90 0 -139.5 -36t-49.5 -102q0 -19 -11 -26.5t-36 -7.5h-94q-41 0 -41 41q0 138 98 215t275 77q183 0 277.5 -83t94.5 -244v-676q0 -17 -11.5 -29t-28.5 -12h-70q-21 0 -29 14q-1 1 -4.5 7.5t-5 9t-4.5 8t-5.5 7.5
t-6 5.5t-7.5 4.5t-8 1q-11 0 -32 -12t-44 -26.5t-67 -26.5t-96 -12zM469 150q121 0 179.5 53t58.5 162v65q0 9 -6 15t-15 6h-215q-199 0 -199 -142q0 -78 50 -118.5t147 -40.5z" />
    <glyph glyph-name="Aogonek" unicode="&#x104;" horiz-adv-x="1044" 
d="M633 1403l375 -1340q6 -21 6 -34q0 -11 -10.5 -20t-24.5 -9h-78q-61 -36 -92 -76.5t-31 -95.5q0 -63 36.5 -83.5t123.5 -20.5q17 0 29 -12t12 -29v-72q0 -17 -12 -29t-29 -12q-330 0 -330 248q0 181 191 293l-68 233q-3 13 -14 21t-25 8h-340q-29 0 -39 -29l-90 -313
q-10 -31 -39 -31h-118q-14 0 -24.5 9t-10.5 20q0 13 6 34l375 1340q3 13 14 22t25 9h143q14 0 25 -9t14 -22zM395 563h254q23 0 17 23l-134 571q-3 12 -8 12h-4q-5 0 -8 -12l-133 -571q-6 -23 16 -23z" />
    <glyph glyph-name="aogonek" unicode="&#x105;" horiz-adv-x="997" 
d="M834 0h-37q-61 -36 -92 -76.5t-31 -95.5q0 -63 36.5 -83.5t123.5 -20.5q17 0 28.5 -12t11.5 -29v-72q0 -17 -11.5 -29t-28.5 -12q-330 0 -330 248q0 100 59 178q-50 -16 -108 -16q-169 0 -271 88.5t-102 236.5q0 152 96.5 232.5t272.5 80.5h219q20 0 20 21v84
q0 78 -49 119t-141 41q-90 0 -139.5 -36t-49.5 -102q0 -19 -11 -26.5t-36 -7.5h-94q-41 0 -41 41q0 138 98 215t275 77q183 0 277.5 -83t94.5 -244v-676q0 -17 -11.5 -29t-28.5 -12zM272 309q0 -78 50 -118.5t147 -40.5q121 0 179.5 53t58.5 162v65q0 9 -6 15t-15 6h-215
q-199 0 -199 -142z" />
    <glyph glyph-name="Cacute" unicode="&#x106;" horiz-adv-x="1116" 
d="M608 1526h-82q-13 0 -21.5 8t-8.5 20q0 9 8 21l108 154q20 32 54 32h120q12 0 19.5 -7.5t7.5 -18.5q0 -13 -8 -21l-135 -164q-20 -24 -62 -24zM578 -20q-147 0 -253.5 66.5t-158.5 174.5q-41 87 -52.5 202t-11.5 294t11.5 293.5t52.5 201.5q52 109 158.5 175.5
t253.5 66.5q211 0 335.5 -123.5t124.5 -339.5q0 -15 -13 -26t-28 -11h-114q-17 0 -29 12t-12 29q0 125 -71 195t-193 70q-79 0 -140 -37.5t-92 -102.5q-43 -90 -43 -403q0 -314 43 -404q31 -65 92 -102t140 -37q123 0 193.5 69.5t70.5 194.5q0 17 12 29t29 12h114
q15 0 28 -11t13 -26q0 -216 -124.5 -339t-335.5 -123z" />
    <glyph glyph-name="cacute" unicode="&#x107;" horiz-adv-x="991" 
d="M549 1157h-82q-13 0 -22 8.5t-9 20.5q0 8 8 20l129 215q19 33 54 33h131q12 0 19 -8t7 -19q0 -12 -8 -20l-166 -225q-21 -25 -61 -25zM526 -20q-190 0 -301 108q-78 70 -103.5 172t-25.5 252q0 145 26.5 245t98.5 175q53 54 133 83t170 29q163 0 269 -92
q53 -48 82.5 -115t29.5 -141q0 -18 -10 -29.5t-25 -11.5h-108q-17 0 -28 9.5t-11 23.5q0 81 -61 129q-52 43 -138 43q-58 0 -107.5 -20t-76.5 -56q-31 -41 -42 -100.5t-11 -171.5q0 -102 10 -164.5t41 -101.5q63 -82 188 -82q87 0 144 45q55 46 55 125q0 35 39 35h117
q30 0 30 -41q0 -80 -32.5 -150t-92.5 -117q-101 -81 -260 -81z" />
    <glyph glyph-name="Ccircumflex" unicode="&#x108;" horiz-adv-x="1116" 
d="M414 1526h-131q-12 0 -19.5 7.5t-7.5 18.5q0 13 8 21l156 164q24 24 61 24h168q38 0 62 -24l155 -164q8 -8 8 -21q0 -11 -7 -18.5t-19 -7.5h-131q-13 0 -22.5 6t-30.5 27l-84 81q-9 9 -15 9q-5 0 -14 -9l-84 -81q-21 -21 -30.5 -27t-22.5 -6zM578 -20q-147 0 -253.5 66.5
t-158.5 174.5q-41 87 -52.5 202t-11.5 294t11.5 293.5t52.5 201.5q52 109 158.5 175.5t253.5 66.5q211 0 335.5 -123.5t124.5 -339.5q0 -15 -13 -26t-28 -11h-114q-17 0 -29 12t-12 29q0 125 -71 195t-193 70q-79 0 -140 -37.5t-92 -102.5q-43 -90 -43 -403q0 -314 43 -404
q31 -65 92 -102t140 -37q123 0 193.5 69.5t70.5 194.5q0 17 12 29t29 12h114q15 0 28 -11t13 -26q0 -216 -124.5 -339t-335.5 -123z" />
    <glyph glyph-name="ccircumflex" unicode="&#x109;" horiz-adv-x="991" 
d="M350 1157h-94q-10 0 -18.5 8.5t-8.5 18.5q0 11 9 20l170 226q19 24 61 24h111q42 0 61 -24l170 -226q8 -8 8 -20q0 -11 -8 -19t-18 -8h-95q-39 0 -63 33l-96 127q-8 8 -15 8q-6 0 -14 -8l-96 -127q-24 -33 -64 -33zM526 -20q-190 0 -301 108q-78 70 -103.5 172t-25.5 252
q0 145 26.5 245t98.5 175q53 54 133 83t170 29q163 0 269 -92q53 -48 82.5 -115t29.5 -141q0 -18 -10 -29.5t-25 -11.5h-108q-17 0 -28 9.5t-11 23.5q0 81 -61 129q-52 43 -138 43q-58 0 -107.5 -20t-76.5 -56q-31 -41 -42 -100.5t-11 -171.5q0 -102 10 -164.5t41 -101.5
q63 -82 188 -82q87 0 144 45q55 46 55 125q0 35 39 35h117q30 0 30 -41q0 -80 -32.5 -150t-92.5 -117q-101 -81 -260 -81z" />
    <glyph glyph-name="Cdotaccent" unicode="&#x10a;" horiz-adv-x="1116" 
d="M635 1528h-139q-14 0 -23.5 10t-9.5 23v141q0 12 10 22.5t23 10.5h139q13 0 23 -10.5t10 -22.5v-141q0 -13 -10 -23t-23 -10zM578 -20q-147 0 -253.5 66.5t-158.5 174.5q-41 87 -52.5 202t-11.5 294t11.5 293.5t52.5 201.5q52 109 158.5 175.5t253.5 66.5
q211 0 335.5 -123.5t124.5 -339.5q0 -15 -13 -26t-28 -11h-114q-17 0 -29 12t-12 29q0 125 -71 195t-193 70q-79 0 -140 -37.5t-92 -102.5q-43 -90 -43 -403q0 -314 43 -404q31 -65 92 -102t140 -37q123 0 193.5 69.5t70.5 194.5q0 17 12 29t29 12h114q15 0 28 -11t13 -26
q0 -216 -124.5 -339t-335.5 -123z" />
    <glyph glyph-name="cdotaccent" unicode="&#x10b;" horiz-adv-x="991" 
d="M604 1233h-160q-13 0 -22.5 9.5t-9.5 23.5v155q0 12 9.5 22.5t22.5 10.5h160q13 0 23 -10.5t10 -22.5v-155q0 -14 -9.5 -23.5t-23.5 -9.5zM526 -20q-190 0 -301 108q-78 70 -103.5 172t-25.5 252q0 145 26.5 245t98.5 175q53 54 133 83t170 29q163 0 269 -92
q53 -48 82.5 -115t29.5 -141q0 -18 -10 -29.5t-25 -11.5h-108q-17 0 -28 9.5t-11 23.5q0 81 -61 129q-52 43 -138 43q-58 0 -107.5 -20t-76.5 -56q-31 -41 -42 -100.5t-11 -171.5q0 -102 10 -164.5t41 -101.5q63 -82 188 -82q87 0 144 45q55 46 55 125q0 35 39 35h117
q30 0 30 -41q0 -80 -32.5 -150t-92.5 -117q-101 -81 -260 -81z" />
    <glyph glyph-name="Ccaron" unicode="&#x10c;" horiz-adv-x="1116" 
d="M283 1761h131q13 0 23 -6t30 -26l84 -82q9 -9 14 -9q6 0 15 9l84 82q20 20 30 26t23 6h131q12 0 19 -7.5t7 -18.5q0 -13 -8 -21l-155 -164q-24 -24 -62 -24h-168q-37 0 -61 24l-156 164q-8 8 -8 21q0 11 7.5 18.5t19.5 7.5zM578 -20q-147 0 -253.5 66.5t-158.5 174.5
q-41 87 -52.5 202t-11.5 294t11.5 293.5t52.5 201.5q52 109 158.5 175.5t253.5 66.5q211 0 335.5 -123.5t124.5 -339.5q0 -15 -13 -26t-28 -11h-114q-17 0 -29 12t-12 29q0 125 -71 195t-193 70q-79 0 -140 -37.5t-92 -102.5q-43 -90 -43 -403q0 -314 43 -404
q31 -65 92 -102t140 -37q123 0 193.5 69.5t70.5 194.5q0 17 12 29t29 12h114q15 0 28 -11t13 -26q0 -216 -124.5 -339t-335.5 -123z" />
    <glyph glyph-name="ccaron" unicode="&#x10d;" horiz-adv-x="991" 
d="M698 1454h95q10 0 18 -8t8 -19q0 -12 -8 -20l-170 -225q-20 -25 -61 -25h-111q-41 0 -61 25l-170 225q-9 9 -9 20t8.5 19t18.5 8h94q40 0 64 -33l96 -127q8 -8 14 -8q7 0 15 8l96 127q24 33 63 33zM526 -20q-190 0 -301 108q-78 70 -103.5 172t-25.5 252q0 145 26.5 245
t98.5 175q53 54 133 83t170 29q163 0 269 -92q53 -48 82.5 -115t29.5 -141q0 -18 -10 -29.5t-25 -11.5h-108q-17 0 -28 9.5t-11 23.5q0 81 -61 129q-52 43 -138 43q-58 0 -107.5 -20t-76.5 -56q-31 -41 -42 -100.5t-11 -171.5q0 -102 10 -164.5t41 -101.5q63 -82 188 -82
q87 0 144 45q55 46 55 125q0 35 39 35h117q30 0 30 -41q0 -80 -32.5 -150t-92.5 -117q-101 -81 -260 -81z" />
    <glyph glyph-name="Dcaron" unicode="&#x10e;" horiz-adv-x="1130" 
d="M225 1761h131q14 0 24 -6t30 -26l84 -82q9 -9 14 -9t14 9l84 82q20 20 30 26t23 6h132q12 0 19 -7.5t7 -18.5q0 -13 -8 -21l-156 -164q-24 -24 -61 -24h-168q-38 0 -62 24l-155 164q-8 8 -8 21q0 11 7 18.5t19 7.5zM573 0h-378q-17 0 -29 12t-12 29v1352q0 17 12 29
t29 12h378q136 0 240.5 -63.5t157.5 -172.5q36 -75 46.5 -189.5t10.5 -291.5t-10.5 -291.5t-46.5 -189.5q-53 -109 -157.5 -172.5t-240.5 -63.5zM369 195h204q63 0 122.5 32.5t90.5 91.5q26 49 33.5 148.5t7.5 249.5q0 97 -2 158t-11.5 133t-27.5 106q-31 59 -90.5 92
t-122.5 33h-204q-21 0 -21 -20v-1004q0 -20 21 -20z" />
    <glyph glyph-name="dcaron" unicode="&#x10f;" horiz-adv-x="1044" 
d="M492 -20q-113 0 -200.5 46.5t-131.5 129.5q-64 134 -64 356q0 235 66 358q46 83 128 128.5t185 45.5q59 0 104.5 -16.5t71.5 -32.5t39 -16q20 0 28.5 15t8.5 50v369q0 17 12 29t29 12h102q17 0 29 -12t12 -29v-1372q0 -17 -12 -29t-29 -12h-69q-23 0 -29 14
q-18 43 -41 43q-13 0 -32.5 -12t-40.5 -26.5t-65 -26.5t-101 -12zM1098 1108h-56q-14 0 -24.5 10.5t-9.5 26.5l28 268q2 18 12 29.5t27 11.5h109q19 0 32 -13.5t7 -35.5l-74 -260q-6 -21 -17.5 -29t-33.5 -8zM510 164q140 0 192 94q24 43 30.5 97t6.5 157t-6.5 157t-30.5 97
q-52 94 -192 94q-66 0 -117.5 -24t-75.5 -70q-23 -44 -29.5 -98.5t-6.5 -155.5q0 -105 6 -158t30 -96q52 -94 193 -94z" />
    <glyph glyph-name="Dcroat" unicode="&#x110;" horiz-adv-x="1130" 
d="M971 1198q36 -75 46.5 -189.5t10.5 -291.5t-10.5 -291.5t-46.5 -189.5q-53 -109 -157.5 -172.5t-240.5 -63.5h-378q-17 0 -29 12t-12 29v594h-107q-17 0 -29 12t-12 29v112q0 17 12 29t29 12h107v564q0 17 12 29t29 12h378q136 0 240.5 -63.5t157.5 -172.5zM786 319
q26 49 33.5 148.5t7.5 249.5q0 97 -2 158t-11.5 133t-27.5 106q-31 59 -90.5 92t-122.5 33h-204q-21 0 -21 -20v-390h205q17 0 29 -12t12 -29v-112q0 -17 -12 -29t-29 -12h-205v-420q0 -20 21 -20h204q63 0 122.5 32.5t90.5 91.5z" />
    <glyph glyph-name="dcroat" unicode="&#x111;" horiz-adv-x="1040" 
d="M911 1305h82q20 0 30.5 -13t10.5 -28v-82q0 -17 -12 -29t-29 -12h-82v-1100q0 -17 -12 -29t-29 -12h-69q-23 0 -29 14q-18 43 -41 43q-13 0 -32.5 -12t-40.5 -26.5t-65 -26.5t-101 -12q-113 0 -200.5 46.5t-131.5 129.5q-64 134 -64 356q0 235 66 358q46 83 128 128.5
t185 45.5q59 0 104.5 -16.5t71.5 -32.5t39 -16q20 0 28.5 15t8.5 50v97h-174q-17 0 -29 12t-12 29v82q0 17 12 29t29 12h174v108q0 17 12 29t29 12h102q17 0 29 -12t12 -29v-108zM702 258q24 43 30.5 97t6.5 157t-6.5 157t-30.5 97q-52 94 -192 94q-66 0 -117.5 -24
t-75.5 -70q-23 -44 -29.5 -98.5t-6.5 -155.5q0 -105 6 -158t30 -96q52 -94 193 -94q140 0 192 94z" />
    <glyph glyph-name="Emacron" unicode="&#x112;" horiz-adv-x="993" 
d="M766 1548h-496q-17 0 -29 12t-12 29v78q0 17 12 29t29 12h496q17 0 29 -12t12 -29v-78q0 -17 -12 -29t-29 -12zM860 0h-665q-17 0 -29 12t-12 29v1352q0 17 12 29t29 12h661q17 0 29 -12t12 -29v-113q0 -17 -12 -29t-29 -12h-487q-21 0 -21 -20v-369q0 -9 6 -15t15 -6
h465q17 0 28.5 -12t11.5 -29v-112q0 -17 -11.5 -29t-28.5 -12h-465q-9 0 -15 -6t-6 -15v-399q0 -20 21 -20h491q17 0 29 -12t12 -29v-113q0 -17 -12 -29t-29 -12z" />
    <glyph glyph-name="emacron" unicode="&#x113;" horiz-adv-x="1032" 
d="M764 1233h-496q-17 0 -29 12t-12 29v78q0 17 12 29t29 12h496q17 0 29 -12t12 -29v-78q0 -17 -12 -29t-29 -12zM526 -20q-178 0 -282 94q-77 72 -112.5 177.5t-35.5 260.5q0 284 135 422q110 110 299 110q182 0 289 -104q117 -114 117 -324v-122q0 -17 -12 -29t-29 -12
h-582q-20 0 -20 -21q0 -155 84 -221q56 -47 149 -47q91 0 150 41q47 38 61 88q9 35 47 35h105q19 0 28.5 -11t6.5 -30q-18 -148 -136 -236q-92 -71 -262 -71zM315 610h422q9 0 15 6t6 15q0 118 -68 186q-61 64 -160 64q-104 0 -168 -64q-67 -67 -67 -186q0 -21 20 -21z" />
    <glyph glyph-name="Ebreve" unicode="&#x114;" horiz-adv-x="993" 
d="M518 1516q-132 0 -207 53t-75 147q0 14 10.5 24.5t23.5 10.5h78q31 0 45 -35q26 -65 125 -65t125 65q14 35 45 35h78q14 0 24.5 -10.5t10.5 -24.5q0 -94 -75.5 -147t-207.5 -53zM860 0h-665q-17 0 -29 12t-12 29v1352q0 17 12 29t29 12h661q17 0 29 -12t12 -29v-113
q0 -17 -12 -29t-29 -12h-487q-21 0 -21 -20v-369q0 -9 6 -15t15 -6h465q17 0 28.5 -12t11.5 -29v-112q0 -17 -11.5 -29t-28.5 -12h-465q-9 0 -15 -6t-6 -15v-399q0 -20 21 -20h491q17 0 29 -12t12 -29v-113q0 -17 -12 -29t-29 -12z" />
    <glyph glyph-name="ebreve" unicode="&#x115;" horiz-adv-x="1032" 
d="M516 1157q-122 0 -202.5 75t-80.5 187q0 13 10.5 24t24.5 11h88q15 0 25 -10t10 -25q0 -53 35.5 -88t89.5 -35t88.5 35t34.5 88q0 15 10.5 25t24.5 10h88q14 0 24.5 -11t10.5 -24q0 -112 -80.5 -187t-200.5 -75zM526 -20q-178 0 -282 94q-77 72 -112.5 177.5t-35.5 260.5
q0 284 135 422q110 110 299 110q182 0 289 -104q117 -114 117 -324v-122q0 -17 -12 -29t-29 -12h-582q-20 0 -20 -21q0 -155 84 -221q56 -47 149 -47q91 0 150 41q47 38 61 88q9 35 47 35h105q19 0 28.5 -11t6.5 -30q-18 -148 -136 -236q-92 -71 -262 -71zM315 610h422
q9 0 15 6t6 15q0 118 -68 186q-61 64 -160 64q-104 0 -168 -64q-67 -67 -67 -186q0 -21 20 -21z" />
    <glyph glyph-name="Edotaccent" unicode="&#x116;" horiz-adv-x="993" 
d="M588 1528h-139q-13 0 -23 10t-10 23v141q0 12 10 22.5t23 10.5h139q13 0 23 -10.5t10 -22.5v-141q0 -13 -9.5 -23t-23.5 -10zM860 0h-665q-17 0 -29 12t-12 29v1352q0 17 12 29t29 12h661q17 0 29 -12t12 -29v-113q0 -17 -12 -29t-29 -12h-487q-21 0 -21 -20v-369
q0 -9 6 -15t15 -6h465q17 0 28.5 -12t11.5 -29v-112q0 -17 -11.5 -29t-28.5 -12h-465q-9 0 -15 -6t-6 -15v-399q0 -20 21 -20h491q17 0 29 -12t12 -29v-113q0 -17 -12 -29t-29 -12z" />
    <glyph glyph-name="edotaccent" unicode="&#x117;" horiz-adv-x="1032" 
d="M596 1233h-160q-14 0 -23.5 9.5t-9.5 23.5v155q0 12 10 22.5t23 10.5h160q13 0 23 -10.5t10 -22.5v-155q0 -14 -9.5 -23.5t-23.5 -9.5zM526 -20q-178 0 -282 94q-77 72 -112.5 177.5t-35.5 260.5q0 284 135 422q110 110 299 110q182 0 289 -104q117 -114 117 -324v-122
q0 -17 -12 -29t-29 -12h-582q-20 0 -20 -21q0 -155 84 -221q56 -47 149 -47q91 0 150 41q47 38 61 88q9 35 47 35h105q19 0 28.5 -11t6.5 -30q-18 -148 -136 -236q-92 -71 -262 -71zM315 610h422q9 0 15 6t6 15q0 118 -68 186q-61 64 -160 64q-104 0 -168 -64
q-67 -67 -67 -186q0 -21 20 -21z" />
    <glyph glyph-name="Eogonek" unicode="&#x118;" horiz-adv-x="993" 
d="M860 0h-37q-61 -36 -92 -76.5t-31 -95.5q0 -63 36.5 -83.5t123.5 -20.5q17 0 29 -12t12 -29v-72q0 -17 -12 -29t-29 -12q-330 0 -330 248q0 100 62 182h-397q-17 0 -29 12t-12 29v1352q0 17 12 29t29 12h661q17 0 29 -12t12 -29v-113q0 -17 -12 -29t-29 -12h-487
q-21 0 -21 -20v-369q0 -9 6 -15t15 -6h465q17 0 28.5 -12t11.5 -29v-112q0 -17 -11.5 -29t-28.5 -12h-465q-9 0 -15 -6t-6 -15v-399q0 -20 21 -20h491q17 0 29 -12t12 -29v-113q0 -17 -12 -29t-29 -12z" />
    <glyph glyph-name="eogonek" unicode="&#x119;" horiz-adv-x="1032" 
d="M895 453h-582q-20 0 -20 -21q0 -155 84 -221q56 -47 149 -47q91 0 150 41q47 38 61 88q9 35 47 35h105q19 0 28.5 -11t6.5 -30q-18 -148 -136 -236q-50 -38 -126 -57q-37 -10 -60.5 -19t-46.5 -24.5t-34 -38t-11 -53.5q0 -135 166 -135q17 0 29 -12t12 -29v-72
q0 -17 -12 -29t-29 -12q-152 0 -244 72t-92 206q0 85 43 150q-80 23 -139 76q-77 72 -112.5 177.5t-35.5 260.5q0 284 135 422q110 110 299 110q182 0 289 -104q117 -114 117 -324v-122q0 -17 -12 -29t-29 -12zM362 817q-67 -67 -67 -186q0 -21 20 -21h422q9 0 15 6t6 15
q0 118 -68 186q-61 64 -160 64q-104 0 -168 -64z" />
    <glyph glyph-name="Ecaron" unicode="&#x11a;" horiz-adv-x="993" 
d="M236 1761h131q13 0 23 -6t30 -26l84 -82q9 -9 14 -9t14 9l84 82q20 20 30 26t24 6h131q12 0 19 -7.5t7 -18.5q0 -13 -8 -21l-155 -164q-24 -24 -62 -24h-168q-37 0 -61 24l-156 164q-8 8 -8 21q0 11 7.5 18.5t19.5 7.5zM860 0h-665q-17 0 -29 12t-12 29v1352q0 17 12 29
t29 12h661q17 0 29 -12t12 -29v-113q0 -17 -12 -29t-29 -12h-487q-21 0 -21 -20v-369q0 -9 6 -15t15 -6h465q17 0 28.5 -12t11.5 -29v-112q0 -17 -11.5 -29t-28.5 -12h-465q-9 0 -15 -6t-6 -15v-399q0 -20 21 -20h491q17 0 29 -12t12 -29v-113q0 -17 -12 -29t-29 -12z" />
    <glyph glyph-name="ecaron" unicode="&#x11b;" horiz-adv-x="1032" 
d="M690 1454h94q10 0 18.5 -8t8.5 -19q0 -12 -8 -20l-170 -225q-20 -25 -62 -25h-110q-42 0 -62 25l-170 225q-8 8 -8 20q0 11 8.5 19t18.5 8h94q40 0 64 -33l96 -127q8 -8 14 -8t14 8l97 127q24 33 63 33zM526 -20q-178 0 -282 94q-77 72 -112.5 177.5t-35.5 260.5
q0 284 135 422q110 110 299 110q182 0 289 -104q117 -114 117 -324v-122q0 -17 -12 -29t-29 -12h-582q-20 0 -20 -21q0 -155 84 -221q56 -47 149 -47q91 0 150 41q47 38 61 88q9 35 47 35h105q19 0 28.5 -11t6.5 -30q-18 -148 -136 -236q-92 -71 -262 -71zM315 610h422
q9 0 15 6t6 15q0 118 -68 186q-61 64 -160 64q-104 0 -168 -64q-67 -67 -67 -186q0 -21 20 -21z" />
    <glyph glyph-name="Gcircumflex" unicode="&#x11c;" horiz-adv-x="1140" 
d="M430 1526h-131q-12 0 -19.5 7.5t-7.5 18.5q0 12 9 21l155 164q24 24 62 24h168q37 0 61 -24l156 -164q8 -8 8 -21q0 -11 -7.5 -18.5t-19.5 -7.5h-131q-13 0 -22.5 6t-30.5 27l-84 81q-9 9 -14 9q-6 0 -15 -9l-84 -81q-21 -21 -30.5 -27t-22.5 -6zM590 -20q-152 0 -261 66
t-163 175q-41 87 -52.5 202t-11.5 294t11.5 293.5t52.5 201.5q54 109 163 175.5t259 66.5q206 0 328 -113t122 -309q0 -15 -13 -26t-28 -11h-114q-17 0 -29 12t-12 29q0 105 -68 164.5t-186 59.5q-82 0 -145.5 -37.5t-96.5 -102.5q-43 -90 -43 -403q0 -314 43 -404
q33 -65 96.5 -102t147.5 -37q118 0 185 69.5t67 196.5v125q0 9 -6 15t-15 6h-184q-17 0 -29 12t-12 29v112q0 17 12 29t29 12h360q17 0 29 -12t12 -29v-299q0 -211 -126.5 -335.5t-321.5 -124.5z" />
    <glyph glyph-name="gcircumflex" unicode="&#x11d;" horiz-adv-x="1044" 
d="M348 1157h-94q-10 0 -18.5 8.5t-8.5 18.5q0 11 9 20l170 226q19 24 61 24h111q42 0 61 -24l170 -226q8 -8 8 -20q0 -11 -8 -19t-18 -8h-95q-39 0 -63 33l-96 127q-8 8 -15 8q-6 0 -14 -8l-96 -127q-24 -33 -64 -33zM727 -61v61q0 35 -8.5 50.5t-28.5 15.5
q-13 0 -39 -16.5t-71.5 -33t-104.5 -16.5q-103 0 -186 46t-127 128q-66 115 -66 348q0 215 64 346q40 83 128 129.5t204 46.5q73 0 122.5 -19.5t75.5 -38.5t41 -19q23 0 41 43q6 14 29 14h69q17 0 29 -12t12 -29v-1044q0 -155 -108.5 -262t-265.5 -107q-151 0 -252.5 76.5
t-120.5 203.5q-6 48 37 48h98q27 0 37.5 -10t15.5 -31q26 -103 185 -103q81 0 135.5 53.5t54.5 131.5zM510 860q-140 0 -193 -94q-24 -42 -30 -92.5t-6 -151.5q0 -99 6 -147.5t30 -95.5q24 -46 75.5 -70.5t117.5 -24.5t117 24.5t75 70.5q24 47 30.5 96.5t6.5 146.5
q0 99 -6.5 150.5t-30.5 93.5q-26 45 -76.5 69.5t-115.5 24.5z" />
    <glyph glyph-name="Gbreve" unicode="&#x11e;" horiz-adv-x="1140" 
d="M582 1516q-132 0 -207.5 53t-75.5 147q0 14 10.5 24.5t24.5 10.5h78q31 0 45 -35q26 -65 125 -65t125 65q14 35 45 35h77q13 0 24 -10.5t11 -24.5q0 -94 -75 -147t-207 -53zM590 -20q-152 0 -261 66t-163 175q-41 87 -52.5 202t-11.5 294t11.5 293.5t52.5 201.5
q54 109 163 175.5t259 66.5q206 0 328 -113t122 -309q0 -15 -13 -26t-28 -11h-114q-17 0 -29 12t-12 29q0 105 -68 164.5t-186 59.5q-82 0 -145.5 -37.5t-96.5 -102.5q-43 -90 -43 -403q0 -314 43 -404q33 -65 96.5 -102t147.5 -37q118 0 185 69.5t67 196.5v125q0 9 -6 15
t-15 6h-184q-17 0 -29 12t-12 29v112q0 17 12 29t29 12h360q17 0 29 -12t12 -29v-299q0 -211 -126.5 -335.5t-321.5 -124.5z" />
    <glyph glyph-name="gbreve" unicode="&#x11f;" horiz-adv-x="1044" 
d="M522 1157q-121 0 -201.5 74.5t-80.5 187.5q0 14 10.5 24.5t23.5 10.5h88q15 0 25 -10t10 -25q0 -53 35.5 -88t89.5 -35t88.5 35t34.5 88q0 15 10.5 25t24.5 10h88q14 0 24.5 -11t10.5 -24q0 -112 -80.5 -187t-200.5 -75zM727 -61v61q0 35 -8.5 50.5t-28.5 15.5
q-13 0 -39 -16.5t-71.5 -33t-104.5 -16.5q-103 0 -186 46t-127 128q-66 115 -66 348q0 215 64 346q40 83 128 129.5t204 46.5q73 0 122.5 -19.5t75.5 -38.5t41 -19q23 0 41 43q6 14 29 14h69q17 0 29 -12t12 -29v-1044q0 -155 -108.5 -262t-265.5 -107q-151 0 -252.5 76.5
t-120.5 203.5q-6 48 37 48h98q27 0 37.5 -10t15.5 -31q26 -103 185 -103q81 0 135.5 53.5t54.5 131.5zM510 860q-140 0 -193 -94q-24 -42 -30 -92.5t-6 -151.5q0 -99 6 -147.5t30 -95.5q24 -46 75.5 -70.5t117.5 -24.5t117 24.5t75 70.5q24 47 30.5 96.5t6.5 146.5
q0 99 -6.5 150.5t-30.5 93.5q-26 45 -76.5 69.5t-115.5 24.5z" />
    <glyph glyph-name="Gdotaccent" unicode="&#x120;" horiz-adv-x="1140" 
d="M651 1528h-139q-14 0 -23.5 10t-9.5 23v141q0 12 10 22.5t23 10.5h139q13 0 23 -10.5t10 -22.5v-141q0 -13 -10 -23t-23 -10zM590 -20q-152 0 -261 66t-163 175q-41 87 -52.5 202t-11.5 294t11.5 293.5t52.5 201.5q54 109 163 175.5t259 66.5q206 0 328 -113t122 -309
q0 -15 -13 -26t-28 -11h-114q-17 0 -29 12t-12 29q0 105 -68 164.5t-186 59.5q-82 0 -145.5 -37.5t-96.5 -102.5q-43 -90 -43 -403q0 -314 43 -404q33 -65 96.5 -102t147.5 -37q118 0 185 69.5t67 196.5v125q0 9 -6 15t-15 6h-184q-17 0 -29 12t-12 29v112q0 17 12 29t29 12
h360q17 0 29 -12t12 -29v-299q0 -211 -126.5 -335.5t-321.5 -124.5z" />
    <glyph glyph-name="gdotaccent" unicode="&#x121;" horiz-adv-x="1044" 
d="M602 1233h-160q-13 0 -22.5 9.5t-9.5 23.5v155q0 12 9.5 22.5t22.5 10.5h160q13 0 23 -10.5t10 -22.5v-155q0 -14 -9.5 -23.5t-23.5 -9.5zM727 -61v61q0 35 -8.5 50.5t-28.5 15.5q-13 0 -39 -16.5t-71.5 -33t-104.5 -16.5q-103 0 -186 46t-127 128q-66 115 -66 348
q0 215 64 346q40 83 128 129.5t204 46.5q73 0 122.5 -19.5t75.5 -38.5t41 -19q23 0 41 43q6 14 29 14h69q17 0 29 -12t12 -29v-1044q0 -155 -108.5 -262t-265.5 -107q-151 0 -252.5 76.5t-120.5 203.5q-6 48 37 48h98q27 0 37.5 -10t15.5 -31q26 -103 185 -103
q81 0 135.5 53.5t54.5 131.5zM510 860q-140 0 -193 -94q-24 -42 -30 -92.5t-6 -151.5q0 -99 6 -147.5t30 -95.5q24 -46 75.5 -70.5t117.5 -24.5t117 24.5t75 70.5q24 47 30.5 96.5t6.5 146.5q0 99 -6.5 150.5t-30.5 93.5q-26 45 -76.5 69.5t-115.5 24.5z" />
    <glyph glyph-name="uni0122" unicode="&#x122;" horiz-adv-x="1140" 
d="M590 -20q-152 0 -261 66t-163 175q-41 87 -52.5 202t-11.5 294t11.5 293.5t52.5 201.5q54 109 163 175.5t259 66.5q206 0 328 -113t122 -309q0 -15 -13 -26t-28 -11h-114q-17 0 -29 12t-12 29q0 105 -68 164.5t-186 59.5q-82 0 -145.5 -37.5t-96.5 -102.5
q-43 -90 -43 -403q0 -314 43 -404q33 -65 96.5 -102t147.5 -37q118 0 185 69.5t67 196.5v125q0 9 -6 15t-15 6h-184q-17 0 -29 12t-12 29v112q0 17 12 29t29 12h360q17 0 29 -12t12 -29v-299q0 -211 -126.5 -335.5t-321.5 -124.5zM557 -430h-33q-17 0 -27 8.5t-10 20.5
q0 17 15 39l41 57q8 11 0 18.5t-19 7.5h-14q-17 0 -29 12t-12 29v105q0 17 12 29t29 12h143q17 0 29 -12t12 -29v-105q0 -75 -41 -116l-43 -45l-8 -9q-7 -8 -11 -11t-13.5 -7t-20.5 -4z" />
    <glyph glyph-name="uni0123" unicode="&#x123;" horiz-adv-x="1044" 
d="M573 1526h33q17 0 27 -8.5t10 -20.5q0 -18 -14 -39l-41 -57q-8 -11 -0.5 -19t18.5 -8h15q17 0 29 -12t12 -29v-104q0 -17 -12 -29t-29 -12h-144q-17 0 -29 12t-12 29v104q0 76 41 117l43 45l8 9q7 8 11 11t13.5 7t20.5 4zM727 -61v61q0 35 -8.5 50.5t-28.5 15.5
q-13 0 -39 -16.5t-71.5 -33t-104.5 -16.5q-103 0 -186 46t-127 128q-66 115 -66 348q0 215 64 346q40 83 128 129.5t204 46.5q73 0 122.5 -19.5t75.5 -38.5t41 -19q23 0 41 43q6 14 29 14h69q17 0 29 -12t12 -29v-1044q0 -155 -108.5 -262t-265.5 -107q-151 0 -252.5 76.5
t-120.5 203.5q-6 48 37 48h98q27 0 37.5 -10t15.5 -31q26 -103 185 -103q81 0 135.5 53.5t54.5 131.5zM510 860q-140 0 -193 -94q-24 -42 -30 -92.5t-6 -151.5q0 -99 6 -147.5t30 -95.5q24 -46 75.5 -70.5t117.5 -24.5t117 24.5t75 70.5q24 47 30.5 96.5t6.5 146.5
q0 99 -6.5 150.5t-30.5 93.5q-26 45 -76.5 69.5t-115.5 24.5z" />
    <glyph glyph-name="Hcircumflex" unicode="&#x124;" horiz-adv-x="1167" 
d="M432 1526h-131q-12 0 -19.5 7.5t-7.5 18.5q0 12 9 21l155 164q24 24 62 24h168q37 0 61 -24l156 -164q8 -8 8 -21q0 -11 -7.5 -18.5t-19.5 -7.5h-131q-13 0 -22.5 6t-30.5 27l-84 81q-9 9 -14 9q-6 0 -15 -9l-84 -81q-21 -21 -30.5 -27t-22.5 -6zM307 0h-112
q-17 0 -29 12t-12 29v1352q0 17 12 29t29 12h112q17 0 29 -12t12 -29v-543q0 -9 6 -15t15 -6h430q20 0 20 21v543q0 17 12 29t29 12h113q17 0 29 -12t12 -29v-1352q0 -17 -12 -29t-29 -12h-113q-17 0 -29 12t-12 29v573q0 21 -20 21h-430q-9 0 -15 -6t-6 -15v-573
q0 -17 -12 -29t-29 -12z" />
    <glyph glyph-name="hcircumflex" unicode="&#x125;" horiz-adv-x="1075" 
d="M74 1526h-131q-12 0 -19.5 7.5t-7.5 18.5q0 13 8 21l156 164q24 24 61 24h168q38 0 62 -24l155 -164q9 -9 9 -21q0 -11 -7.5 -18.5t-19.5 -7.5h-131q-13 0 -22.5 6t-30.5 27l-84 81q-9 9 -15 9q-5 0 -14 -9l-84 -81q-21 -21 -30.5 -27t-22.5 -6zM276 0h-102q-17 0 -29 12
t-12 29v1372q0 17 12 29t29 12h102q17 0 29 -12t12 -29v-377q0 -65 41 -65q13 0 31 11.5t38 25t66 25t107 11.5q164 0 258 -100t94 -266v-637q0 -17 -12 -29t-29 -12h-102q-17 0 -29 12t-12 29v571q0 116 -58 182t-167 66q-98 0 -162 -64.5t-64 -172.5v-582q0 -17 -12 -29
t-29 -12z" />
    <glyph glyph-name="Hbar" unicode="&#x126;" horiz-adv-x="1167" 
d="M860 1434h113q17 0 29 -12t12 -29v-1352q0 -17 -12 -29t-29 -12h-113q-17 0 -29 12t-12 29v573q0 21 -20 21h-430q-9 0 -15 -6t-6 -15v-573q0 -17 -12 -29t-29 -12h-112q-17 0 -29 12t-12 29v1352q0 17 12 29t29 12h112q17 0 29 -12t12 -29v-164q0 -9 6 -15t15 -6h430
q20 0 20 21v164q0 17 12 29t29 12zM819 850v164q0 20 -20 20h-430q-21 0 -21 -20v-164q0 -9 6 -15t15 -6h430q20 0 20 21z" />
    <glyph glyph-name="hbar" unicode="&#x127;" horiz-adv-x="1075" 
d="M600 1044q164 0 258 -100t94 -266v-637q0 -17 -12 -29t-29 -12h-102q-17 0 -29 12t-12 29v571q0 116 -58 182t-167 66q-98 0 -162 -64.5t-64 -172.5v-582q0 -17 -12 -29t-29 -12h-102q-17 0 -29 12t-12 29v1100h-104q-17 0 -29 12t-12 29v82q0 17 12 29t29 12h104v108
q0 17 12 29t29 12h102q17 0 29 -12t12 -29v-108h152q17 0 29 -12t12 -29v-82q0 -17 -12 -29t-29 -12h-152v-105q0 -65 41 -65q13 0 31 11.5t38 25t66 25t107 11.5z" />
    <glyph glyph-name="Itilde" unicode="&#x128;" horiz-adv-x="501" 
d="M381 1536q-45 0 -111 25l-41 18q-56 25 -92 25q-38 0 -41 -35q-2 -12 -12 -19.5t-25 -7.5h-57q-17 0 -28 11t-11 28q0 84 44 122t118 38q45 0 111 -25l40 -18q56 -25 93 -25q38 0 41 35q3 27 36 27h58q17 0 28 -11t11 -28q0 -83 -44.5 -121.5t-117.5 -38.5zM307 0h-112
q-17 0 -29 12t-12 29v1352q0 17 12 29t29 12h112q17 0 29 -12t12 -29v-1352q0 -17 -12 -29t-29 -12z" />
    <glyph glyph-name="itilde" unicode="&#x129;" horiz-adv-x="454" 
d="M326 1239q-42 0 -86 27l-29 18q-43 27 -57 27q-33 0 -33 -37q-3 -29 -31 -29h-65q-12 0 -21.5 12t-9.5 29q0 88 35 128t94 40q47 0 86 -27l35 -24q34 -21 51 -21q32 0 35 37q0 29 28 29h66q12 0 21.5 -12t9.5 -29q0 -168 -129 -168zM281 0h-107q-17 0 -29 12t-12 29v942
q0 17 12 29t29 12h107q17 0 29 -12t12 -29v-942q0 -17 -12 -29t-29 -12z" />
    <glyph glyph-name="Imacron" unicode="&#x12a;" horiz-adv-x="501" 
d="M500 1548h-496q-17 0 -29 12t-12 29v78q0 17 12 29t29 12h496q17 0 29 -12t12 -29v-78q0 -17 -12 -29t-29 -12zM307 0h-112q-17 0 -29 12t-12 29v1352q0 17 12 29t29 12h112q17 0 29 -12t12 -29v-1352q0 -17 -12 -29t-29 -12z" />
    <glyph glyph-name="imacron" unicode="&#x12b;" horiz-adv-x="454" 
d="M393 1274h-332q-17 0 -29 12t-12 29v78q0 17 12 29t29 12h332q17 0 29 -12t12 -29v-78q0 -17 -12 -29t-29 -12zM281 0h-107q-17 0 -29 12t-12 29v942q0 17 12 29t29 12h107q17 0 29 -12t12 -29v-942q0 -17 -12 -29t-29 -12z" />
    <glyph glyph-name="Ibreve" unicode="&#x12c;" horiz-adv-x="501" 
d="M252 1516q-132 0 -207.5 53t-75.5 147q0 14 10.5 24.5t24.5 10.5h78q31 0 45 -35q26 -65 125 -65t125 65q14 35 45 35h78q14 0 24.5 -10.5t10.5 -24.5q0 -94 -75.5 -147t-207.5 -53zM307 0h-112q-17 0 -29 12t-12 29v1352q0 17 12 29t29 12h112q17 0 29 -12t12 -29v-1352
q0 -17 -12 -29t-29 -12z" />
    <glyph glyph-name="ibreve" unicode="&#x12d;" horiz-adv-x="454" 
d="M227 1157q-116 0 -178.5 72.5t-62.5 189.5q0 14 10.5 24.5t23.5 10.5h89q15 0 24.5 -10t9.5 -25q0 -56 17.5 -85t66.5 -29q47 0 64.5 29t17.5 85q0 15 10.5 25t24.5 10h88q14 0 24.5 -11t10.5 -24q0 -117 -62.5 -189.5t-177.5 -72.5zM281 0h-107q-17 0 -29 12t-12 29v942
q0 17 12 29t29 12h107q17 0 29 -12t12 -29v-942q0 -17 -12 -29t-29 -12z" />
    <glyph glyph-name="Iogonek" unicode="&#x12e;" horiz-adv-x="501" 
d="M307 0h-65q-95 -66 -95 -154q0 -63 36.5 -83.5t123.5 -20.5q17 0 29 -12t12 -29v-72q0 -17 -12 -29t-29 -12q-330 0 -330 248q0 169 177 285v1272q0 17 12 29t29 12h112q17 0 29 -12t12 -29v-1352q0 -17 -12 -29t-29 -12z" />
    <glyph glyph-name="iogonek" unicode="&#x12f;" horiz-adv-x="454" 
d="M147 1454h160q13 0 23 -10.5t10 -22.5v-155q0 -14 -10 -23.5t-23 -9.5h-160q-13 0 -22.5 9.5t-9.5 23.5v155q0 12 9.5 22.5t22.5 10.5zM174 1024h107q17 0 29 -12t12 -29v-942q0 -17 -12 -29t-29 -12h-37q-61 -36 -92 -76.5t-31 -95.5q0 -63 36.5 -83.5t123.5 -20.5
q17 0 29 -12t12 -29v-72q0 -17 -12 -29t-29 -12q-330 0 -330 248q0 175 182 286v879q0 17 12 29t29 12z" />
    <glyph glyph-name="Idotaccent" unicode="&#x130;" horiz-adv-x="501" 
d="M322 1528h-140q-13 0 -22.5 9.5t-9.5 23.5v141q0 12 9.5 22.5t22.5 10.5h140q13 0 22.5 -10.5t9.5 -22.5v-141q0 -14 -9.5 -23.5t-22.5 -9.5zM307 0h-112q-17 0 -29 12t-12 29v1352q0 17 12 29t29 12h112q17 0 29 -12t12 -29v-1352q0 -17 -12 -29t-29 -12z" />
    <glyph glyph-name="dotlessi" unicode="&#x131;" horiz-adv-x="454" 
d="M281 0h-107q-17 0 -29 12t-12 29v942q0 17 12 29t29 12h107q17 0 29 -12t12 -29v-942q0 -17 -12 -29t-29 -12z" />
    <glyph glyph-name="IJ" unicode="&#x132;" horiz-adv-x="1054" 
d="M307 0h-112q-17 0 -29 12t-12 29v1352q0 17 12 29t29 12h112q17 0 29 -12t12 -29v-1352q0 -17 -12 -29t-29 -12zM524 174q95 0 144 65t49 191v963q0 17 12 29t29 12h112q17 0 29 -12t12 -29v-983q0 -203 -102 -316.5t-285 -113.5q-17 0 -29 11.5t-12 28.5v113q0 17 12 29
t29 12z" />
    <glyph glyph-name="ij" unicode="&#x133;" horiz-adv-x="950" 
d="M307 1233h-160q-13 0 -22.5 9.5t-9.5 23.5v155q0 12 9.5 22.5t22.5 10.5h160q13 0 23 -10.5t10 -22.5v-155q0 -14 -10 -23.5t-23 -9.5zM799 1233h-160q-13 0 -23 9.5t-10 23.5v155q0 12 10 22.5t23 10.5h160q13 0 22.5 -10.5t9.5 -22.5v-155q0 -14 -9.5 -23.5t-22.5 -9.5
zM281 0h-107q-17 0 -29 12t-12 29v942q0 17 12 29t29 12h107q17 0 29 -12t12 -29v-942q0 -17 -12 -29t-29 -12zM442 -430h-106q-17 0 -29 12t-12 29v102q0 17 12 29t29 12h106q78 0 131.5 51.5t53.5 133.5v1044q0 17 12 29t29 12h108q17 0 29 -12t12 -29v-1044
q0 -152 -107.5 -260.5t-267.5 -108.5z" />
    <glyph glyph-name="Jcircumflex" unicode="&#x134;" horiz-adv-x="962" 
d="M567 1526h-131q-12 0 -19 7.5t-7 18.5q0 13 8 21l155 164q24 24 62 24h168q37 0 61 -24l156 -164q8 -8 8 -21q0 -11 -7.5 -18.5t-19.5 -7.5h-131q-13 0 -22.5 6t-30.5 27l-84 81q-9 9 -14 9t-14 -9l-84 -81q-21 -21 -31 -27t-23 -6zM432 -20q-178 0 -284.5 113.5
t-106.5 295.5v49q0 17 12 29t29 12h113q17 0 29 -12t12 -29v-49q0 -97 54.5 -156t141.5 -59q95 0 144 65t49 191v963q0 17 12 29t29 12h112q17 0 29 -12t12 -29v-983q0 -200 -100.5 -315t-286.5 -115z" />
    <glyph glyph-name="jcircumflex" unicode="&#x135;" horiz-adv-x="495" 
d="M119 1157h-115q-12 0 -19.5 8t-7.5 19t9 20l176 226q17 24 61 24h86q43 0 60 -24l176 -226q8 -8 8 -20q0 -11 -7.5 -19t-19.5 -8h-114q-40 0 -64 33l-69 100q-5 8 -15 8t-14 -8l-68 -100q-24 -33 -63 -33zM-12 -430h-107q-17 0 -29 12t-12 29v102q0 17 12 29t29 12h107
q78 0 131 51.5t53 133.5v1044q0 17 12 29t29 12h109q17 0 28.5 -12t11.5 -29v-1044q0 -152 -107 -260.5t-267 -108.5z" />
    <glyph glyph-name="uni0136" unicode="&#x136;" horiz-adv-x="1044" 
d="M307 0h-112q-17 0 -29 12t-12 29v1352q0 17 12 29t29 12h112q17 0 29 -12t12 -29v-535q0 -16 10 -16q12 0 33 30l410 541q16 21 45 21h117q28 0 37.5 -25.5t-7.5 -48.5l-450 -596q-11 -15 -11 -27q0 -10 9 -22l450 -623q27 -38 21 -65t-39 -27h-135q-30 0 -52 29
l-403 567q-15 20 -25 20t-10 -18v-557q0 -17 -12 -29t-29 -12zM508 -430h-33q-17 0 -27 8.5t-10 20.5q0 17 15 39l41 57q8 11 0 18.5t-19 7.5h-14q-17 0 -29 12t-12 29v105q0 17 12 29t29 12h143q17 0 29 -12t12 -29v-105q0 -75 -41 -116l-43 -45l-7 -9q-8 -8 -12 -11
t-13.5 -7t-20.5 -4z" />
    <glyph glyph-name="uni0137" unicode="&#x137;" horiz-adv-x="927" 
d="M492 512l393 -440q14 -14 14 -31q0 -18 -11.5 -29.5t-31.5 -11.5h-131q-27 0 -59 37l-322 366q-11 11 -16 11q-11 0 -11 -15v-358q0 -17 -12 -29t-29 -12h-102q-17 0 -29 12t-12 29v1372q0 17 12 29t29 12h102q17 0 29 -12t12 -29v-758q0 -14 11 -14q6 0 16 10l328 342
q31 31 51 31h121q20 0 31.5 -12.5t11.5 -28.5t-15 -31l-380 -391q-22 -25 0 -49zM399 -92h144q17 0 29 -12t12 -29v-105q0 -75 -41 -116l-43 -45q-1 -1 -6 -6.5t-8.5 -9t-9.5 -7.5t-13.5 -6t-16.5 -2h-32q-17 0 -27 8.5t-10 20.5q0 18 14 39l41 57q8 11 0.5 18.5t-18.5 7.5
h-15q-17 0 -29 12t-12 29v105q0 17 12 29t29 12z" />
    <glyph glyph-name="kgreenlandic" unicode="&#x138;" horiz-adv-x="915" 
d="M475 512l397 -440q15 -15 15 -31q0 -18 -11.5 -29.5t-31.5 -11.5h-131q-29 0 -54 31l-315 362q-10 10 -16 10q-11 0 -11 -14v-348q0 -17 -12 -29t-29 -12h-102q-17 0 -29 12t-12 29v942q0 17 12 29t29 12h102q17 0 29 -12t12 -29v-317q0 -15 11 -15q5 0 16 11l320 335
q22 27 51 27h116q20 0 31.5 -12.5t11.5 -28.5q0 -17 -14 -31l-385 -391q-22 -25 0 -49z" />
    <glyph glyph-name="Lacute" unicode="&#x139;" horiz-adv-x="899" 
d="M299 1526h-82q-13 0 -22 8t-9 20q0 8 9 21l108 154q20 32 53 32h121q12 0 19.5 -7.5t7.5 -18.5q0 -13 -8 -21l-136 -164q-20 -24 -61 -24zM827 0h-632q-17 0 -29 12t-12 29v1352q0 17 12 29t29 12h112q17 0 29 -12t12 -29v-1178q0 -20 21 -20h458q17 0 29 -12t12 -29
v-113q0 -17 -12 -29t-29 -12z" />
    <glyph glyph-name="lacute" unicode="&#x13a;" horiz-adv-x="450" 
d="M268 1526h-82q-13 0 -21.5 8t-8.5 20q0 9 8 21l108 154q20 32 54 32h120q12 0 19.5 -7.5t7.5 -18.5q0 -13 -8 -21l-135 -164q-20 -24 -62 -24zM276 0h-102q-17 0 -29 12t-12 29v1372q0 17 12 29t29 12h102q17 0 29 -12t12 -29v-1372q0 -17 -12 -29t-29 -12z" />
    <glyph glyph-name="uni013B" unicode="&#x13b;" horiz-adv-x="899" 
d="M827 0h-632q-17 0 -29 12t-12 29v1352q0 17 12 29t29 12h112q17 0 29 -12t12 -29v-1178q0 -20 21 -20h458q17 0 29 -12t12 -29v-113q0 -17 -12 -29t-29 -12zM471 -430h-33q-17 0 -27 8.5t-10 20.5q0 17 15 39l41 57q8 11 0 18.5t-19 7.5h-14q-17 0 -29 12t-12 29v105
q0 17 12 29t29 12h143q17 0 29 -12t12 -29v-105q0 -75 -41 -116l-43 -45l-8 -9q-7 -8 -11 -11t-13.5 -7t-20.5 -4z" />
    <glyph glyph-name="uni013C" unicode="&#x13c;" horiz-adv-x="450" 
d="M276 0h-102q-17 0 -29 12t-12 29v1372q0 17 12 29t29 12h102q17 0 29 -12t12 -29v-1372q0 -17 -12 -29t-29 -12zM201 -430h-33q-17 0 -27 8.5t-10 20.5q0 18 14 39l41 57q8 11 0.5 18.5t-18.5 7.5h-14q-17 0 -29 12t-12 29v105q0 17 12 29t29 12h143q17 0 29 -12t12 -29
v-105q0 -75 -41 -116l-43 -45l-8 -9q-7 -8 -11 -11t-13.5 -7t-20.5 -4z" />
    <glyph glyph-name="Lcaron" unicode="&#x13d;" horiz-adv-x="899" 
d="M827 0h-632q-17 0 -29 12t-12 29v1352q0 17 12 29t29 12h112q17 0 29 -12t12 -29v-1178q0 -20 21 -20h458q17 0 29 -12t12 -29v-113q0 -17 -12 -29t-29 -12zM541 1087h-56q-14 0 -24.5 10.5t-9.5 26.5l28 269q2 18 12 29.5t27 11.5h109q19 0 32 -14t7 -36l-74 -260
q-6 -21 -17.5 -29t-33.5 -8z" />
    <glyph glyph-name="lcaron" unicode="&#x13e;" horiz-adv-x="450" 
d="M276 0h-102q-17 0 -29 12t-12 29v1372q0 17 12 29t29 12h102q17 0 29 -12t12 -29v-1372q0 -17 -12 -29t-29 -12zM510 1108h-55q-15 0 -25.5 10.5t-9.5 26.5l29 268q4 41 38 41h109q19 0 32 -13.5t7 -35.5l-74 -260q-6 -21 -17.5 -29t-33.5 -8z" />
    <glyph glyph-name="Ldot" unicode="&#x13f;" horiz-adv-x="899" 
d="M827 0h-632q-17 0 -29 12t-12 29v1352q0 17 12 29t29 12h112q17 0 29 -12t12 -29v-1178q0 -20 21 -20h458q17 0 29 -12t12 -29v-113q0 -17 -12 -29t-29 -12zM807 635h-184q-17 0 -29 12t-12 29v184q0 17 12 29t29 12h184q17 0 29 -12t12 -29v-184q0 -17 -12 -29t-29 -12z
" />
    <glyph glyph-name="ldot" unicode="&#x140;" horiz-adv-x="573" 
d="M276 0h-102q-17 0 -29 12t-12 29v1372q0 17 12 29t29 12h102q17 0 29 -12t12 -29v-1372q0 -17 -12 -29t-29 -12zM604 614h-184q-17 0 -29 12t-12 29v185q0 17 12 29t29 12h184q17 0 29 -12t12 -29v-185q0 -17 -12 -29t-29 -12z" />
    <glyph glyph-name="Lslash" unicode="&#x141;" horiz-adv-x="899" 
d="M369 195h458q17 0 29 -12t12 -29v-113q0 -17 -12 -29t-29 -12h-632q-17 0 -29 12t-12 29v424l-72 -51q-15 -12 -36 -3t-21 31v99q0 15 1 21.5t7.5 16.5t21.5 19l99 70v725q0 17 12 29t29 12h112q17 0 29 -12t12 -29v-588l270 190q12 11 32 2t20 -30v-107q0 -29 -41 -61
l-281 -197v-387q0 -20 21 -20z" />
    <glyph glyph-name="lslash" unicode="&#x142;" horiz-adv-x="491" 
d="M473 1022q13 0 21 -10.5t8 -26.5v-102q0 -36 -35 -60l-129 -94v-688q0 -17 -12 -29t-29 -12h-102q-17 0 -29 12t-12 29v555l-101 -72q-11 -8 -24 -8t-21 10.5t-8 26.5v102q0 36 35 60l119 86v612q0 17 12 29t29 12h102q17 0 29 -12t12 -29v-479l111 80q11 8 24 8z" />
    <glyph glyph-name="Nacute" unicode="&#x143;" horiz-adv-x="1167" 
d="M627 1526h-82q-13 0 -22 8t-9 20q0 9 8 21l109 154q20 32 53 32h121q12 0 19 -7.5t7 -18.5q0 -13 -8 -21l-135 -164q-20 -24 -61 -24zM408 1399l393 -1004q7 -20 16 -20q10 0 10 14v1004q0 17 12 29t29 12h105q17 0 29 -12t12 -29v-1352q0 -17 -12 -29t-29 -12h-170
q-17 0 -26.5 7.5t-16.5 27.5l-393 1012q-8 20 -17 20q-10 0 -10 -14v-1012q0 -17 -12 -29t-29 -12h-104q-17 0 -29 12t-12 29v1352q0 17 12 29t29 12h170q17 0 26.5 -7.5t16.5 -27.5z" />
    <glyph glyph-name="nacute" unicode="&#x144;" horiz-adv-x="1075" 
d="M563 1157h-82q-13 0 -21.5 8.5t-8.5 20.5q0 8 8 20l129 215q19 33 53 33h131q12 0 19.5 -8t7.5 -19q0 -12 -8 -20l-166 -225q-21 -25 -62 -25zM276 0h-102q-17 0 -29 12t-12 29v942q0 17 12 29t29 12h90q21 0 29 -14q3 -4 9.5 -15t10.5 -16.5t12.5 -10.5t20.5 -5
q14 0 34 12.5t42.5 28t70.5 28t111 12.5q161 0 254.5 -100t93.5 -266v-637q0 -17 -12 -29t-29 -12h-102q-17 0 -29 12t-12 29v571q0 116 -58 182t-167 66q-98 0 -162 -64.5t-64 -172.5v-582q0 -17 -12 -29t-29 -12z" />
    <glyph glyph-name="uni0145" unicode="&#x145;" horiz-adv-x="1167" 
d="M408 1399l393 -1004q7 -20 16 -20q10 0 10 14v1004q0 17 12 29t29 12h105q17 0 29 -12t12 -29v-1352q0 -17 -12 -29t-29 -12h-170q-17 0 -26.5 7.5t-16.5 27.5l-393 1012q-8 20 -17 20q-10 0 -10 -14v-1012q0 -17 -12 -29t-29 -12h-104q-17 0 -29 12t-12 29v1352
q0 17 12 29t29 12h170q17 0 26.5 -7.5t16.5 -27.5zM559 -430h-33q-17 0 -27 8.5t-10 20.5q0 17 15 39l41 57q8 11 0 18.5t-19 7.5h-14q-17 0 -29 12t-12 29v105q0 17 12 29t29 12h143q17 0 29 -12t12 -29v-105q0 -75 -41 -116l-43 -45l-8 -9q-7 -8 -11 -11t-13.5 -7
t-20.5 -4z" />
    <glyph glyph-name="uni0146" unicode="&#x146;" horiz-adv-x="1075" 
d="M276 0h-102q-17 0 -29 12t-12 29v942q0 17 12 29t29 12h90q21 0 29 -14q3 -4 9.5 -15t10.5 -16.5t12.5 -10.5t20.5 -5q14 0 34 12.5t42.5 28t70.5 28t111 12.5q161 0 254.5 -100t93.5 -266v-637q0 -17 -12 -29t-29 -12h-102q-17 0 -29 12t-12 29v571q0 116 -58 182
t-167 66q-98 0 -162 -64.5t-64 -172.5v-582q0 -17 -12 -29t-29 -12zM514 -430h-33q-17 0 -27 8.5t-10 20.5q0 17 15 39l41 57q8 11 0 18.5t-19 7.5h-14q-17 0 -29 12t-12 29v105q0 17 12 29t29 12h143q17 0 29 -12t12 -29v-105q0 -75 -41 -116l-43 -45l-7 -9q-8 -8 -12 -11
t-13.5 -7t-20.5 -4z" />
    <glyph glyph-name="Ncaron" unicode="&#x147;" horiz-adv-x="1167" 
d="M301 1761h131q13 0 23 -6t30 -26l84 -82q9 -9 15 -9q5 0 14 9l84 82q20 20 30 26t23 6h131q12 0 19.5 -7.5t7.5 -18.5q0 -13 -8 -21l-156 -164q-24 -24 -61 -24h-168q-38 0 -62 24l-155 164q-9 9 -9 21q0 11 7.5 18.5t19.5 7.5zM408 1399l393 -1004q7 -20 16 -20
q10 0 10 14v1004q0 17 12 29t29 12h105q17 0 29 -12t12 -29v-1352q0 -17 -12 -29t-29 -12h-170q-17 0 -26.5 7.5t-16.5 27.5l-393 1012q-8 20 -17 20q-10 0 -10 -14v-1012q0 -17 -12 -29t-29 -12h-104q-17 0 -29 12t-12 29v1352q0 17 12 29t29 12h170q17 0 26.5 -7.5
t16.5 -27.5z" />
    <glyph glyph-name="ncaron" unicode="&#x148;" horiz-adv-x="1075" 
d="M713 1454h94q11 0 19 -8t8 -19t-9 -20l-170 -225q-20 -25 -61 -25h-111q-41 0 -61 25l-170 225q-8 8 -8 20q0 11 8 19t18 8h95q39 0 63 -33l96 -127q8 -8 15 -8q6 0 14 8l96 127q24 33 64 33zM276 0h-102q-17 0 -29 12t-12 29v942q0 17 12 29t29 12h90q21 0 29 -14
q3 -4 9.5 -15t10.5 -16.5t12.5 -10.5t20.5 -5q14 0 34 12.5t42.5 28t70.5 28t111 12.5q161 0 254.5 -100t93.5 -266v-637q0 -17 -12 -29t-29 -12h-102q-17 0 -29 12t-12 29v571q0 116 -58 182t-167 66q-98 0 -162 -64.5t-64 -172.5v-582q0 -17 -12 -29t-29 -12z" />
    <glyph glyph-name="napostrophe" unicode="&#x149;" horiz-adv-x="1075" 
d="M4 969h-24q-18 0 -27.5 10t-9.5 25q0 8 4 24l78 150q4 8 -2.5 15t-14.5 7h-31q-14 0 -24 11t-10 26v160q0 15 10 25t24 10h162q14 0 24.5 -10t10.5 -25v-160q0 -60 -35 -111l-88 -131q-16 -26 -47 -26zM276 0h-102q-17 0 -29 12t-12 29v942q0 17 12 29t29 12h90
q21 0 29 -14q3 -4 9.5 -15t10.5 -16.5t12.5 -10.5t20.5 -5q14 0 34 12.5t42.5 28t70.5 28t111 12.5q161 0 254.5 -100t93.5 -266v-637q0 -17 -12 -29t-29 -12h-102q-17 0 -29 12t-12 29v571q0 116 -58 182t-167 66q-98 0 -162 -64.5t-64 -172.5v-582q0 -17 -12 -29t-29 -12z
" />
    <glyph glyph-name="Eng" unicode="&#x14a;" horiz-adv-x="1167" 
d="M670 -430q-17 0 -29 12t-12 29v102q0 17 12 29t29 12q65 0 112 52t47 133v61l-473 1049q-3 6 -9.5 4t-6.5 -9v-1003q0 -17 -12 -29t-29 -12h-104q-17 0 -29 12t-12 29v1352q0 17 12 29t29 12h153q18 0 27 -7t16 -28l420 -916q2 -4 6 -5t7 1.5t3 7.5v906q0 17 12 29t29 12
h105q17 0 29 -12t12 -29v-1454q0 -152 -98.5 -260.5t-245.5 -108.5z" />
    <glyph glyph-name="eng" unicode="&#x14b;" horiz-adv-x="1075" 
d="M604 1044q161 0 254.5 -100t93.5 -266v-739q0 -152 -98.5 -260.5t-245.5 -108.5q-17 0 -29 12t-12 29v102q0 17 12 29t29 12q65 0 112.5 52t47.5 133v673q0 116 -58 182t-167 66q-98 0 -162 -64.5t-64 -172.5v-582q0 -17 -12 -29t-29 -12h-102q-17 0 -29 12t-12 29v942
q0 17 12 29t29 12h90q21 0 29 -14q3 -4 9.5 -15t10.5 -16.5t12.5 -10.5t20.5 -5q14 0 34 12.5t42.5 28t70.5 28t111 12.5z" />
    <glyph glyph-name="Omacron" unicode="&#x14c;" horiz-adv-x="1155" 
d="M825 1548h-495q-17 0 -29 12t-12 29v78q0 17 12 29t29 12h495q17 0 29 -12t12 -29v-78q0 -17 -12 -29t-29 -12zM578 -20q-147 0 -252 67t-158 176q-41 86 -53.5 202.5t-12.5 291.5t12.5 291t53.5 202q53 109 158 176.5t252 67.5t251.5 -67.5t157.5 -176.5
q41 -86 53.5 -202t12.5 -291t-12.5 -291.5t-53.5 -202.5q-53 -109 -157.5 -176t-251.5 -67zM578 174q157 0 229 137q20 38 30.5 112t12.5 135t2 159q0 97 -2 158.5t-12.5 135t-30.5 111.5q-72 138 -229 138q-158 0 -230 -138q-20 -38 -30.5 -111.5t-12.5 -135t-2 -158.5
q0 -98 2 -159t12.5 -135t30.5 -112q72 -137 230 -137z" />
    <glyph glyph-name="omacron" unicode="&#x14d;" horiz-adv-x="1040" 
d="M768 1233h-496q-17 0 -29 12t-12 29v78q0 17 12 29t29 12h496q17 0 29 -12t12 -29v-78q0 -17 -12 -29t-29 -12zM520 -20q-117 0 -205.5 45t-142.5 125q-48 71 -62 153t-14 209t14 209t62 153q54 80 142.5 125t205.5 45t205.5 -45t142.5 -125q48 -71 62 -153t14 -209
t-14 -209t-62 -153q-54 -80 -142.5 -125t-205.5 -45zM520 164q64 0 112.5 27.5t76.5 68.5q26 39 35.5 97.5t9.5 154.5t-9.5 154.5t-35.5 97.5q-28 41 -76.5 68.5t-112.5 27.5t-112 -27.5t-76 -68.5q-26 -39 -35.5 -97.5t-9.5 -154.5t9.5 -154.5t35.5 -97.5q28 -41 76 -68.5
t112 -27.5z" />
    <glyph glyph-name="Obreve" unicode="&#x14e;" horiz-adv-x="1155" 
d="M578 1516q-132 0 -207.5 53t-75.5 147q0 14 10.5 24.5t24.5 10.5h78q31 0 45 -35q26 -65 125 -65q98 0 124 65q14 35 46 35h77q13 0 24 -10.5t11 -24.5q0 -94 -75 -147t-207 -53zM578 -20q-147 0 -252 67t-158 176q-41 86 -53.5 202.5t-12.5 291.5t12.5 291t53.5 202
q53 109 158 176.5t252 67.5t251.5 -67.5t157.5 -176.5q41 -86 53.5 -202t12.5 -291t-12.5 -291.5t-53.5 -202.5q-53 -109 -157.5 -176t-251.5 -67zM578 174q157 0 229 137q20 38 30.5 112t12.5 135t2 159q0 97 -2 158.5t-12.5 135t-30.5 111.5q-72 138 -229 138
q-158 0 -230 -138q-20 -38 -30.5 -111.5t-12.5 -135t-2 -158.5q0 -98 2 -159t12.5 -135t30.5 -112q72 -137 230 -137z" />
    <glyph glyph-name="obreve" unicode="&#x14f;" horiz-adv-x="1040" 
d="M520 1157q-121 0 -201.5 74.5t-80.5 187.5q0 14 10.5 24.5t23.5 10.5h88q15 0 25 -10t10 -25q0 -53 35.5 -88t89.5 -35t88.5 35t34.5 88q0 15 10.5 25t24.5 10h88q14 0 24.5 -11t10.5 -24q0 -112 -80.5 -187t-200.5 -75zM520 -20q-117 0 -205.5 45t-142.5 125
q-48 71 -62 153t-14 209t14 209t62 153q54 80 142.5 125t205.5 45t205.5 -45t142.5 -125q48 -71 62 -153t14 -209t-14 -209t-62 -153q-54 -80 -142.5 -125t-205.5 -45zM520 164q64 0 112.5 27.5t76.5 68.5q26 39 35.5 97.5t9.5 154.5t-9.5 154.5t-35.5 97.5
q-28 41 -76.5 68.5t-112.5 27.5t-112 -27.5t-76 -68.5q-26 -39 -35.5 -97.5t-9.5 -154.5t9.5 -154.5t35.5 -97.5q28 -41 76 -68.5t112 -27.5z" />
    <glyph glyph-name="Ohungarumlaut" unicode="&#x150;" horiz-adv-x="1155" 
d="M410 1526h-50q-30 0 -30 24q0 14 22 45l94 134q22 32 54 32h90q26 0 26 -26q0 -13 -8 -21l-137 -164q-13 -16 -25 -20t-36 -4zM756 1526h-49q-31 0 -31 24q0 14 22 45l95 134q22 32 53 32h90q27 0 27 -26q0 -12 -9 -21l-137 -164q-13 -16 -25 -20t-36 -4zM578 -20
q-147 0 -252 67t-158 176q-41 86 -53.5 202.5t-12.5 291.5t12.5 291t53.5 202q53 109 158 176.5t252 67.5t251.5 -67.5t157.5 -176.5q41 -86 53.5 -202t12.5 -291t-12.5 -291.5t-53.5 -202.5q-53 -109 -157.5 -176t-251.5 -67zM578 174q157 0 229 137q20 38 30.5 112
t12.5 135t2 159q0 97 -2 158.5t-12.5 135t-30.5 111.5q-72 138 -229 138q-158 0 -230 -138q-20 -38 -30.5 -111.5t-12.5 -135t-2 -158.5q0 -98 2 -159t12.5 -135t30.5 -112q72 -137 230 -137z" />
    <glyph glyph-name="ohungarumlaut" unicode="&#x151;" horiz-adv-x="1040" 
d="M360 1157h-59q-13 0 -22 8.5t-9 20.5q0 6 19 37l119 198q19 33 53 33h108q12 0 19.5 -8t7.5 -19t-18 -34l-156 -211q-21 -25 -62 -25zM709 1157h-60q-13 0 -22 8.5t-9 20.5q0 6 19 37l119 198q19 33 53 33h109q12 0 19 -8t7 -19t-18 -34l-156 -211q-21 -25 -61 -25z
M520 -20q-117 0 -205.5 45t-142.5 125q-48 71 -62 153t-14 209t14 209t62 153q54 80 142.5 125t205.5 45t205.5 -45t142.5 -125q48 -71 62 -153t14 -209t-14 -209t-62 -153q-54 -80 -142.5 -125t-205.5 -45zM520 164q64 0 112.5 27.5t76.5 68.5q26 39 35.5 97.5t9.5 154.5
t-9.5 154.5t-35.5 97.5q-28 41 -76.5 68.5t-112.5 27.5t-112 -27.5t-76 -68.5q-26 -39 -35.5 -97.5t-9.5 -154.5t9.5 -154.5t35.5 -97.5q28 -41 76 -68.5t112 -27.5z" />
    <glyph glyph-name="OE" unicode="&#x152;" horiz-adv-x="1402" 
d="M901 195h369q17 0 29 -12t12 -29v-113q0 -17 -12 -29t-29 -12h-652q-144 0 -244 45.5t-159.5 139t-86 223t-26.5 309.5t26.5 309.5t86 222.5t160 139t243.5 46h105h4h539q17 0 29 -12t12 -29v-113q0 -17 -12 -29t-29 -12h-365q-20 0 -20 -20v-369q0 -21 20 -21h342
q17 0 29 -12t12 -29v-112q0 -17 -12 -29t-29 -12h-342q-20 0 -20 -21v-399q0 -20 20 -20zM303 717q0 -62 1.5 -106.5t6.5 -97t14.5 -90t25 -76.5t39 -64.5t55.5 -46.5t75.5 -31t97.5 -10h68v1044h-68q-54 0 -97.5 -10t-75.5 -31t-55.5 -46.5t-39 -64.5t-25 -76.5t-14.5 -90
t-6.5 -97t-1.5 -106.5z" />
    <glyph glyph-name="oe" unicode="&#x153;" horiz-adv-x="1683" 
d="M520 -20q-115 0 -204 48t-144 130q-48 73 -62 150t-14 204t14 204t62 150q55 82 144 130t204 48q86 0 152 -26.5t137 -81.5q17 -14 39 -14q21 0 45 18q125 104 285 104q79 0 150.5 -25t130.5 -75t93.5 -134t34.5 -192v-124q0 -17 -12 -29t-29 -12h-581q-9 0 -15 -6
t-6 -15q0 -71 16 -122.5t38.5 -79t56.5 -43t61 -19.5t62 -4q78 0 135 35.5t76 93.5q10 35 47 35h104q17 0 27.5 -10.5t7.5 -30.5q-19 -135 -129 -221t-268 -86q-174 0 -293 110q-16 16 -37 16t-37 -16q-110 -110 -291 -110zM520 164q64 0 116 26.5t83 69.5q6 8 10.5 17.5
t8 18t6 21t4.5 21t3 25t2 25t1 28.5v29v33v34v34v33v29t-1 28.5t-2 25t-3 25t-4.5 21t-6 21t-8 18t-10.5 17.5q-31 43 -83 69.5t-116 26.5t-115.5 -26.5t-82.5 -69.5q-6 -8 -10.5 -17.5t-8 -18t-6 -21t-4.5 -21t-3 -25t-2 -25t-1 -28.5v-29v-33v-34v-34v-33v-29t1 -28.5
t2 -25t3 -25t4.5 -21t6 -21t8 -18t10.5 -17.5q31 -43 82.5 -69.5t115.5 -26.5zM967 616h422q20 0 20 21q0 101 -66.5 162t-162.5 61q-104 0 -169 -60t-65 -163q0 -9 6 -15t15 -6z" />
    <glyph glyph-name="Racute" unicode="&#x154;" horiz-adv-x="1075" 
d="M535 1526h-82q-13 0 -22 8t-9 20q0 9 8 21l109 154q20 32 53 32h121q12 0 19 -7.5t7 -18.5q0 -13 -8 -21l-135 -164q-20 -24 -61 -24zM307 0h-112q-17 0 -29 12t-12 29v1352q0 17 12 29t29 12h368q182 0 306 -120t124 -310q0 -241 -213 -367q-43 -25 -43 -49
q0 -13 11 -35l237 -483q8 -16 8 -33q0 -15 -10.5 -26t-30.5 -11h-125q-33 0 -49 33l-246 516q-12 24 -38 24h-125q-21 0 -21 -20v-512q0 -17 -12 -29t-29 -12zM369 768h194q98 0 164 63.5t66 172.5t-66 172t-164 63h-194q-21 0 -21 -20v-431q0 -20 21 -20z" />
    <glyph glyph-name="racute" unicode="&#x155;" horiz-adv-x="737" 
d="M430 1157h-82q-13 0 -22 8.5t-9 20.5q0 6 9 20l129 215q19 33 53 33h131q12 0 19.5 -8t7.5 -19t-9 -20l-165 -225q-21 -25 -62 -25zM276 0h-102q-17 0 -29 12t-12 29v942q0 17 12 29t29 12h70q33 0 41 -41q1 -5 3 -17.5t4 -20t5.5 -16.5t9.5 -13.5t15 -4.5q13 0 29 11.5
t36.5 28t49.5 33.5t78 28.5t110 11.5h41q17 0 29 -12t12 -29v-111q0 -17 -12 -29t-29 -12h-41q-63 0 -117 -16.5t-97.5 -51t-68.5 -93.5t-25 -138v-491q0 -17 -12 -29t-29 -12z" />
    <glyph glyph-name="uni0156" unicode="&#x156;" horiz-adv-x="1075" 
d="M307 0h-112q-17 0 -29 12t-12 29v1352q0 17 12 29t29 12h368q182 0 306 -120t124 -310q0 -241 -213 -367q-43 -25 -43 -49q0 -13 11 -35l237 -483q8 -16 8 -33q0 -15 -10.5 -26t-30.5 -11h-125q-33 0 -49 33l-246 516q-12 24 -38 24h-125q-21 0 -21 -20v-512
q0 -17 -12 -29t-29 -12zM369 768h194q98 0 164 63.5t66 172.5t-66 172t-164 63h-194q-21 0 -21 -20v-431q0 -20 21 -20zM508 -430h-33q-17 0 -27 8.5t-10 20.5q0 17 15 39l41 57q8 11 0 18.5t-19 7.5h-14q-17 0 -29 12t-12 29v105q0 17 12 29t29 12h143q17 0 29 -12t12 -29
v-105q0 -75 -41 -116l-43 -45l-7 -9q-8 -8 -12 -11t-13.5 -7t-20.5 -4z" />
    <glyph glyph-name="uni0157" unicode="&#x157;" horiz-adv-x="737" 
d="M276 0h-102q-17 0 -29 12t-12 29v942q0 17 12 29t29 12h70q33 0 41 -41q1 -5 3 -17.5t4 -20t5.5 -16.5t9.5 -13.5t15 -4.5q13 0 29 11.5t36.5 28t49.5 33.5t78 28.5t110 11.5h41q17 0 29 -12t12 -29v-111q0 -17 -12 -29t-29 -12h-41q-63 0 -117 -16.5t-97.5 -51
t-68.5 -93.5t-25 -138v-491q0 -17 -12 -29t-29 -12zM205 -430h-33q-17 0 -27 8.5t-10 20.5q0 17 15 39l40 57q8 11 0.5 18.5t-18.5 7.5h-14q-17 0 -29 12t-12 29v105q0 17 12 29t29 12h143q17 0 29 -12t12 -29v-105q0 -75 -41 -116l-43 -45l-8 -9q-7 -8 -11 -11t-13.5 -7
t-20.5 -4z" />
    <glyph glyph-name="Rcaron" unicode="&#x158;" horiz-adv-x="1075" 
d="M209 1761h131q13 0 23 -6t30 -26l84 -82q9 -9 15 -9q5 0 14 9l84 82q20 20 30 26t23 6h131q12 0 19.5 -7.5t7.5 -18.5q0 -13 -8 -21l-156 -164q-24 -24 -62 -24h-167q-38 0 -62 24l-156 164q-8 8 -8 21q0 11 7.5 18.5t19.5 7.5zM307 0h-112q-17 0 -29 12t-12 29v1352
q0 17 12 29t29 12h368q182 0 306 -120t124 -310q0 -241 -213 -367q-43 -25 -43 -49q0 -13 11 -35l237 -483q8 -16 8 -33q0 -15 -10.5 -26t-30.5 -11h-125q-33 0 -49 33l-246 516q-12 24 -38 24h-125q-21 0 -21 -20v-512q0 -17 -12 -29t-29 -12zM369 768h194q98 0 164 63.5
t66 172.5t-66 172t-164 63h-194q-21 0 -21 -20v-431q0 -20 21 -20z" />
    <glyph glyph-name="rcaron" unicode="&#x159;" horiz-adv-x="737" 
d="M580 1454h94q10 0 18 -8t8 -19q0 -12 -8 -20l-170 -225q-20 -25 -61 -25h-111q-41 0 -61 25l-170 225q-8 8 -8 20q0 11 8 19t18 8h94q40 0 64 -33l96 -127q8 -8 15 -8q6 0 14 8l96 127q24 33 64 33zM276 0h-102q-17 0 -29 12t-12 29v942q0 17 12 29t29 12h70q33 0 41 -41
q1 -5 3 -17.5t4 -20t5.5 -16.5t9.5 -13.5t15 -4.5q13 0 29 11.5t36.5 28t49.5 33.5t78 28.5t110 11.5h41q17 0 29 -12t12 -29v-111q0 -17 -12 -29t-29 -12h-41q-63 0 -117 -16.5t-97.5 -51t-68.5 -93.5t-25 -138v-491q0 -17 -12 -29t-29 -12z" />
    <glyph glyph-name="Sacute" unicode="&#x15a;" horiz-adv-x="1064" 
d="M596 1526h-82q-13 0 -22 8t-9 20q0 8 9 21l108 154q20 32 53 32h121q12 0 19.5 -7.5t7.5 -18.5q0 -13 -8 -21l-136 -164q-20 -24 -61 -24zM537 -20q-211 0 -338 117.5t-127 312.5v32q0 17 12 29t29 12h114q17 0 29 -12t12 -29v-32q0 -104 75.5 -170t195.5 -66
q113 0 183.5 58.5t70.5 152.5q0 106 -69.5 168.5t-227.5 99.5q-186 42 -285.5 145t-99.5 267q0 179 122.5 284t315.5 105q197 0 310.5 -104t113.5 -285v-27q0 -17 -12 -29t-29 -12h-113q-17 0 -29 12t-12 29v27q0 92 -62 143.5t-171 51.5q-108 0 -171 -51.5t-63 -139.5
q0 -96 72.5 -151t251.5 -95q165 -37 261.5 -153.5t96.5 -276.5q0 -184 -126.5 -298.5t-329.5 -114.5z" />
    <glyph glyph-name="sacute" unicode="&#x15b;" horiz-adv-x="942" 
d="M502 1157h-82q-13 0 -22 8.5t-9 20.5q0 8 8 20l129 215q19 33 54 33h131q12 0 19 -8t7 -19q0 -12 -8 -20l-166 -225q-21 -25 -61 -25zM489 -20q-198 0 -313 88.5t-115 242.5q0 36 9 50t32 14h103q38 0 41 -41q10 -91 67 -134.5t164 -43.5q101 0 155 34.5t54 100.5
q0 65 -50 97.5t-185 55.5q-180 31 -264.5 105.5t-84.5 202.5t104 210t265 82q175 0 276 -77.5t101 -210.5q0 -32 -9.5 -46t-31.5 -14h-102q-17 0 -28 11t-13 30q-12 133 -187 133q-88 0 -136 -29t-48 -83q0 -57 53.5 -89.5t190.5 -60.5q181 -35 257 -107.5t76 -209.5
q0 -143 -103 -227t-278 -84z" />
    <glyph glyph-name="Scircumflex" unicode="&#x15c;" horiz-adv-x="1064" 
d="M401 1526h-131q-12 0 -19 7.5t-7 18.5q0 13 8 21l156 164q24 24 61 24h168q37 0 61 -24l156 -164q8 -8 8 -21q0 -11 -7 -18.5t-19 -7.5h-131q-13 0 -23 6t-31 27l-84 81q-9 9 -14 9t-14 -9l-84 -81q-21 -21 -31 -27t-23 -6zM537 -20q-211 0 -338 117.5t-127 312.5v32
q0 17 12 29t29 12h114q17 0 29 -12t12 -29v-32q0 -104 75.5 -170t195.5 -66q113 0 183.5 58.5t70.5 152.5q0 106 -69.5 168.5t-227.5 99.5q-186 42 -285.5 145t-99.5 267q0 179 122.5 284t315.5 105q197 0 310.5 -104t113.5 -285v-27q0 -17 -12 -29t-29 -12h-113
q-17 0 -29 12t-12 29v27q0 92 -62 143.5t-171 51.5q-108 0 -171 -51.5t-63 -139.5q0 -96 72.5 -151t251.5 -95q165 -37 261.5 -153.5t96.5 -276.5q0 -184 -126.5 -298.5t-329.5 -114.5z" />
    <glyph glyph-name="scircumflex" unicode="&#x15d;" horiz-adv-x="942" 
d="M303 1157h-94q-11 0 -19 8.5t-8 18.5q0 12 8 20l170 226q19 24 62 24h110q43 0 62 -24l170 -226q8 -8 8 -20q0 -10 -8 -18.5t-19 -8.5h-94q-39 0 -63 33l-96 127q-8 8 -15 8q-6 0 -14 -8l-96 -127q-24 -33 -64 -33zM489 -20q-198 0 -313 88.5t-115 242.5q0 36 9 50t32 14
h103q38 0 41 -41q10 -91 67 -134.5t164 -43.5q101 0 155 34.5t54 100.5q0 65 -50 97.5t-185 55.5q-180 31 -264.5 105.5t-84.5 202.5t104 210t265 82q175 0 276 -77.5t101 -210.5q0 -32 -9.5 -46t-31.5 -14h-102q-17 0 -28 11t-13 30q-12 133 -187 133q-88 0 -136 -29
t-48 -83q0 -57 53.5 -89.5t190.5 -60.5q181 -35 257 -107.5t76 -209.5q0 -143 -103 -227t-278 -84z" />
    <glyph glyph-name="Scedilla" unicode="&#x15e;" horiz-adv-x="1064" 
d="M537 -20q-211 0 -338 117.5t-127 312.5v32q0 17 12 29t29 12h114q17 0 29 -12t12 -29v-32q0 -104 75.5 -170t195.5 -66q113 0 183.5 58.5t70.5 152.5q0 106 -69.5 168.5t-227.5 99.5q-186 42 -285.5 145t-99.5 267q0 179 122.5 284t315.5 105q197 0 310.5 -104
t113.5 -285v-27q0 -17 -12 -29t-29 -12h-113q-17 0 -29 12t-12 29v27q0 92 -62 143.5t-171 51.5q-108 0 -171 -51.5t-63 -139.5q0 -96 72.5 -151t251.5 -95q165 -37 261.5 -153.5t96.5 -276.5q0 -184 -126.5 -298.5t-329.5 -114.5zM524 -410h-94q-16 0 -25.5 8t-9.5 19
q0 4 4.5 17.5t6.5 21.5l53 219q9 33 39 33h90q33 0 33 -31q0 -5 -11 -53l-47 -201q-9 -33 -39 -33z" />
    <glyph glyph-name="scedilla" unicode="&#x15f;" horiz-adv-x="942" 
d="M489 -20q-198 0 -313 88.5t-115 242.5q0 36 9 50t32 14h103q38 0 41 -41q10 -91 67 -134.5t164 -43.5q101 0 155 34.5t54 100.5q0 65 -50 97.5t-185 55.5q-180 31 -264.5 105.5t-84.5 202.5t104 210t265 82q175 0 276 -77.5t101 -210.5q0 -32 -9.5 -46t-31.5 -14h-102
q-17 0 -28 11t-13 30q-12 133 -187 133q-88 0 -136 -29t-48 -83q0 -57 53.5 -89.5t190.5 -60.5q181 -35 257 -107.5t76 -209.5q0 -143 -103 -227t-278 -84zM459 -410h-94q-16 0 -25.5 8t-9.5 19q0 3 1.5 9t4 14.5t4.5 15.5l53 219q9 33 39 33h90q33 0 33 -31q0 -9 -10 -53
l-47 -201q-9 -33 -39 -33z" />
    <glyph glyph-name="Scaron" unicode="&#x160;" horiz-adv-x="1064" 
d="M270 1761h131q14 0 24 -6t30 -26l84 -82q9 -9 14 -9t14 9l84 82q20 20 30 26t24 6h131q12 0 19 -7.5t7 -18.5q0 -13 -8 -21l-156 -164q-24 -24 -61 -24h-168q-37 0 -61 24l-156 164q-8 8 -8 21q0 11 7 18.5t19 7.5zM537 -20q-211 0 -338 117.5t-127 312.5v32q0 17 12 29
t29 12h114q17 0 29 -12t12 -29v-32q0 -104 75.5 -170t195.5 -66q113 0 183.5 58.5t70.5 152.5q0 106 -69.5 168.5t-227.5 99.5q-186 42 -285.5 145t-99.5 267q0 179 122.5 284t315.5 105q197 0 310.5 -104t113.5 -285v-27q0 -17 -12 -29t-29 -12h-113q-17 0 -29 12t-12 29
v27q0 92 -62 143.5t-171 51.5q-108 0 -171 -51.5t-63 -139.5q0 -96 72.5 -151t251.5 -95q165 -37 261.5 -153.5t96.5 -276.5q0 -184 -126.5 -298.5t-329.5 -114.5z" />
    <glyph glyph-name="scaron" unicode="&#x161;" horiz-adv-x="942" 
d="M651 1454h94q11 0 19 -8t8 -19q0 -12 -8 -20l-170 -225q-20 -25 -62 -25h-110q-42 0 -62 25l-170 225q-8 8 -8 20q0 11 8 19t19 8h94q40 0 64 -33l96 -127q8 -8 14 -8q7 0 15 8l96 127q24 33 63 33zM489 -20q-198 0 -313 88.5t-115 242.5q0 36 9 50t32 14h103
q38 0 41 -41q10 -91 67 -134.5t164 -43.5q101 0 155 34.5t54 100.5q0 65 -50 97.5t-185 55.5q-180 31 -264.5 105.5t-84.5 202.5t104 210t265 82q175 0 276 -77.5t101 -210.5q0 -32 -9.5 -46t-31.5 -14h-102q-17 0 -28 11t-13 30q-12 133 -187 133q-88 0 -136 -29t-48 -83
q0 -57 53.5 -89.5t190.5 -60.5q181 -35 257 -107.5t76 -209.5q0 -143 -103 -227t-278 -84z" />
    <glyph glyph-name="uni0162" unicode="&#x162;" horiz-adv-x="921" 
d="M518 0h-112q-17 0 -29 12t-12 29v1178q0 20 -21 20h-272q-17 0 -29 12t-12 29v113q0 17 12 29t29 12h778q17 0 29 -12t12 -29v-113q0 -17 -12 -29t-29 -12h-270q-21 0 -21 -20v-1178q0 -17 -12 -29t-29 -12zM453 -410h-95q-16 0 -25 8t-9 19q0 3 1.5 9t4 14.5t4.5 15.5
l53 219q9 33 39 33h90q33 0 33 -31q0 -9 -10 -53l-47 -201q-9 -33 -39 -33z" />
    <glyph glyph-name="uni0163" unicode="&#x163;" horiz-adv-x="776" 
d="M696 0h-112q-348 0 -348 328v481q0 20 -21 20h-143q-17 0 -29 12t-12 29v103q0 17 12 29t29 12h143q21 0 21 20v318q0 17 11.5 29t28.5 12h103q17 0 29 -12t12 -29v-318q0 -20 20 -20h236q17 0 29 -12t12 -29v-103q0 -17 -12 -29t-29 -12h-236q-20 0 -20 -20v-481
q0 -73 40.5 -108.5t123.5 -35.5h112q17 0 29 -12t12 -29v-102q0 -17 -12 -29t-29 -12zM471 -410h-94q-16 0 -25.5 8t-9.5 19q0 3 1.5 9t4 14.5t4.5 15.5l54 219q9 33 38 33h91q32 0 32 -31q0 -9 -10 -53l-47 -201q-9 -33 -39 -33z" />
    <glyph glyph-name="Tcaron" unicode="&#x164;" horiz-adv-x="921" 
d="M178 1761h131q13 0 23 -6t30 -26l84 -82q9 -9 15 -9q5 0 14 9l84 82q20 20 30 26t23 6h131q12 0 19.5 -7.5t7.5 -18.5q0 -13 -8 -21l-156 -164q-24 -24 -61 -24h-168q-38 0 -62 24l-155 164q-8 8 -8 21q0 11 7 18.5t19 7.5zM518 0h-112q-17 0 -29 12t-12 29v1178
q0 20 -21 20h-272q-17 0 -29 12t-12 29v113q0 17 12 29t29 12h778q17 0 29 -12t12 -29v-113q0 -17 -12 -29t-29 -12h-270q-21 0 -21 -20v-1178q0 -17 -12 -29t-29 -12z" />
    <glyph glyph-name="tcaron" unicode="&#x165;" horiz-adv-x="776" 
d="M649 1108h-55q-15 0 -25.5 10.5t-9.5 26.5l29 268q2 18 12 29.5t27 11.5h108q19 0 32 -13.5t7 -35.5l-74 -260q-6 -21 -17.5 -29t-33.5 -8zM696 0h-112q-348 0 -348 328v481q0 20 -21 20h-143q-17 0 -29 12t-12 29v103q0 17 12 29t29 12h143q21 0 21 20v318q0 17 11.5 29
t28.5 12h103q17 0 29 -12t12 -29v-318q0 -20 20 -20h236q17 0 29 -12t12 -29v-103q0 -17 -12 -29t-29 -12h-236q-20 0 -20 -20v-481q0 -73 40.5 -108.5t123.5 -35.5h112q17 0 29 -12t12 -29v-102q0 -17 -12 -29t-29 -12z" />
    <glyph glyph-name="Tbar" unicode="&#x166;" horiz-adv-x="921" 
d="M72 1434h778q17 0 29 -12t12 -29v-113q0 -17 -12 -29t-29 -12h-270q-21 0 -21 -20v-195h250q17 0 29 -12t12 -29v-102q0 -17 -12 -29t-29 -12h-250v-799q0 -17 -12 -29t-29 -12h-112q-17 0 -29 12t-12 29v799h-252q-17 0 -29 12t-12 29v102q0 17 12 29t29 12h252v195
q0 20 -21 20h-272q-17 0 -29 12t-12 29v113q0 17 12 29t29 12z" />
    <glyph glyph-name="tbar" unicode="&#x167;" horiz-adv-x="776" 
d="M584 184h112q17 0 29 -12t12 -29v-102q0 -17 -12 -29t-29 -12h-112q-348 0 -348 328v145h-164q-17 0 -29 12t-12 29v92q0 17 12 29t29 12h164v162q0 20 -21 20h-143q-17 0 -29 12t-12 29v103q0 17 12 29t29 12h143q21 0 21 20v318q0 17 11.5 29t28.5 12h103q17 0 29 -12
t12 -29v-318q0 -20 20 -20h236q17 0 29 -12t12 -29v-103q0 -17 -12 -29t-29 -12h-236q-20 0 -20 -20v-162h235q17 0 29 -12t12 -29v-92q0 -17 -12 -29t-29 -12h-235v-145q0 -73 40.5 -108.5t123.5 -35.5z" />
    <glyph glyph-name="Utilde" unicode="&#x168;" horiz-adv-x="1208" 
d="M733 1536q-44 0 -110 25l-41 18q-56 25 -93 25t-40 -35q-2 -12 -12 -19.5t-25 -7.5h-58q-17 0 -28 11t-11 28q0 84 44 122t118 38q45 0 111 -25l41 -18q56 -25 92 -25q38 0 41 35q2 12 12 19.5t25 7.5h57q17 0 28 -11t11 -28q0 -83 -44.5 -121.5t-117.5 -38.5zM604 -20
q-217 0 -339 119.5t-122 346.5v947q0 17 12 29t29 12h113q17 0 29 -12t12 -29v-967q0 -131 71.5 -191.5t194.5 -60.5q129 0 197.5 67.5t68.5 184.5v967q0 17 12 29t29 12h113q17 0 29 -12t12 -29v-947q0 -224 -126.5 -345t-334.5 -121z" />
    <glyph glyph-name="utilde" unicode="&#x169;" horiz-adv-x="1075" 
d="M668 1239q-53 0 -119 27l-47 18q-65 27 -99 27q-42 0 -45 -37q-3 -29 -41 -29h-63q-17 0 -29 12t-12 29q0 88 48 128t128 40q53 0 119 -27l47 -18q65 -27 98 -27q42 0 45 37q3 29 41 29h64q17 0 29 -12t12 -29q0 -87 -48 -127.5t-128 -40.5zM799 1024h102q17 0 29 -12
t12 -29v-942q0 -17 -12 -29t-29 -12h-90q-21 0 -29 14q-3 4 -9.5 15t-10.5 16.5t-12.5 10.5t-20.5 5q-14 0 -34 -12.5t-42.5 -28t-70.5 -28t-111 -12.5q-161 0 -254.5 100t-93.5 266v637q0 17 12 29t29 12h102q17 0 29 -12t12 -29v-571q0 -116 58 -182t167 -66
q98 0 162 64.5t64 172.5v582q0 17 12 29t29 12z" />
    <glyph glyph-name="Umacron" unicode="&#x16a;" horiz-adv-x="1208" 
d="M852 1548h-496q-17 0 -29 12t-12 29v78q0 17 12 29t29 12h496q17 0 29 -12t12 -29v-78q0 -17 -12 -29t-29 -12zM604 -20q-217 0 -339 119.5t-122 346.5v947q0 17 12 29t29 12h113q17 0 29 -12t12 -29v-967q0 -131 71.5 -191.5t194.5 -60.5q129 0 197.5 67.5t68.5 184.5
v967q0 17 12 29t29 12h113q17 0 29 -12t12 -29v-947q0 -224 -126.5 -345t-334.5 -121z" />
    <glyph glyph-name="umacron" unicode="&#x16b;" horiz-adv-x="1075" 
d="M776 1233h-495q-17 0 -29 12t-12 29v78q0 17 12 29t29 12h495q17 0 29 -12t12 -29v-78q0 -17 -12 -29t-29 -12zM799 1024h102q17 0 29 -12t12 -29v-942q0 -17 -12 -29t-29 -12h-90q-21 0 -29 14q-3 4 -9.5 15t-10.5 16.5t-12.5 10.5t-20.5 5q-14 0 -34 -12.5t-42.5 -28
t-70.5 -28t-111 -12.5q-161 0 -254.5 100t-93.5 266v637q0 17 12 29t29 12h102q17 0 29 -12t12 -29v-571q0 -116 58 -182t167 -66q98 0 162 64.5t64 172.5v582q0 17 12 29t29 12z" />
    <glyph glyph-name="Ubreve" unicode="&#x16c;" horiz-adv-x="1208" 
d="M604 1516q-132 0 -207 53t-75 147q0 14 10.5 24.5t23.5 10.5h78q31 0 45 -35q26 -65 125 -65t125 65q14 35 45 35h78q14 0 24.5 -10.5t10.5 -24.5q0 -94 -75.5 -147t-207.5 -53zM604 -20q-217 0 -339 119.5t-122 346.5v947q0 17 12 29t29 12h113q17 0 29 -12t12 -29v-967
q0 -131 71.5 -191.5t194.5 -60.5q129 0 197.5 67.5t68.5 184.5v967q0 17 12 29t29 12h113q17 0 29 -12t12 -29v-947q0 -224 -126.5 -345t-334.5 -121z" />
    <glyph glyph-name="ubreve" unicode="&#x16d;" horiz-adv-x="1075" 
d="M528 1157q-121 0 -201.5 74.5t-80.5 187.5q0 13 11 24t24 11h88q15 0 24.5 -10t9.5 -25q0 -53 35.5 -88t89.5 -35t88.5 35t34.5 88q0 15 10.5 25t24.5 10h88q14 0 24.5 -11t10.5 -24q0 -112 -80.5 -187t-200.5 -75zM799 1024h102q17 0 29 -12t12 -29v-942q0 -17 -12 -29
t-29 -12h-90q-21 0 -29 14q-3 4 -9.5 15t-10.5 16.5t-12.5 10.5t-20.5 5q-14 0 -34 -12.5t-42.5 -28t-70.5 -28t-111 -12.5q-161 0 -254.5 100t-93.5 266v637q0 17 12 29t29 12h102q17 0 29 -12t12 -29v-571q0 -116 58 -182t167 -66q98 0 162 64.5t64 172.5v582q0 17 12 29
t29 12z" />
    <glyph glyph-name="Uring" unicode="&#x16e;" horiz-adv-x="1208" 
d="M604 1464q-73 0 -122.5 47.5t-49.5 124.5t49.5 124.5t122.5 47.5t122.5 -47.5t49.5 -124.5t-49.5 -124.5t-122.5 -47.5zM604 1565q31 0 50.5 20t19.5 51t-19.5 51.5t-50.5 20.5q-30 0 -49.5 -20.5t-19.5 -51.5t19 -51t50 -20zM604 -20q-217 0 -339 119.5t-122 346.5v947
q0 17 12 29t29 12h113q17 0 29 -12t12 -29v-967q0 -131 71.5 -191.5t194.5 -60.5q129 0 197.5 67.5t68.5 184.5v967q0 17 12 29t29 12h113q17 0 29 -12t12 -29v-947q0 -224 -126.5 -345t-334.5 -121z" />
    <glyph glyph-name="uring" unicode="&#x16f;" horiz-adv-x="1075" 
d="M528 1098q-107 0 -178 66.5t-71 176.5t71 177t178 67t178.5 -67t71.5 -177t-71.5 -176.5t-178.5 -66.5zM528 1227q51 0 83 31.5t32 82.5t-32 83t-83 32t-82.5 -32t-31.5 -83t31.5 -82.5t82.5 -31.5zM799 1024h102q17 0 29 -12t12 -29v-942q0 -17 -12 -29t-29 -12h-90
q-21 0 -29 14q-3 4 -9.5 15t-10.5 16.5t-12.5 10.5t-20.5 5q-14 0 -34 -12.5t-42.5 -28t-70.5 -28t-111 -12.5q-161 0 -254.5 100t-93.5 266v637q0 17 12 29t29 12h102q17 0 29 -12t12 -29v-571q0 -116 58 -182t167 -66q98 0 162 64.5t64 172.5v582q0 17 12 29t29 12z" />
    <glyph glyph-name="Uhungarumlaut" unicode="&#x170;" horiz-adv-x="1208" 
d="M436 1526h-49q-31 0 -31 24q0 12 23 45l94 134q22 32 53 32h90q27 0 27 -26q0 -13 -8 -21l-137 -164q-12 -16 -24.5 -20t-37.5 -4zM782 1526h-49q-31 0 -31 24q0 12 23 45l94 134q22 32 53 32h91q26 0 26 -26q0 -13 -8 -21l-137 -164q-12 -16 -24.5 -20t-37.5 -4z
M604 -20q-217 0 -339 119.5t-122 346.5v947q0 17 12 29t29 12h113q17 0 29 -12t12 -29v-967q0 -131 71.5 -191.5t194.5 -60.5q129 0 197.5 67.5t68.5 184.5v967q0 17 12 29t29 12h113q17 0 29 -12t12 -29v-947q0 -224 -126.5 -345t-334.5 -121z" />
    <glyph glyph-name="uhungarumlaut" unicode="&#x171;" horiz-adv-x="1075" 
d="M369 1157h-60q-13 0 -21.5 8.5t-8.5 20.5q0 7 18 37l119 198q19 33 53 33h109q12 0 19 -8t7 -19t-18 -34l-156 -211q-21 -25 -61 -25zM717 1157h-60q-13 0 -21.5 8.5t-8.5 20.5q0 7 18 37l119 198q19 33 53 33h109q12 0 19 -8t7 -19t-18 -34l-156 -211q-21 -25 -61 -25z
M799 1024h102q17 0 29 -12t12 -29v-942q0 -17 -12 -29t-29 -12h-90q-21 0 -29 14q-3 4 -9.5 15t-10.5 16.5t-12.5 10.5t-20.5 5q-14 0 -34 -12.5t-42.5 -28t-70.5 -28t-111 -12.5q-161 0 -254.5 100t-93.5 266v637q0 17 12 29t29 12h102q17 0 29 -12t12 -29v-571
q0 -116 58 -182t167 -66q98 0 162 64.5t64 172.5v582q0 17 12 29t29 12z" />
    <glyph glyph-name="Uogonek" unicode="&#x172;" horiz-adv-x="1208" 
d="M911 1434h113q17 0 29 -12t12 -29v-947q0 -185 -87.5 -300.5t-240.5 -151.5q-76 -20 -113.5 -48t-37.5 -87q0 -135 166 -135q17 0 29 -12t12 -29v-72q0 -17 -12 -29t-29 -12q-152 0 -244 72t-92 206q0 81 41 148q-150 37 -232 151.5t-82 298.5v947q0 17 12 29t29 12h113
q17 0 29 -12t12 -29v-967q0 -131 71.5 -191.5t194.5 -60.5q129 0 197.5 67.5t68.5 184.5v967q0 17 12 29t29 12z" />
    <glyph glyph-name="uogonek" unicode="&#x173;" horiz-adv-x="1075" 
d="M799 1024h102q17 0 29 -12t12 -29v-942q0 -17 -12 -29t-29 -12h-57q-61 -36 -92 -76.5t-31 -95.5q0 -63 36.5 -83.5t123.5 -20.5q17 0 29 -12t12 -29v-72q0 -17 -12 -29t-29 -12q-330 0 -330 248q0 105 63 184q-60 -22 -143 -22q-161 0 -254.5 100t-93.5 266v637
q0 17 12 29t29 12h102q17 0 29 -12t12 -29v-571q0 -116 58 -182t167 -66q98 0 162 64.5t64 172.5v582q0 17 12 29t29 12z" />
    <glyph glyph-name="Wcircumflex" unicode="&#x174;" horiz-adv-x="1531" 
d="M614 1526h-131q-12 0 -19 7.5t-7 18.5q0 13 8 21l156 164q24 24 61 24h168q37 0 61 -24l156 -164q8 -8 8 -21q0 -11 -7 -18.5t-19 -7.5h-131q-13 0 -23 6t-31 27l-84 81q-9 9 -14 9t-14 -9l-84 -81q-21 -21 -31 -27t-23 -6zM535 0h-175q-32 0 -38 31l-277 1341
q-4 20 -4 31q0 31 41 31h111q33 0 38 -31l209 -1051q2 -12 13 -12h4q10 0 12 12l184 1051q6 31 39 31h148q33 0 39 -31l184 -1051q2 -12 12 -12h4q11 0 13 12l208 1051q5 31 39 31h111q41 0 41 -31q0 -11 -4 -31l-277 -1341q-6 -31 -39 -31h-174q-33 0 -39 31l-182 1018
q-2 12 -10 12t-10 -12l-183 -1018q-6 -31 -38 -31z" />
    <glyph glyph-name="wcircumflex" unicode="&#x175;" horiz-adv-x="1363" 
d="M508 1157h-94q-10 0 -18.5 8.5t-8.5 18.5q0 12 8 20l170 226q19 24 62 24h110q43 0 62 -24l170 -226q8 -8 8 -20q0 -10 -8.5 -18.5t-18.5 -8.5h-94q-39 0 -63 33l-97 127q-8 8 -14 8t-14 -8l-97 -127q-24 -33 -63 -33zM449 0h-113q-30 0 -39 31l-260 925q-6 24 -6 37
q0 12 10.5 21.5t28.5 9.5h116q31 0 39 -31l158 -663q3 -12 13.5 -12t13.5 12l180 663q8 31 39 31h106q31 0 39 -31l180 -663q3 -12 13.5 -12t13.5 12l158 663q8 31 39 31h116q18 0 28.5 -9.5t10.5 -21.5q0 -13 -6 -37l-260 -925q-9 -31 -39 -31h-113q-29 0 -38 31l-187 676
q-2 6 -8 6t-8 -6l-187 -676q-9 -31 -38 -31z" />
    <glyph glyph-name="Ycircumflex" unicode="&#x176;" horiz-adv-x="958" 
d="M328 1526h-131q-12 0 -19.5 7.5t-7.5 18.5q0 13 8 21l156 164q24 24 61 24h168q38 0 62 -24l155 -164q8 -8 8 -21q0 -11 -7 -18.5t-19 -7.5h-131q-13 0 -22.5 6t-30.5 27l-84 81q-9 9 -15 9q-5 0 -14 -9l-84 -81q-21 -21 -30.5 -27t-22.5 -6zM537 0h-115q-17 0 -29 12
t-12 29v534l-340 785q-10 25 -10 39q0 15 11.5 25t25.5 10h135q28 0 39 -31l221 -545q6 -18 16 -18q11 0 17 18l221 545q11 31 39 31h135q14 0 25.5 -10t11.5 -25q0 -14 -10 -39l-340 -785v-534q0 -17 -12 -29t-29 -12z" />
    <glyph glyph-name="ycircumflex" unicode="&#x177;" horiz-adv-x="952" 
d="M307 1157h-94q-11 0 -19 8.5t-8 18.5q0 11 9 20l170 226q19 24 61 24h111q42 0 61 -24l170 -226q8 -8 8 -20q0 -11 -8 -19t-18 -8h-95q-39 0 -63 33l-96 127q-8 8 -15 8q-6 0 -14 -8l-96 -127q-24 -33 -64 -33zM371 -410h-111q-19 0 -30 10t-11 23q0 12 6 27l146 399
q6 18 6 23t-6 20l-342 869q-9 23 -9 32q0 13 11.5 22t29.5 9h125q28 0 39 -31l252 -665q3 -9 8 -9q6 0 9 9l233 665q11 31 39 31h125q18 0 29.5 -9t11.5 -22q0 -12 -8 -32l-514 -1340q-11 -31 -39 -31z" />
    <glyph glyph-name="Ydieresis" unicode="&#x178;" horiz-adv-x="958" 
d="M373 1528h-140q-13 0 -22.5 9.5t-9.5 23.5v141q0 12 9.5 22.5t22.5 10.5h140q13 0 23 -10.5t10 -22.5v-141q0 -13 -10 -23t-23 -10zM723 1528h-139q-14 0 -23.5 10t-9.5 23v141q0 12 10 22.5t23 10.5h139q13 0 23 -10.5t10 -22.5v-141q0 -13 -10 -23t-23 -10zM537 0h-115
q-17 0 -29 12t-12 29v534l-340 785q-10 25 -10 39q0 15 11.5 25t25.5 10h135q28 0 39 -31l221 -545q6 -18 16 -18q11 0 17 18l221 545q11 31 39 31h135q14 0 25.5 -10t11.5 -25q0 -14 -10 -39l-340 -785v-534q0 -17 -12 -29t-29 -12z" />
    <glyph glyph-name="Zacute" unicode="&#x179;" horiz-adv-x="997" 
d="M547 1526h-82q-13 0 -22 8t-9 20q0 9 8 21l109 154q20 32 53 32h121q12 0 19.5 -7.5t7.5 -18.5q0 -12 -9 -21l-135 -164q-20 -24 -61 -24zM885 0h-762q-17 0 -29 12t-12 29v154q0 15 10 32l613 998q5 7 1 13.5t-14 6.5h-579q-17 0 -29 12t-12 29v107q0 17 12 29t29 12
h761q17 0 29 -12t12 -29v-148q0 -16 -10 -33l-604 -1001q-5 -7 -1.5 -14t13.5 -7h572q17 0 29 -11.5t12 -28.5v-109q0 -17 -12 -29t-29 -12z" />
    <glyph glyph-name="zacute" unicode="&#x17a;" horiz-adv-x="911" 
d="M496 1157h-82q-13 0 -22 8.5t-9 20.5q0 8 8 20l129 215q19 33 53 33h132q12 0 19 -8t7 -19q0 -12 -8 -20l-166 -225q-21 -25 -61 -25zM815 0h-713q-17 0 -29 12t-12 29v121q0 20 4.5 30.5t22.5 32.5l487 594q6 7 2.5 14t-12.5 7h-459q-17 0 -28.5 12t-11.5 29v102
q0 17 11.5 29t28.5 12h672q17 0 29 -12t12 -29v-117q0 -32 -41 -84l-465 -577q-6 -7 -2 -14t13 -7h491q17 0 29 -12t12 -29v-102q0 -17 -12 -29t-29 -12z" />
    <glyph glyph-name="Zdotaccent" unicode="&#x17b;" horiz-adv-x="997" 
d="M573 1528h-139q-14 0 -23.5 10t-9.5 23v141q0 12 10 22.5t23 10.5h139q13 0 23 -10.5t10 -22.5v-141q0 -13 -10 -23t-23 -10zM885 0h-762q-17 0 -29 12t-12 29v154q0 15 10 32l613 998q5 7 1 13.5t-14 6.5h-579q-17 0 -29 12t-12 29v107q0 17 12 29t29 12h761
q17 0 29 -12t12 -29v-148q0 -16 -10 -33l-604 -1001q-5 -7 -1.5 -14t13.5 -7h572q17 0 29 -11.5t12 -28.5v-109q0 -17 -12 -29t-29 -12z" />
    <glyph glyph-name="zdotaccent" unicode="&#x17c;" horiz-adv-x="911" 
d="M551 1233h-160q-13 0 -23 9.5t-10 23.5v155q0 12 10 22.5t23 10.5h160q13 0 23 -10.5t10 -22.5v-155q0 -14 -10 -23.5t-23 -9.5zM815 0h-713q-17 0 -29 12t-12 29v121q0 20 4.5 30.5t22.5 32.5l487 594q6 7 2.5 14t-12.5 7h-459q-17 0 -28.5 12t-11.5 29v102
q0 17 11.5 29t28.5 12h672q17 0 29 -12t12 -29v-117q0 -32 -41 -84l-465 -577q-6 -7 -2 -14t13 -7h491q17 0 29 -12t12 -29v-102q0 -17 -12 -29t-29 -12z" />
    <glyph glyph-name="Zcaron" unicode="&#x17d;" horiz-adv-x="997" 
d="M221 1761h131q14 0 24 -6t30 -26l83 -82q9 -9 15 -9q5 0 14 9l84 82q20 20 30 26t23 6h131q12 0 19.5 -7.5t7.5 -18.5q0 -13 -8 -21l-156 -164q-24 -24 -61 -24h-168q-38 0 -62 24l-155 164q-8 8 -8 21q0 11 7 18.5t19 7.5zM885 0h-762q-17 0 -29 12t-12 29v154
q0 15 10 32l613 998q5 7 1 13.5t-14 6.5h-579q-17 0 -29 12t-12 29v107q0 17 12 29t29 12h761q17 0 29 -12t12 -29v-148q0 -16 -10 -33l-604 -1001q-5 -7 -1.5 -14t13.5 -7h572q17 0 29 -11.5t12 -28.5v-109q0 -17 -12 -29t-29 -12z" />
    <glyph glyph-name="zcaron" unicode="&#x17e;" horiz-adv-x="911" 
d="M645 1454h94q11 0 19 -8t8 -19q0 -12 -8 -20l-170 -225q-20 -25 -62 -25h-110q-42 0 -62 25l-170 225q-8 8 -8 20q0 11 8 19t19 8h94q39 0 63 -33l97 -127q8 -8 14 -8t14 8l97 127q24 33 63 33zM815 0h-713q-17 0 -29 12t-12 29v121q0 20 4.5 30.5t22.5 32.5l487 594
q6 7 2.5 14t-12.5 7h-459q-17 0 -28.5 12t-11.5 29v102q0 17 11.5 29t28.5 12h672q17 0 29 -12t12 -29v-117q0 -32 -41 -84l-465 -577q-6 -7 -2 -14t13 -7h491q17 0 29 -12t12 -29v-102q0 -17 -12 -29t-29 -12z" />
    <glyph glyph-name="uni018F" unicode="&#x18f;" horiz-adv-x="1144" 
d="M983 1182q38 -100 48.5 -201t10.5 -264q0 -164 -11 -265t-50 -200q-48 -121 -157.5 -196.5t-260.5 -75.5q-203 0 -332 131.5t-129 369.5v279q0 17 12 29t29 12h693q-4 208 -37 303q-54 156 -236 156q-116 0 -182 -61.5t-82 -162.5q-7 -41 -41 -41h-113q-16 0 -29 11.5
t-12 25.5q16 186 137 304t322 118q151 0 263 -76.5t157 -195.5zM563 174q185 0 240 164q29 85 33 280h-539v-137q0 -155 69 -231t197 -76z" />
    <glyph glyph-name="florin" unicode="&#x192;" horiz-adv-x="686" 
d="M115 -410h-23q-17 0 -29 12t-12 29v103q0 17 11 29t28 12h29q62 0 84 40t22 124v870q0 20 -20 20h-133q-17 0 -29 12t-12 29v103q0 17 12 29t29 12h133q20 0 20 20v31q0 185 105.5 284t273.5 99h21q17 0 29 -12t12 -29v-96q0 -17 -12 -29t-29 -12h-21q-87 0 -140.5 -51.5
t-53.5 -153.5v-31q0 -20 20 -20h168q17 0 29 -12t12 -29v-103q0 -17 -12 -29t-29 -12h-168q-20 0 -20 -20v-870q0 -89 -13 -150t-45 -108t-90.5 -69t-146.5 -22z" />
    <glyph glyph-name="uni019D" unicode="&#x19d;" horiz-adv-x="1167" 
d="M868 1434h105q17 0 29 -12t12 -29v-1352q0 -17 -12 -29t-29 -12h-170q-17 0 -26.5 7.5t-16.5 27.5l-393 1012q-8 20 -17 20q-10 0 -10 -14v-1114q0 -152 -99.5 -260.5t-246.5 -108.5q-17 0 -29 12t-12 29v102q0 17 12 29t29 12q65 0 112.5 52t47.5 133v1454q0 17 12 29
t29 12h170q17 0 26.5 -7.5t16.5 -27.5l393 -1004q7 -20 16 -20q10 0 10 14v1004q0 17 12 29t29 12z" />
    <glyph glyph-name="Gcaron" unicode="&#x1e6;" horiz-adv-x="1140" 
d="M299 1761h131q13 0 23 -6t30 -26l84 -82q9 -9 15 -9q5 0 14 9l84 82q20 20 30 26t23 6h131q12 0 19.5 -7.5t7.5 -18.5q0 -13 -8 -21l-156 -164q-24 -24 -61 -24h-168q-38 0 -62 24l-155 164q-9 9 -9 21q0 11 7.5 18.5t19.5 7.5zM590 -20q-152 0 -261 66t-163 175
q-41 87 -52.5 202t-11.5 294t11.5 293.5t52.5 201.5q54 109 163 175.5t259 66.5q206 0 328 -113t122 -309q0 -15 -13 -26t-28 -11h-114q-17 0 -29 12t-12 29q0 105 -68 164.5t-186 59.5q-82 0 -145.5 -37.5t-96.5 -102.5q-43 -90 -43 -403q0 -314 43 -404q33 -65 96.5 -102
t147.5 -37q118 0 185 69.5t67 196.5v125q0 9 -6 15t-15 6h-184q-17 0 -29 12t-12 29v112q0 17 12 29t29 12h360q17 0 29 -12t12 -29v-299q0 -211 -126.5 -335.5t-321.5 -124.5z" />
    <glyph glyph-name="gcaron" unicode="&#x1e7;" horiz-adv-x="1044" 
d="M696 1454h95q10 0 18 -8t8 -19q0 -12 -8 -20l-170 -225q-20 -25 -61 -25h-111q-41 0 -61 25l-170 225q-9 9 -9 20t8.5 19t18.5 8h94q40 0 64 -33l96 -127q8 -8 14 -8q7 0 15 8l96 127q24 33 63 33zM727 -61v61q0 35 -8.5 50.5t-28.5 15.5q-13 0 -39 -16.5t-71.5 -33
t-104.5 -16.5q-103 0 -186 46t-127 128q-66 115 -66 348q0 215 64 346q40 83 128 129.5t204 46.5q73 0 122.5 -19.5t75.5 -38.5t41 -19q23 0 41 43q6 14 29 14h69q17 0 29 -12t12 -29v-1044q0 -155 -108.5 -262t-265.5 -107q-151 0 -252.5 76.5t-120.5 203.5q-6 48 37 48h98
q27 0 37.5 -10t15.5 -31q26 -103 185 -103q81 0 135.5 53.5t54.5 131.5zM510 860q-140 0 -193 -94q-24 -42 -30 -92.5t-6 -151.5q0 -99 6 -147.5t30 -95.5q24 -46 75.5 -70.5t117.5 -24.5t117 24.5t75 70.5q24 47 30.5 96.5t6.5 146.5q0 99 -6.5 150.5t-30.5 93.5
q-26 45 -76.5 69.5t-115.5 24.5z" />
    <glyph glyph-name="uni01EA" unicode="&#x1ea;" horiz-adv-x="1155" 
d="M987 1210q41 -86 53.5 -202t12.5 -291t-12.5 -291.5t-53.5 -202.5q-70 -147 -219 -207q-57 -37 -86 -75.5t-29 -92.5q0 -63 36.5 -83.5t123.5 -20.5q17 0 29 -12t12 -29v-72q0 -17 -12 -29t-29 -12q-330 0 -330 248q0 78 37 144q-125 13 -215.5 78t-136.5 163
q-41 86 -53.5 202.5t-12.5 291.5t12.5 291t53.5 202q53 109 158 176.5t252 67.5t251.5 -67.5t157.5 -176.5zM807 311q20 38 30.5 112t12.5 135t2 159q0 97 -2 158.5t-12.5 135t-30.5 111.5q-72 138 -229 138q-158 0 -230 -138q-20 -38 -30.5 -111.5t-12.5 -135t-2 -158.5
q0 -98 2 -159t12.5 -135t30.5 -112q72 -137 230 -137q157 0 229 137z" />
    <glyph glyph-name="uni01EB" unicode="&#x1eb;" horiz-adv-x="1040" 
d="M868 874q48 -71 62 -153t14 -209t-14 -209t-62 -153q-54 -83 -153 -132q-61 -37 -91 -76t-30 -94q0 -63 36.5 -83.5t123.5 -20.5q17 0 29 -12t12 -29v-72q0 -17 -12 -29t-29 -12q-330 0 -330 248q0 77 37 146q-191 18 -289 166q-48 71 -62 153t-14 209t14 209t62 153
q54 80 142.5 125t205.5 45t205.5 -45t142.5 -125zM709 260q26 39 35.5 97.5t9.5 154.5t-9.5 154.5t-35.5 97.5q-28 41 -76.5 68.5t-112.5 27.5t-112 -27.5t-76 -68.5q-26 -39 -35.5 -97.5t-9.5 -154.5t9.5 -154.5t35.5 -97.5q28 -41 76 -68.5t112 -27.5t112.5 27.5
t76.5 68.5z" />
    <glyph glyph-name="AEacute" unicode="&#x1fc;" horiz-adv-x="1353" 
d="M831 1526h-81q-13 0 -22 8t-9 20q0 9 8 21l109 154q20 32 53 32h121q12 0 19 -7.5t7 -18.5q0 -13 -8 -21l-135 -164q-20 -24 -62 -24zM195 0h-129q-15 0 -25 9.5t-10 21.5q0 15 8 39l434 1333q10 31 39 31h705q17 0 28.5 -12t11.5 -29v-113q0 -17 -11.5 -29t-28.5 -12
h-365q-21 0 -21 -20v-369q0 -9 6 -15t15 -6h342q17 0 29 -12t12 -29v-112q0 -17 -12 -29t-29 -12h-342q-9 0 -15 -6t-6 -15v-399q0 -20 21 -20h369q17 0 29 -12t12 -29v-113q0 -17 -12 -29t-29 -12h-543q-17 0 -29 12t-12 29v332h-264q-29 0 -39 -29l-101 -313
q-10 -31 -38 -31zM422 563h215v647q0 9 -6 15t-15 6h-4q-13 0 -18 -14l-188 -631q-6 -23 16 -23z" />
    <glyph glyph-name="aeacute" unicode="&#x1fd;" horiz-adv-x="1601" 
d="M825 1157h-82q-13 0 -21.5 8.5t-8.5 20.5q0 8 8 20l129 215q19 33 53 33h131q12 0 19.5 -8t7.5 -19q0 -12 -8 -20l-166 -225q-21 -25 -62 -25zM449 -20q-169 0 -271 89t-102 238q0 152 98.5 231.5t286.5 79.5h203q20 0 20 21v78q0 166 -190 166q-88 0 -138.5 -35.5
t-50.5 -97.5q0 -35 -43 -35h-98q-41 0 -41 41q0 135 99 211.5t272 76.5q161 0 272 -90q19 -16 39 -16q21 0 45 18q122 88 246 88q193 0 301 -112.5t108 -313.5v-124q0 -17 -12 -29t-29 -12h-581q-9 0 -15 -6t-6 -15q0 -131 60 -199.5t174 -68.5q170 0 211 129q9 35 47 35
h104q19 0 28.5 -11t6.5 -30q-23 -149 -125.5 -228t-271.5 -79q-156 0 -279 114q-19 19 -39 19q-18 0 -35 -17q-116 -116 -294 -116zM885 616h422q20 0 20 21q0 109 -64 176.5t-165 67.5q-104 0 -169 -67.5t-65 -176.5q0 -9 6 -15t15 -6zM463 150q121 0 179 53t58 162v65
q0 21 -20 21h-215q-103 0 -151 -34.5t-48 -107.5q0 -78 50 -118.5t147 -40.5z" />
    <glyph glyph-name="Oslashacute" unicode="&#x1fe;" horiz-adv-x="1155" 
d="M621 1526h-82q-13 0 -22 8t-9 20q0 9 8 21l109 154q20 32 53 32h121q12 0 19 -7.5t7 -18.5q0 -13 -8 -21l-135 -164q-20 -24 -61 -24zM1047 1376l-78 -131l18 -35q41 -86 53.5 -202t12.5 -291t-12.5 -291.5t-53.5 -202.5q-53 -109 -157.5 -176t-251.5 -67
q-178 0 -299 100l-29 -49q-19 -31 -43 -31h-66q-15 0 -27 11t-12 26q0 9 7 20l77 131l-18 35q-41 86 -53.5 202.5t-12.5 291.5t12.5 291t53.5 202q53 109 158 176.5t252 67.5q177 0 301 -102l30 51q18 31 39 31h66q15 0 27 -12t12 -27q0 -10 -6 -19zM303 717q0 -219 16 -307
l453 764q-73 86 -194 86q-158 0 -230 -138q-20 -38 -30.5 -111.5t-12.5 -135t-2 -158.5zM807 311q20 38 30.5 112t12.5 135t2 159q0 217 -16 305l-451 -764q74 -84 193 -84q157 0 229 137z" />
    <glyph glyph-name="oslashacute" unicode="&#x1ff;" horiz-adv-x="1040" 
d="M537 1157h-82q-13 0 -22 8.5t-9 20.5q0 8 8 20l129 215q19 33 53 33h131q12 0 19.5 -8t7.5 -19q0 -12 -8 -20l-166 -225q-21 -25 -61 -25zM918 938l-50 -64q48 -71 62 -153t14 -209t-14 -209t-62 -153q-54 -80 -142.5 -125t-205.5 -45q-155 0 -266 81l-23 -30
q-9 -12 -14 -17t-14.5 -9.5t-22.5 -4.5h-47q-16 0 -26.5 12.5t-10.5 28.5q0 14 13 31l61 80q-46 71 -60 152.5t-14 207.5q0 127 14 209t62 153q54 80 142.5 125t205.5 45q158 0 268 -83l25 32q24 31 49 31h45q17 0 27 -12t10 -27q0 -12 -26 -47zM287 512q0 -121 16 -186
l367 481q-60 53 -150 53q-64 0 -112 -27.5t-76 -68.5q-26 -39 -35.5 -97.5t-9.5 -154.5zM754 512q0 119 -17 186l-366 -483q65 -51 149 -51q64 0 112.5 27.5t76.5 68.5q26 39 35.5 97.5t9.5 154.5z" />
    <glyph glyph-name="uni0218" unicode="&#x218;" horiz-adv-x="1064" 
d="M537 -20q-211 0 -338 117.5t-127 312.5v32q0 17 12 29t29 12h114q17 0 29 -12t12 -29v-32q0 -104 75.5 -170t195.5 -66q113 0 183.5 58.5t70.5 152.5q0 106 -69.5 168.5t-227.5 99.5q-186 42 -285.5 145t-99.5 267q0 179 122.5 284t315.5 105q197 0 310.5 -104
t113.5 -285v-27q0 -17 -12 -29t-29 -12h-113q-17 0 -29 12t-12 29v27q0 92 -62 143.5t-171 51.5q-108 0 -171 -51.5t-63 -139.5q0 -96 72.5 -151t251.5 -95q165 -37 261.5 -153.5t96.5 -276.5q0 -184 -126.5 -298.5t-329.5 -114.5zM508 -430h-33q-17 0 -27 8.5t-10 20.5
q0 17 15 39l41 57q8 11 0 18.5t-19 7.5h-14q-17 0 -29 12t-12 29v105q0 17 12 29t29 12h143q17 0 29 -12t12 -29v-105q0 -75 -41 -116l-43 -45l-7 -9q-8 -8 -12 -11t-13.5 -7t-20.5 -4z" />
    <glyph glyph-name="uni0219" unicode="&#x219;" horiz-adv-x="942" 
d="M489 -20q-198 0 -313 88.5t-115 242.5q0 36 9 50t32 14h103q38 0 41 -41q10 -91 67 -134.5t164 -43.5q101 0 155 34.5t54 100.5q0 65 -50 97.5t-185 55.5q-180 31 -264.5 105.5t-84.5 202.5t104 210t265 82q175 0 276 -77.5t101 -210.5q0 -32 -9.5 -46t-31.5 -14h-102
q-17 0 -28 11t-13 30q-12 133 -187 133q-88 0 -136 -29t-48 -83q0 -57 53.5 -89.5t190.5 -60.5q181 -35 257 -107.5t76 -209.5q0 -143 -103 -227t-278 -84zM442 -430h-32q-17 0 -27 8.5t-10 20.5q0 18 14 39l41 57q8 11 0.5 18.5t-18.5 7.5h-15q-17 0 -29 12t-12 29v105
q0 17 12 29t29 12h144q17 0 29 -12t12 -29v-105q0 -75 -41 -116l-43 -45q-1 -1 -6 -6.5t-8.5 -9t-9.5 -7.5t-13.5 -6t-16.5 -2z" />
    <glyph glyph-name="uni021A" unicode="&#x21a;" horiz-adv-x="921" 
d="M518 0h-112q-17 0 -29 12t-12 29v1178q0 20 -21 20h-272q-17 0 -29 12t-12 29v113q0 17 12 29t29 12h778q17 0 29 -12t12 -29v-113q0 -17 -12 -29t-29 -12h-270q-21 0 -21 -20v-1178q0 -17 -12 -29t-29 -12zM436 -430h-33q-17 0 -26.5 8.5t-9.5 20.5q0 18 14 39l41 57
q8 11 0 18.5t-19 7.5h-14q-17 0 -29 12t-12 29v105q0 17 12 29t29 12h143q17 0 29 -12t12 -29v-105q0 -75 -41 -116l-43 -45l-7 -9q-8 -8 -12 -11t-13.5 -7t-20.5 -4z" />
    <glyph glyph-name="uni021B" unicode="&#x21b;" horiz-adv-x="776" 
d="M696 0h-112q-348 0 -348 328v481q0 20 -21 20h-143q-17 0 -29 12t-12 29v103q0 17 12 29t29 12h143q21 0 21 20v318q0 17 11.5 29t28.5 12h103q17 0 29 -12t12 -29v-318q0 -20 20 -20h236q17 0 29 -12t12 -29v-103q0 -17 -12 -29t-29 -12h-236q-20 0 -20 -20v-481
q0 -73 40.5 -108.5t123.5 -35.5h112q17 0 29 -12t12 -29v-102q0 -17 -12 -29t-29 -12zM455 -430h-33q-17 0 -27 8.5t-10 20.5q0 18 14 39l41 57q8 11 0.5 18.5t-18.5 7.5h-14q-17 0 -29 12t-12 29v105q0 17 12 29t29 12h143q17 0 29 -12t12 -29v-105q0 -75 -41 -116l-43 -45
l-8 -9q-7 -8 -11 -11t-13.5 -7t-20.5 -4z" />
    <glyph glyph-name="uni0232" unicode="&#x232;" horiz-adv-x="958" 
d="M727 1548h-496q-17 0 -29 12t-12 29v78q0 17 12 29t29 12h496q17 0 29 -12t12 -29v-78q0 -17 -12 -29t-29 -12zM537 0h-115q-17 0 -29 12t-12 29v534l-340 785q-10 25 -10 39q0 15 11.5 25t25.5 10h135q28 0 39 -31l221 -545q6 -18 16 -18q11 0 17 18l221 545
q11 31 39 31h135q14 0 25.5 -10t11.5 -25q0 -14 -10 -39l-340 -785v-534q0 -17 -12 -29t-29 -12z" />
    <glyph glyph-name="uni0233" unicode="&#x233;" horiz-adv-x="952" 
d="M729 1233h-496q-17 0 -28.5 12t-11.5 29v78q0 17 11.5 29t28.5 12h496q17 0 29 -12t12 -29v-78q0 -17 -12 -29t-29 -12zM371 -410h-111q-19 0 -30 10t-11 23q0 12 6 27l146 399q6 18 6 23t-6 20l-342 869q-9 23 -9 32q0 13 11.5 22t29.5 9h125q28 0 39 -31l252 -665
q3 -9 8 -9q6 0 9 9l233 665q11 31 39 31h125q18 0 29.5 -9t11.5 -22q0 -12 -8 -32l-514 -1340q-11 -31 -39 -31z" />
    <glyph glyph-name="uni0237" unicode="&#x237;" horiz-adv-x="495" 
d="M-12 -430h-107q-17 0 -29 12t-12 29v102q0 17 12 29t29 12h107q78 0 131 51.5t53 133.5v1044q0 17 12 29t29 12h109q17 0 28.5 -12t11.5 -29v-1044q0 -152 -107 -260.5t-267 -108.5z" />
    <glyph glyph-name="uni0259" unicode="&#x259;" horiz-adv-x="1032" 
d="M506 1044q178 0 282 -94q77 -72 112.5 -177.5t35.5 -260.5q0 -284 -135 -422q-110 -110 -299 -110q-182 0 -289 104q-117 114 -117 324v122q0 17 12 29t29 12h582q20 0 20 21q0 155 -84 221q-56 47 -149 47q-91 0 -150 -41q-47 -38 -61 -88q-9 -35 -47 -35h-105
q-19 0 -28 11t-6 30q19 149 135 236q92 71 262 71zM717 414h-422q-9 0 -15 -6t-6 -15q0 -118 68 -186q61 -64 160 -64q104 0 168 64q67 67 67 186q0 21 -20 21z" />
    <glyph glyph-name="uni0272" unicode="&#x272;" horiz-adv-x="1075" 
d="M604 1044q161 0 254.5 -100t93.5 -266v-637q0 -17 -12 -29t-29 -12h-102q-17 0 -29 12t-12 29v571q0 116 -58 182t-167 66q-98 0 -162 -64.5t-64 -172.5v-684q0 -152 -98.5 -260.5t-245.5 -108.5q-17 0 -29 12t-12 29v102q0 17 12 29t29 12q65 0 112.5 52t47.5 133v1044
q0 17 12 29t29 12h90q21 0 29 -14q3 -4 9.5 -15t10.5 -16.5t12.5 -10.5t20.5 -5q14 0 34 12.5t42.5 28t70.5 28t111 12.5z" />
    <glyph glyph-name="uni02BC" unicode="&#x2bc;" horiz-adv-x="491" 
d="M184 901h-28q-21 0 -32 11.5t-11 29.5q0 15 6 27l88 172q6 10 -1.5 18t-17.5 8h-34q-17 0 -29 12t-12 29v185q0 17 12 29t29 12h184q17 0 29 -12t12 -29v-185q0 -70 -41 -127l-100 -149q-21 -31 -54 -31z" />
    <glyph glyph-name="circumflex" unicode="&#x2c6;" horiz-adv-x="1228" 
d="M313 1157h-94q-10 0 -18 8t-8 19q0 12 8 20l170 226q19 24 61 24h111q42 0 61 -24l170 -226q8 -8 8 -20q0 -11 -8 -19t-18 -8h-94q-40 0 -64 33l-96 127q-8 8 -15 8q-6 0 -14 -8l-96 -127q-24 -33 -64 -33z" />
    <glyph glyph-name="caron" unicode="&#x2c7;" horiz-adv-x="1228" 
d="M723 1454h94q11 0 19 -8t8 -19q0 -12 -8 -20l-170 -225q-20 -25 -62 -25h-110q-42 0 -62 25l-170 225q-8 8 -8 20q0 11 8 19t19 8h94q39 0 63 -33l97 -127q8 -8 14 -8t14 8l96 127q24 33 64 33z" />
    <glyph glyph-name="breve" unicode="&#x2d8;" horiz-adv-x="1228" 
d="M520 1157q-121 0 -201.5 74.5t-80.5 187.5q0 14 10.5 24.5t23.5 10.5h88q15 0 25 -10t10 -25q0 -53 35.5 -88t89.5 -35t88.5 35t34.5 88q0 15 10.5 25t24.5 10h88q14 0 24.5 -11t10.5 -24q0 -112 -80.5 -187t-200.5 -75z" />
    <glyph glyph-name="dotaccent" unicode="&#x2d9;" horiz-adv-x="1228" 
d="M674 1233h-160q-14 0 -23.5 9.5t-9.5 23.5v155q0 12 10 22.5t23 10.5h160q13 0 23 -10.5t10 -22.5v-155q0 -14 -9.5 -23.5t-23.5 -9.5z" />
    <glyph glyph-name="ring" unicode="&#x2da;" horiz-adv-x="1228" 
d="M451 1098q-107 0 -178.5 66.5t-71.5 176.5t71.5 177t178.5 67t178 -67t71 -177t-71 -176.5t-178 -66.5zM451 1227q51 0 82.5 31.5t31.5 82.5t-31.5 83t-82.5 32t-83 -32t-32 -83t32 -82.5t83 -31.5z" />
    <glyph glyph-name="ogonek" unicode="&#x2db;" horiz-adv-x="1228" 
d="M735 -430q-329 0 -329 248q0 70 29.5 130.5t80 103t104 72t115.5 50.5v-154q-80 -43 -120 -86t-40 -106t36.5 -83.5t123.5 -20.5q17 0 29 -12t12 -29v-72q0 -17 -12 -29t-29 -12z" />
    <glyph glyph-name="tilde" unicode="&#x2dc;" horiz-adv-x="1228" 
d="M655 1239q-52 0 -118 27l-48 18q-65 27 -98 27q-42 0 -45 -37q-3 -29 -41 -29h-63q-17 0 -29 12t-12 29q0 88 48 128t128 40q53 0 119 -27l47 -18q65 -27 98 -27q42 0 45 37q3 29 41 29h64q17 0 28.5 -12t11.5 -29q0 -87 -48 -127.5t-128 -40.5z" />
    <glyph glyph-name="hungarumlaut" unicode="&#x2dd;" horiz-adv-x="1228" 
d="M328 1157h-60q-13 0 -21.5 8.5t-8.5 20.5q0 7 18 37l119 198q19 33 53 33h109q12 0 19 -8t7 -19t-18 -34l-156 -211q-21 -25 -61 -25zM676 1157h-60q-13 0 -21.5 8.5t-8.5 20.5q0 7 18 37l119 198q19 33 53 33h109q12 0 19 -8t7 -19t-18 -34l-156 -211q-21 -25 -61 -25z
" />
    <glyph glyph-name="gravecomb" unicode="&#x300;" horiz-adv-x="0" 
d="M-133 1157h-82q-40 0 -61 25l-162 219q-13 16 -13 26q0 11 7.5 19t19.5 8h131q34 0 53 -33l123 -204q15 -24 15 -31q0 -12 -9 -20.5t-22 -8.5z" />
    <glyph glyph-name="acutecomb" unicode="&#x301;" horiz-adv-x="0" 
d="M-338 1157h-82q-13 0 -22 8.5t-9 20.5q0 6 9 20l129 215q19 33 53 33h131q12 0 19.5 -8t7.5 -19t-9 -20l-165 -225q-21 -25 -62 -25z" />
    <glyph glyph-name="uni0302" unicode="&#x302;" horiz-adv-x="0" 
d="M-571 1157h-95q-10 0 -18 8t-8 19q0 12 8 20l170 226q19 24 61 24h111q42 0 61 -24l170 -226q9 -9 9 -20q0 -10 -8 -18.5t-19 -8.5h-94q-40 0 -64 33l-96 127q-8 8 -14 8q-7 0 -15 -8l-96 -127q-24 -33 -63 -33z" />
    <glyph glyph-name="tildecomb" unicode="&#x303;" horiz-adv-x="0" 
d="M-279 1239q-52 0 -118 27l-47 18q-65 27 -99 27q-42 0 -45 -37q-3 -29 -41 -29h-63q-17 0 -29 12t-12 29q0 88 48 128t128 40q53 0 119 -27l47 -18q65 -27 98 -27q42 0 45 37q3 29 41 29h64q17 0 29 -12t12 -29q0 -87 -48.5 -127.5t-128.5 -40.5z" />
    <glyph glyph-name="uni0304" unicode="&#x304;" horiz-adv-x="0" 
d="M-143 1233h-496q-17 0 -29 12t-12 29v78q0 17 12 29t29 12h496q17 0 29 -12t12 -29v-78q0 -17 -12 -29t-29 -12z" />
    <glyph glyph-name="uni0306" unicode="&#x306;" horiz-adv-x="0" 
d="M-383 1157q-122 0 -202.5 75t-80.5 187q0 13 11 24t24 11h88q15 0 25 -10t10 -25q0 -53 35.5 -88t89.5 -35t88.5 35t34.5 88q0 15 10.5 25t24.5 10h88q13 0 24 -11t11 -24q0 -112 -80.5 -187t-200.5 -75z" />
    <glyph glyph-name="uni0307" unicode="&#x307;" horiz-adv-x="0" 
d="M-135 1233h-160q-13 0 -23 9.5t-10 23.5v155q0 12 10 22.5t23 10.5h160q13 0 23 -10.5t10 -22.5v-155q0 -14 -10 -23.5t-23 -9.5z" />
    <glyph glyph-name="uni0308" unicode="&#x308;" horiz-adv-x="0" 
d="M-485 1206h-140q-13 0 -22.5 9.5t-9.5 23.5v141q0 12 9.5 22.5t22.5 10.5h140q13 0 22.5 -10.5t9.5 -22.5v-141q0 -14 -9.5 -23.5t-22.5 -9.5zM-135 1206h-139q-14 0 -23.5 10t-9.5 23v141q0 12 10 22.5t23 10.5h139q13 0 23 -10.5t10 -22.5v-141q0 -13 -10 -23t-23 -10z
" />
    <glyph glyph-name="uni030A" unicode="&#x30a;" horiz-adv-x="0" 
d="M-352 1098q-107 0 -178.5 66.5t-71.5 176.5t71.5 177t178.5 67t178.5 -67t71.5 -177t-71.5 -176.5t-178.5 -66.5zM-352 1227q51 0 82.5 31.5t31.5 82.5t-31.5 83t-82.5 32t-83 -32t-32 -83t32 -82.5t83 -31.5z" />
    <glyph glyph-name="uni030B" unicode="&#x30b;" horiz-adv-x="0" 
d="M-686 1157h-59q-13 0 -22 8.5t-9 20.5q0 7 18 37l119 198q19 33 53 33h109q12 0 19 -8t7 -19t-18 -34l-156 -211q-21 -25 -61 -25zM-338 1157h-59q-13 0 -22 8.5t-9 20.5q0 7 18 37l119 198q19 33 53 33h109q12 0 19.5 -8t7.5 -19q0 -10 -19 -34l-155 -211
q-21 -25 -62 -25z" />
    <glyph glyph-name="uni030C" unicode="&#x30c;" horiz-adv-x="0" 
d="M-223 1454h94q11 0 19 -8t8 -19t-9 -20l-170 -225q-20 -25 -61 -25h-111q-41 0 -61 25l-170 225q-8 8 -8 20q0 11 8 19t18 8h95q39 0 63 -33l96 -127q8 -8 15 -8q6 0 14 8l96 127q24 33 64 33z" />
    <glyph glyph-name="uni0312" unicode="&#x312;" horiz-adv-x="0" 
d="M-190 1526h32q17 0 27 -8.5t10 -20.5q0 -18 -14 -39l-41 -57q-8 -11 -0.5 -19t18.5 -8h15q17 0 29 -12t12 -29v-104q0 -17 -12 -29t-29 -12h-144q-17 0 -29 12t-12 29v104q0 76 41 117l43 45q1 1 6 6.5t8.5 9t9.5 7.5t13.5 6t16.5 2z" />
    <glyph glyph-name="dotbelowcomb" unicode="&#x323;" horiz-adv-x="0" 
d="M-143 -358h-144q-17 0 -29 12t-12 29v143q0 17 12 29t29 12h144q17 0 29 -12t12 -29v-143q0 -17 -12 -29t-29 -12z" />
    <glyph glyph-name="uni0326" unicode="&#x326;" horiz-adv-x="0" 
d="M-240 -430h-32q-17 0 -27 8.5t-10 20.5q0 18 14 39l41 57q8 11 0.5 18.5t-18.5 7.5h-15q-17 0 -29 12t-12 29v105q0 17 12 29t29 12h144q17 0 29 -12t12 -29v-105q0 -75 -41 -116l-43 -45q-1 -1 -6 -6.5t-8.5 -9t-9.5 -7.5t-13.5 -6t-16.5 -2z" />
    <glyph glyph-name="uni0327" unicode="&#x327;" horiz-adv-x="0" 
d="M-199 -410h-94q-16 0 -25.5 8t-9.5 19q0 4 4.5 17.5t6.5 21.5l53 219q9 33 39 33h90q33 0 33 -31q0 -5 -11 -53l-47 -201q-9 -33 -39 -33z" />
    <glyph glyph-name="uni0328" unicode="&#x328;" horiz-adv-x="0" 
d="M-143 -430q-330 0 -330 248q0 70 29.5 130.5t80 103t104.5 72t116 50.5v-154q-80 -43 -120 -86t-40 -106t36.5 -83.5t123.5 -20.5q17 0 29 -12t12 -29v-72q0 -17 -12 -29t-29 -12z" />
    <glyph glyph-name="uni0394" unicode="&#x394;" horiz-adv-x="978" 
d="M600 1403l334 -1198q14 -47 14 -82v-82q0 -17 -12 -29t-29 -12h-835q-17 0 -29 12t-12 29v82q0 40 14 82l334 1198q3 13 14 22t25 9h143q29 0 39 -31zM727 213l-227 930q-3 12 -8 12h-5q-5 0 -8 -12l-227 -930q-5 -25 12 -25h451q17 0 12 25z" />
    <glyph glyph-name="uni03A9" unicode="&#x3a9;" horiz-adv-x="1167" 
d="M584 1260q-158 0 -230 -138q-20 -38 -30.5 -111.5t-12.5 -135t-2 -158.5q0 -70 4 -119.5t17.5 -113t46 -116t82.5 -92.5q51 -41 51 -94v-141q0 -17 -12 -29t-29 -12h-319q-17 0 -29 12t-12 29v111q0 17 12 29t29 12h96q17 0 23.5 13t-5.5 25q-91 91 -123 208.5t-32 277.5
q0 177 12 292t53 201q53 109 158 176.5t252 67.5t251.5 -67.5t157.5 -176.5q41 -86 53.5 -202t12.5 -291q0 -159 -32.5 -277t-123.5 -209q-12 -12 -5 -25t24 -13h96q17 0 29 -12t12 -29v-111q0 -17 -12 -29t-29 -12h-320q-17 0 -29 12t-12 29v141q0 52 52 94q51 41 83 93
t45.5 116.5t17 112t3.5 119.5q0 97 -2 158.5t-12.5 135t-30.5 111.5q-72 138 -229 138z" />
    <glyph glyph-name="uni03BC" unicode="&#x3bc;" horiz-adv-x="1085" 
d="M272 -410h-98q-17 0 -29 12t-12 29v1352q0 17 12 29t29 12h102q17 0 29 -12t12 -29v-614q0 -89 65 -147t161 -58q97 0 161 53t64 141v625q0 17 12 29t29 12h102q17 0 29 -12t12 -29v-942q0 -19 -11 -30t-30 -11h-90q-14 0 -28 14q-33 33 -52 33t-38 -10.5t-36 -23
t-55 -23t-90 -10.5q-43 0 -80.5 16.5t-62 32.5t-37.5 16q-12 0 -20.5 -8.5t-8.5 -24.5v-381q0 -17 -12 -29t-29 -12z" />
    <glyph glyph-name="pi" unicode="&#x3c0;" horiz-adv-x="1095" 
d="M666 840h-236q-20 0 -20 -21v-778q0 -17 -12 -29t-29 -12h-103q-17 0 -29 12t-12 29v778q0 21 -20 21h-123q-17 0 -29 12t-12 29v102q0 17 12 29t29 12h932q17 0 29 -12t12 -29v-102q0 -17 -12 -29t-29 -12h-123q-9 0 -15 -6t-6 -15v-778q0 -17 -12 -29t-29 -12h-102
q-17 0 -29 12t-12 29v778q0 21 -20 21z" />
    <glyph glyph-name="uni0E3F" unicode="&#xe3f;" horiz-adv-x="1085" 
d="M1004 418q0 -179 -113.5 -293t-286.5 -125v-102q0 -17 -12 -29t-29 -12h-92q-20 0 -30.5 13t-10.5 28v102h-235q-17 0 -29 12t-12 29v1352q0 17 12 29t29 12h235v102q0 17 12 29t29 12h92q17 0 29 -12t12 -29v-102q164 -11 267.5 -113.5t103.5 -267.5q0 -78 -32.5 -154.5
t-84.5 -122.5q-12 -10 -12 -23t12 -22q64 -52 105 -139t41 -174zM348 1219v-355q0 -20 21 -20h204q91 0 146 57t55 152q0 93 -54.5 139.5t-146.5 46.5h-204q-21 0 -21 -20zM369 195h204q97 0 163.5 60.5t66.5 162.5t-66.5 171.5t-163.5 69.5h-204q-21 0 -21 -20v-424
q0 -20 21 -20z" />
    <glyph glyph-name="Wgrave" unicode="&#x1e80;" horiz-adv-x="1531" 
d="M807 1526h-82q-41 0 -61 24l-136 164q-8 8 -8 21q0 11 7.5 18.5t19.5 7.5h121q33 0 53 -32l108 -154q9 -13 9 -21q0 -12 -9 -20t-22 -8zM535 0h-175q-32 0 -38 31l-277 1341q-4 20 -4 31q0 31 41 31h111q33 0 38 -31l209 -1051q2 -12 13 -12h4q10 0 12 12l184 1051
q6 31 39 31h148q33 0 39 -31l184 -1051q2 -12 12 -12h4q11 0 13 12l208 1051q5 31 39 31h111q41 0 41 -31q0 -11 -4 -31l-277 -1341q-6 -31 -39 -31h-174q-33 0 -39 31l-182 1018q-2 12 -10 12t-10 -12l-183 -1018q-6 -31 -38 -31z" />
    <glyph glyph-name="wgrave" unicode="&#x1e81;" horiz-adv-x="1363" 
d="M723 1157h-82q-40 0 -61 25l-162 219q-12 15 -12 26t7 19t19 8h131q34 0 53 -33l123 -204q15 -24 15 -31q0 -12 -9 -20.5t-22 -8.5zM449 0h-113q-30 0 -39 31l-260 925q-6 24 -6 37q0 12 10.5 21.5t28.5 9.5h116q31 0 39 -31l158 -663q3 -12 13.5 -12t13.5 12l180 663
q8 31 39 31h106q31 0 39 -31l180 -663q3 -12 13.5 -12t13.5 12l158 663q8 31 39 31h116q18 0 28.5 -9.5t10.5 -21.5q0 -13 -6 -37l-260 -925q-9 -31 -39 -31h-113q-29 0 -38 31l-187 676q-2 6 -8 6t-8 -6l-187 -676q-9 -31 -38 -31z" />
    <glyph glyph-name="Wacute" unicode="&#x1e82;" horiz-adv-x="1531" 
d="M809 1526h-82q-13 0 -22 8t-9 20q0 8 9 21l108 154q20 32 53 32h121q12 0 19.5 -7.5t7.5 -18.5q0 -13 -8 -21l-136 -164q-20 -24 -61 -24zM535 0h-175q-32 0 -38 31l-277 1341q-4 20 -4 31q0 31 41 31h111q33 0 38 -31l209 -1051q2 -12 13 -12h4q10 0 12 12l184 1051
q6 31 39 31h148q33 0 39 -31l184 -1051q2 -12 12 -12h4q11 0 13 12l208 1051q5 31 39 31h111q41 0 41 -31q0 -11 -4 -31l-277 -1341q-6 -31 -39 -31h-174q-33 0 -39 31l-182 1018q-2 12 -10 12t-10 -12l-183 -1018q-6 -31 -38 -31z" />
    <glyph glyph-name="wacute" unicode="&#x1e83;" horiz-adv-x="1363" 
d="M707 1157h-82q-13 0 -22 8.5t-9 20.5q0 8 8 20l129 215q19 33 53 33h131q12 0 19.5 -8t7.5 -19q0 -12 -8 -20l-166 -225q-21 -25 -61 -25zM449 0h-113q-30 0 -39 31l-260 925q-6 24 -6 37q0 12 10.5 21.5t28.5 9.5h116q31 0 39 -31l158 -663q3 -12 13.5 -12t13.5 12
l180 663q8 31 39 31h106q31 0 39 -31l180 -663q3 -12 13.5 -12t13.5 12l158 663q8 31 39 31h116q18 0 28.5 -9.5t10.5 -21.5q0 -13 -6 -37l-260 -925q-9 -31 -39 -31h-113q-29 0 -38 31l-187 676q-2 6 -8 6t-8 -6l-187 -676q-9 -31 -38 -31z" />
    <glyph glyph-name="Wdieresis" unicode="&#x1e84;" horiz-adv-x="1531" 
d="M659 1528h-139q-14 0 -23.5 10t-9.5 23v141q0 12 10 22.5t23 10.5h139q13 0 23 -10.5t10 -22.5v-141q0 -13 -10 -23t-23 -10zM1010 1528h-140q-13 0 -22.5 9.5t-9.5 23.5v141q0 12 9.5 22.5t22.5 10.5h140q13 0 22.5 -10.5t9.5 -22.5v-141q0 -14 -9.5 -23.5t-22.5 -9.5z
M535 0h-175q-32 0 -38 31l-277 1341q-4 20 -4 31q0 31 41 31h111q33 0 38 -31l209 -1051q2 -12 13 -12h4q10 0 12 12l184 1051q6 31 39 31h148q33 0 39 -31l184 -1051q2 -12 12 -12h4q11 0 13 12l208 1051q5 31 39 31h111q41 0 41 -31q0 -11 -4 -31l-277 -1341
q-6 -31 -39 -31h-174q-33 0 -39 31l-182 1018q-2 12 -10 12t-10 -12l-183 -1018q-6 -31 -38 -31z" />
    <glyph glyph-name="wdieresis" unicode="&#x1e85;" horiz-adv-x="1363" 
d="M575 1206h-139q-14 0 -23.5 10t-9.5 23v141q0 12 10 22.5t23 10.5h139q13 0 23 -10.5t10 -22.5v-141q0 -13 -10 -23t-23 -10zM926 1206h-140q-13 0 -22.5 9.5t-9.5 23.5v141q0 12 9.5 22.5t22.5 10.5h140q13 0 22.5 -10.5t9.5 -22.5v-141q0 -14 -9.5 -23.5t-22.5 -9.5z
M449 0h-113q-30 0 -39 31l-260 925q-6 24 -6 37q0 12 10.5 21.5t28.5 9.5h116q31 0 39 -31l158 -663q3 -12 13.5 -12t13.5 12l180 663q8 31 39 31h106q31 0 39 -31l180 -663q3 -12 13.5 -12t13.5 12l158 663q8 31 39 31h116q18 0 28.5 -9.5t10.5 -21.5q0 -13 -6 -37
l-260 -925q-9 -31 -39 -31h-113q-29 0 -38 31l-187 676q-2 6 -8 6t-8 -6l-187 -676q-9 -31 -38 -31z" />
    <glyph glyph-name="uni1E9E" unicode="&#x1e9e;" horiz-adv-x="1181" 
d="M680 0h-123q-17 0 -29 12t-12 29v102q0 17 12 29t29 12h102q106 0 173 65.5t67 186.5q0 94 -64 160t-171 66h-35q-17 0 -29 11.5t-12 28.5v62q0 20 4.5 38.5t10 30.5t18.5 35l184 344q6 12 6 19q0 8 -14 8h-197q-144 0 -198 -73.5t-54 -243.5v-881q0 -17 -12 -29t-29 -12
h-112q-17 0 -29 12t-12 29v915q0 236 108 357t318 121h393q53 0 53 -56v-106q0 -10 -1 -19t-3.5 -18.5t-4 -15.5t-6 -16.5l-6 -14t-7.5 -15.5l-7 -14l-157 -295q-7 -14 -7 -24q0 -27 33 -41q106 -46 173 -135t67 -222q0 -198 -122 -320t-298 -122z" />
    <glyph glyph-name="uni1EA0" unicode="&#x1ea0;" horiz-adv-x="1044" 
d="M184 0h-118q-14 0 -24.5 9t-10.5 20q0 13 6 34l375 1340q3 13 14 22t25 9h143q14 0 25 -9t14 -22l375 -1340q6 -21 6 -34q0 -11 -10.5 -20t-24.5 -9h-119q-29 0 -39 31l-90 313q-3 13 -14 21t-25 8h-340q-29 0 -39 -29l-90 -313q-10 -31 -39 -31zM395 563h254q23 0 17 23
l-134 571q-3 12 -8 12h-4q-5 0 -8 -12l-133 -571q-6 -23 16 -23zM594 -358h-143q-17 0 -29 12t-12 29v143q0 17 12 29t29 12h143q17 0 29 -12t12 -29v-143q0 -17 -12 -29t-29 -12z" />
    <glyph glyph-name="uni1EA1" unicode="&#x1ea1;" horiz-adv-x="997" 
d="M455 -20q-169 0 -271 88.5t-102 236.5q0 152 96.5 232.5t272.5 80.5h219q20 0 20 21v84q0 78 -49 119t-141 41q-90 0 -139.5 -36t-49.5 -102q0 -19 -11 -26.5t-36 -7.5h-94q-41 0 -41 41q0 138 98 215t275 77q183 0 277.5 -83t94.5 -244v-676q0 -17 -11.5 -29t-28.5 -12
h-70q-21 0 -29 14q-1 1 -4.5 7.5t-5 9t-4.5 8t-5.5 7.5t-6 5.5t-7.5 4.5t-8 1q-11 0 -32 -12t-44 -26.5t-67 -26.5t-96 -12zM469 150q121 0 179.5 53t58.5 162v65q0 9 -6 15t-15 6h-215q-199 0 -199 -142q0 -78 50 -118.5t147 -40.5zM571 -358h-143q-17 0 -29 12t-12 29v143
q0 17 12 29t29 12h143q17 0 29 -12t12 -29v-143q0 -17 -12 -29t-29 -12z" />
    <glyph glyph-name="uni1EB8" unicode="&#x1eb8;" horiz-adv-x="993" 
d="M860 0h-665q-17 0 -29 12t-12 29v1352q0 17 12 29t29 12h661q17 0 29 -12t12 -29v-113q0 -17 -12 -29t-29 -12h-487q-21 0 -21 -20v-369q0 -9 6 -15t15 -6h465q17 0 28.5 -12t11.5 -29v-112q0 -17 -11.5 -29t-28.5 -12h-465q-9 0 -15 -6t-6 -15v-399q0 -20 21 -20h491
q17 0 29 -12t12 -29v-113q0 -17 -12 -29t-29 -12zM573 -358h-143q-17 0 -29 12t-12 29v143q0 17 12 29t29 12h143q17 0 29 -12t12 -29v-143q0 -17 -12 -29t-29 -12z" />
    <glyph glyph-name="uni1EB9" unicode="&#x1eb9;" horiz-adv-x="1032" 
d="M526 -20q-178 0 -282 94q-77 72 -112.5 177.5t-35.5 260.5q0 284 135 422q110 110 299 110q182 0 289 -104q117 -114 117 -324v-122q0 -17 -12 -29t-29 -12h-582q-20 0 -20 -21q0 -155 84 -221q56 -47 149 -47q91 0 150 41q47 38 61 88q9 35 47 35h105q19 0 28.5 -11
t6.5 -30q-18 -148 -136 -236q-92 -71 -262 -71zM315 610h422q9 0 15 6t6 15q0 118 -68 186q-61 64 -160 64q-104 0 -168 -64q-67 -67 -67 -186q0 -21 20 -21zM588 -358h-144q-17 0 -29 12t-12 29v143q0 17 12 29t29 12h144q17 0 29 -12t12 -29v-143q0 -17 -12 -29t-29 -12z
" />
    <glyph glyph-name="uni1EBC" unicode="&#x1ebc;" horiz-adv-x="993" 
d="M647 1536q-44 0 -110 25l-41 18q-56 25 -93 25q-38 0 -41 -35q-3 -27 -36 -27h-58q-17 0 -28 11t-11 28q0 84 44 122t118 38q45 0 111 -25l41 -18q56 -25 92 -25q38 0 41 35q2 12 12 19.5t25 7.5h57q17 0 28 -11t11 -28q0 -83 -44.5 -121.5t-117.5 -38.5zM860 0h-665
q-17 0 -29 12t-12 29v1352q0 17 12 29t29 12h661q17 0 29 -12t12 -29v-113q0 -17 -12 -29t-29 -12h-487q-21 0 -21 -20v-369q0 -9 6 -15t15 -6h465q17 0 28.5 -12t11.5 -29v-112q0 -17 -11.5 -29t-28.5 -12h-465q-9 0 -15 -6t-6 -15v-399q0 -20 21 -20h491q17 0 29 -12
t12 -29v-113q0 -17 -12 -29t-29 -12z" />
    <glyph glyph-name="uni1EBD" unicode="&#x1ebd;" horiz-adv-x="1032" 
d="M655 1239q-52 0 -118 27l-48 18q-65 27 -98 27q-42 0 -45 -37q-3 -29 -41 -29h-63q-17 0 -29 12t-12 29q0 88 48 128t128 40q53 0 119 -27l47 -18q65 -27 98 -27q42 0 45 37q3 29 41 29h64q17 0 28.5 -12t11.5 -29q0 -87 -48 -127.5t-128 -40.5zM526 -20q-178 0 -282 94
q-77 72 -112.5 177.5t-35.5 260.5q0 284 135 422q110 110 299 110q182 0 289 -104q117 -114 117 -324v-122q0 -17 -12 -29t-29 -12h-582q-20 0 -20 -21q0 -155 84 -221q56 -47 149 -47q91 0 150 41q47 38 61 88q9 35 47 35h105q19 0 28.5 -11t6.5 -30q-18 -148 -136 -236
q-92 -71 -262 -71zM315 610h422q9 0 15 6t6 15q0 118 -68 186q-61 64 -160 64q-104 0 -168 -64q-67 -67 -67 -186q0 -21 20 -21z" />
    <glyph glyph-name="uni1ECA" unicode="&#x1eca;" horiz-adv-x="501" 
d="M307 0h-112q-17 0 -29 12t-12 29v1352q0 17 12 29t29 12h112q17 0 29 -12t12 -29v-1352q0 -17 -12 -29t-29 -12zM324 -358h-144q-17 0 -29 12t-12 29v143q0 17 12 29t29 12h144q17 0 29 -12t12 -29v-143q0 -17 -12 -29t-29 -12z" />
    <glyph glyph-name="uni1ECB" unicode="&#x1ecb;" horiz-adv-x="454" 
d="M307 1233h-160q-13 0 -22.5 9.5t-9.5 23.5v155q0 12 9.5 22.5t22.5 10.5h160q13 0 23 -10.5t10 -22.5v-155q0 -14 -10 -23.5t-23 -9.5zM281 0h-107q-17 0 -29 12t-12 29v942q0 17 12 29t29 12h107q17 0 29 -12t12 -29v-942q0 -17 -12 -29t-29 -12zM297 -358h-143
q-17 0 -29 12t-12 29v143q0 17 12 29t29 12h143q17 0 29 -12t12 -29v-143q0 -17 -12 -29t-29 -12z" />
    <glyph glyph-name="uni1ECC" unicode="&#x1ecc;" horiz-adv-x="1155" 
d="M578 -20q-147 0 -252 67t-158 176q-41 86 -53.5 202.5t-12.5 291.5t12.5 291t53.5 202q53 109 158 176.5t252 67.5t251.5 -67.5t157.5 -176.5q41 -86 53.5 -202t12.5 -291t-12.5 -291.5t-53.5 -202.5q-53 -109 -157.5 -176t-251.5 -67zM578 174q157 0 229 137
q20 38 30.5 112t12.5 135t2 159q0 97 -2 158.5t-12.5 135t-30.5 111.5q-72 138 -229 138q-158 0 -230 -138q-20 -38 -30.5 -111.5t-12.5 -135t-2 -158.5q0 -98 2 -159t12.5 -135t30.5 -112q72 -137 230 -137zM649 -379h-143q-17 0 -29 12t-12 29v143q0 17 12 29t29 12h143
q17 0 29 -12t12 -29v-143q0 -17 -12 -29t-29 -12z" />
    <glyph glyph-name="uni1ECD" unicode="&#x1ecd;" horiz-adv-x="1040" 
d="M520 -20q-117 0 -205.5 45t-142.5 125q-48 71 -62 153t-14 209t14 209t62 153q54 80 142.5 125t205.5 45t205.5 -45t142.5 -125q48 -71 62 -153t14 -209t-14 -209t-62 -153q-54 -80 -142.5 -125t-205.5 -45zM520 164q64 0 112.5 27.5t76.5 68.5q26 39 35.5 97.5
t9.5 154.5t-9.5 154.5t-35.5 97.5q-28 41 -76.5 68.5t-112.5 27.5t-112 -27.5t-76 -68.5q-26 -39 -35.5 -97.5t-9.5 -154.5t9.5 -154.5t35.5 -97.5q28 -41 76 -68.5t112 -27.5zM592 -358h-143q-17 0 -29 12t-12 29v143q0 17 12 29t29 12h143q17 0 29 -12t12 -29v-143
q0 -17 -12 -29t-29 -12z" />
    <glyph glyph-name="uni1EE4" unicode="&#x1ee4;" horiz-adv-x="1208" 
d="M604 -20q-217 0 -339 119.5t-122 346.5v947q0 17 12 29t29 12h113q17 0 29 -12t12 -29v-967q0 -131 71.5 -191.5t194.5 -60.5q129 0 197.5 67.5t68.5 184.5v967q0 17 12 29t29 12h113q17 0 29 -12t12 -29v-947q0 -224 -126.5 -345t-334.5 -121zM676 -358h-144
q-17 0 -28.5 12t-11.5 29v143q0 17 11.5 29t28.5 12h144q17 0 29 -12t12 -29v-143q0 -17 -12 -29t-29 -12z" />
    <glyph glyph-name="uni1EE5" unicode="&#x1ee5;" horiz-adv-x="1075" 
d="M799 1024h102q17 0 29 -12t12 -29v-942q0 -17 -12 -29t-29 -12h-90q-21 0 -29 14q-3 4 -9.5 15t-10.5 16.5t-12.5 10.5t-20.5 5q-14 0 -34 -12.5t-42.5 -28t-70.5 -28t-111 -12.5q-161 0 -254.5 100t-93.5 266v637q0 17 12 29t29 12h102q17 0 29 -12t12 -29v-571
q0 -116 58 -182t167 -66q98 0 162 64.5t64 172.5v582q0 17 12 29t29 12zM600 -358h-143q-17 0 -29 12t-12 29v143q0 17 12 29t29 12h143q17 0 29 -12t12 -29v-143q0 -17 -12 -29t-29 -12z" />
    <glyph glyph-name="Ygrave" unicode="&#x1ef2;" horiz-adv-x="958" 
d="M520 1526h-82q-41 0 -61 24l-135 164q-9 9 -9 21q0 11 7.5 18.5t19.5 7.5h121q33 0 53 -32l109 -154q8 -12 8 -21q0 -12 -9 -20t-22 -8zM537 0h-115q-17 0 -29 12t-12 29v534l-340 785q-10 25 -10 39q0 15 11.5 25t25.5 10h135q28 0 39 -31l221 -545q6 -18 16 -18
q11 0 17 18l221 545q11 31 39 31h135q14 0 25.5 -10t11.5 -25q0 -14 -10 -39l-340 -785v-534q0 -17 -12 -29t-29 -12z" />
    <glyph glyph-name="ygrave" unicode="&#x1ef3;" horiz-adv-x="952" 
d="M522 1157h-82q-40 0 -61 25l-162 219q-12 15 -12 26t7 19t19 8h131q35 0 54 -33l123 -204q14 -22 14 -31q0 -12 -9 -20.5t-22 -8.5zM371 -410h-111q-19 0 -30 10t-11 23q0 12 6 27l146 399q6 18 6 23t-6 20l-342 869q-9 23 -9 32q0 13 11.5 22t29.5 9h125q28 0 39 -31
l252 -665q3 -9 8 -9q6 0 9 9l233 665q11 31 39 31h125q18 0 29.5 -9t11.5 -22q0 -12 -8 -32l-514 -1340q-11 -31 -39 -31z" />
    <glyph glyph-name="uni1EF8" unicode="&#x1ef8;" horiz-adv-x="958" 
d="M608 1536q-44 0 -110 25l-41 18q-56 25 -92 25q-38 0 -41 -35q-2 -12 -12 -19.5t-25 -7.5h-58q-17 0 -28 11t-11 28q0 84 44 122t118 38q45 0 111 -25l41 -18q56 -25 92 -25q38 0 41 35q2 12 12 19.5t25 7.5h57q17 0 28 -11t11 -28q0 -83 -44.5 -121.5t-117.5 -38.5z
M537 0h-115q-17 0 -29 12t-12 29v534l-340 785q-10 25 -10 39q0 15 11.5 25t25.5 10h135q28 0 39 -31l221 -545q6 -18 16 -18q11 0 17 18l221 545q11 31 39 31h135q14 0 25.5 -10t11.5 -25q0 -14 -10 -39l-340 -785v-534q0 -17 -12 -29t-29 -12z" />
    <glyph glyph-name="uni1EF9" unicode="&#x1ef9;" horiz-adv-x="952" 
d="M621 1239q-53 0 -119 27l-47 18q-65 27 -99 27q-42 0 -45 -37q-3 -29 -41 -29h-63q-17 0 -29 12t-12 29q0 88 48 128t128 40q53 0 119 -27l47 -18q65 -27 98 -27q42 0 45 37q3 29 41 29h64q17 0 29 -12t12 -29q0 -87 -48 -127.5t-128 -40.5zM371 -410h-111q-19 0 -30 10
t-11 23q0 12 6 27l146 399q6 18 6 23t-6 20l-342 869q-9 23 -9 32q0 13 11.5 22t29.5 9h125q28 0 39 -31l252 -665q3 -9 8 -9q6 0 9 9l233 665q11 31 39 31h125q18 0 29.5 -9t11.5 -22q0 -12 -8 -32l-514 -1340q-11 -31 -39 -31z" />
    <glyph glyph-name="uni2002" unicode="&#x2002;" horiz-adv-x="1024" 
 />
    <glyph glyph-name="uni2003" unicode="&#x2003;" horiz-adv-x="2048" 
 />
    <glyph glyph-name="uni2004" unicode="&#x2004;" horiz-adv-x="681" 
 />
    <glyph glyph-name="uni2005" unicode="&#x2005;" horiz-adv-x="512" 
 />
    <glyph glyph-name="uni2009" unicode="&#x2009;" horiz-adv-x="256" 
 />
    <glyph glyph-name="uni200A" unicode="&#x200a;" horiz-adv-x="86" 
 />
    <glyph glyph-name="endash" unicode="&#x2013;" horiz-adv-x="1085" 
d="M932 436h-778q-17 0 -29 12t-12 29v113q0 17 12 29t29 12h778q17 0 29 -12t12 -29v-113q0 -17 -12 -29t-29 -12z" />
    <glyph glyph-name="emdash" unicode="&#x2014;" horiz-adv-x="1392" 
d="M1239 436h-1085q-17 0 -29 12t-12 29v113q0 17 12 29t29 12h1085q17 0 29 -12t12 -29v-113q0 -17 -12 -29t-29 -12z" />
    <glyph glyph-name="quoteleft" unicode="&#x2018;" horiz-adv-x="491" 
d="M307 1434h29q21 0 32 -11.5t11 -29.5q0 -15 -6 -27l-88 -172q-6 -10 1 -18.5t17 -8.5h35q17 0 29 -12t12 -29v-184q0 -17 -12 -29t-29 -12h-184q-17 0 -29 12t-12 29v184q0 70 41 127l100 150q21 31 53 31z" />
    <glyph glyph-name="quoteright" unicode="&#x2019;" horiz-adv-x="491" 
d="M184 901h-28q-21 0 -32 11.5t-11 29.5q0 15 6 27l88 172q6 10 -1.5 18t-17.5 8h-34q-17 0 -29 12t-12 29v185q0 17 12 29t29 12h184q17 0 29 -12t12 -29v-185q0 -70 -41 -127l-100 -149q-21 -31 -54 -31z" />
    <glyph glyph-name="quotesinglbase" unicode="&#x201a;" horiz-adv-x="491" 
d="M184 -266h-28q-21 0 -32 11.5t-11 29.5q0 14 6 26l88 172q6 10 -1.5 18.5t-17.5 8.5h-34q-17 0 -29 12t-12 29v184q0 17 12 29t29 12h184q17 0 29 -12t12 -29v-184q0 -70 -41 -127l-100 -150q-20 -30 -54 -30z" />
    <glyph glyph-name="quotedblleft" unicode="&#x201c;" horiz-adv-x="901" 
d="M307 1434h29q21 0 32 -11.5t11 -29.5q0 -15 -6 -27l-88 -172q-6 -10 1 -18.5t17 -8.5h35q17 0 29 -12t12 -29v-184q0 -17 -12 -29t-29 -12h-184q-17 0 -29 12t-12 29v184q0 70 41 127l100 150q21 31 53 31zM717 1434h28q21 0 32 -11.5t11 -29.5q0 -15 -6 -27l-88 -172
q-6 -10 1.5 -18.5t17.5 -8.5h35q17 0 28.5 -12t11.5 -29v-184q0 -17 -11.5 -29t-28.5 -12h-185q-17 0 -29 12t-12 29v184q0 70 41 127l101 150q21 31 53 31z" />
    <glyph glyph-name="quotedblright" unicode="&#x201d;" horiz-adv-x="901" 
d="M184 901h-28q-21 0 -32 11.5t-11 29.5q0 15 6 27l88 172q6 10 -1.5 18t-17.5 8h-34q-17 0 -29 12t-12 29v185q0 17 12 29t29 12h184q17 0 29 -12t12 -29v-185q0 -70 -41 -127l-100 -149q-21 -31 -54 -31zM594 901h-29q-21 0 -32 11.5t-11 29.5q0 15 6 27l88 172
q6 10 -1 18t-17 8h-35q-17 0 -29 12t-12 29v185q0 17 12 29t29 12h185q17 0 28.5 -12t11.5 -29v-185q0 -71 -40 -127l-101 -149q-21 -31 -53 -31z" />
    <glyph glyph-name="quotedblbase" unicode="&#x201e;" horiz-adv-x="901" 
d="M184 -266h-28q-21 0 -32 11.5t-11 29.5q0 14 6 26l88 172q6 10 -1.5 18.5t-17.5 8.5h-34q-17 0 -29 12t-12 29v184q0 17 12 29t29 12h184q17 0 29 -12t12 -29v-184q0 -70 -41 -127l-100 -150q-20 -30 -54 -30zM594 -266h-29q-21 0 -32 11.5t-11 29.5q0 14 6 26l88 172
q6 10 -1 18.5t-17 8.5h-35q-17 0 -29 12t-12 29v184q0 17 12 29t29 12h185q17 0 28.5 -12t11.5 -29v-184q0 -71 -40 -127l-101 -150q-20 -30 -53 -30z" />
    </font>
</defs>
</svg>
